<?xml version="1.0" encoding="utf-8"?>
<svg viewBox="0 0 600 600" fill="none" xmlns="http://www.w3.org/2000/svg">
  <path d="M358.5 68V248H355.5V68" stroke="#FF7474"/>
  <path d="M171 448V469C171 471.209 172.791 473 175 473H243C245.209 473 247 471.209 247 469V448" stroke="#FF8AFA" stroke-width="3" stroke-dasharray="10 1"/>
  <path d="M124 533H167C169.209 533 171 531.209 171 529V487C171 484.791 172.791 483 175 483H243C250.732 483 257 476.732 257 469V448" stroke="#FFC42E" stroke-width="3" stroke-dasharray="10 1"/>
  <path d="M347 68V32C347 29.7909 348.791 28 351 28H431" stroke="#809CB1" stroke-width="3"/>
  <path d="M367 68V102.201C367 105.914 368.475 109.475 371.101 112.101L382.899 123.899C385.525 126.525 387 130.086 387 133.799V187.201C387 190.914 385.525 194.475 382.899 197.101L374.029 205.971C369.529 210.471 367 216.576 367 222.941V257.201C367 260.914 365.525 264.475 362.899 267.101L311.101 318.899C308.475 321.525 307 325.086 307 328.799V338" stroke="#59C3FF" stroke-width="3"/>
  <path d="M337 68V52C337 49.7909 335.209 48 333 48H321" stroke="#5F8098" stroke-width="3"/>
  <path fill-rule="evenodd" clip-rule="evenodd" d="M401 219.5C394.096 219.5 388.5 225.096 388.5 232V248H385.5V232C385.5 223.44 392.44 216.5 401 216.5H491V219.5H401Z" stroke="#FF8AFA"/>
  <rect x="165" y="576" width="6" height="14" transform="matrix(0, -1, 1, 0, -411, 741)" fill="#FCFAF3"/>
  <path d="M266 523H165C162.791 523 161 521.209 161 519V448" stroke="#8A7EE8" stroke-width="3" stroke-dasharray="10 1"/>
  <rect x="330" y="141" width="6" height="62" transform="matrix(0, -1, 1, 0, 189, 470.99999999999994)" fill="#FCFAF3"/>
  <path d="M377 248V223.799C377 220.086 378.475 216.525 381.101 213.899L392.899 202.101C395.525 199.475 397 195.914 397 192.201V142C397 139.791 395.209 138 393 138H225M225 138H182.5C180.291 138 178.5 139.791 178.5 142V173.5C178.5 175.709 180.291 177.5 182.5 177.5H214C216.209 177.5 218 175.709 218 173.5V145C218 141.134 221.134 138 225 138V138Z" stroke="#FF8AFA" stroke-width="3" style=""/>
  <path d="M151 448V362C151 359.791 152.791 358 155 358H283C285.209 358 287 356.209 287 354V338" stroke="#43D95B" stroke-width="3"/>
  <path d="M291 398H293C295.209 398 297 396.209 297 394V338" stroke="#5F8098" stroke-width="3"/>
</svg>