<?xml version="1.0" encoding="utf-8"?>
<svg viewBox="0 0 150 71" fill="none" xmlns="http://www.w3.org/2000/svg">
  <defs>
    <clipPath id="clip0_266_90">
      <rect x="16" y="43" width="16" height="16" rx="8" fill="white"/>
    </clipPath>
    <clipPath id="clip1_266_90">
      <rect x="37" y="43" width="16" height="16" rx="8" fill="white"/>
    </clipPath>
  </defs>
  <rect x="0.5" y="0.5" width="149" height="70" rx="5.5" style="fill: rgb(22, 31, 55);"/>
  <rect x="0.5" y="0.5" width="149" height="70" rx="5.5" style="stroke: rgb(85, 100, 142);"/>
  <path d="M16.9588 36V27.2727H18.2756V31.0653H22.6264V27.2727H23.9474V36H22.6264V32.1946H18.2756V36H16.9588ZM25.7628 36V29.4545H27.0369V36H25.7628ZM26.4062 28.4446C26.1847 28.4446 25.9943 28.3707 25.8352 28.223C25.679 28.0724 25.6009 27.8935 25.6009 27.6861C25.6009 27.4759 25.679 27.2969 25.8352 27.1491C25.9943 26.9986 26.1847 26.9233 26.4062 26.9233C26.6278 26.9233 26.8168 26.9986 26.973 27.1491C27.1321 27.2969 27.2116 27.4759 27.2116 27.6861C27.2116 27.8935 27.1321 28.0724 26.973 28.223C26.8168 28.3707 26.6278 28.4446 26.4062 28.4446ZM31.4954 38.5909C30.9755 38.5909 30.5281 38.5227 30.1531 38.3864C29.7809 38.25 29.4769 38.0696 29.2411 37.8452C29.0053 37.6207 28.8292 37.375 28.7127 37.108L29.8079 36.6562C29.8846 36.7812 29.9869 36.9134 30.1147 37.0526C30.2454 37.1946 30.4215 37.3153 30.6431 37.4148C30.8675 37.5142 31.1559 37.5639 31.5082 37.5639C31.9911 37.5639 32.3903 37.446 32.7056 37.2102C33.021 36.9773 33.1786 36.6051 33.1786 36.0938V34.8068H33.0977C33.021 34.946 32.9102 35.1009 32.7653 35.2713C32.6232 35.4418 32.4272 35.5895 32.1772 35.7145C31.9272 35.8395 31.6019 35.902 31.2013 35.902C30.6843 35.902 30.2184 35.7812 29.8036 35.5398C29.3917 35.2955 29.065 34.9361 28.8235 34.4616C28.5849 33.9844 28.4656 33.3977 28.4656 32.7017C28.4656 32.0057 28.5835 31.4091 28.8192 30.9119C29.0579 30.4148 29.3846 30.0341 29.7994 29.7699C30.2141 29.5028 30.6843 29.3693 31.2099 29.3693C31.6161 29.3693 31.9442 29.4375 32.1942 29.5739C32.4442 29.7074 32.6388 29.8636 32.7781 30.0426C32.9201 30.2216 33.0295 30.3793 33.1062 30.5156H33.1999V29.4545H34.4485V36.1449C34.4485 36.7074 34.3178 37.169 34.0565 37.5298C33.7951 37.8906 33.4414 38.1577 32.9954 38.331C32.5522 38.5043 32.0522 38.5909 31.4954 38.5909ZM31.4826 34.8452C31.8491 34.8452 32.1587 34.7599 32.4116 34.5895C32.6673 34.4162 32.8604 34.169 32.9911 33.848C33.1246 33.5241 33.1914 33.1364 33.1914 32.6847C33.1914 32.2443 33.1261 31.8565 32.9954 31.5213C32.8647 31.1861 32.6729 30.9247 32.4201 30.7372C32.1673 30.5469 31.8548 30.4517 31.4826 30.4517C31.0991 30.4517 30.7795 30.5511 30.5238 30.75C30.2681 30.946 30.0749 31.2131 29.9442 31.5511C29.8164 31.8892 29.7525 32.267 29.7525 32.6847C29.7525 33.1136 29.8178 33.4901 29.9485 33.8139C30.0792 34.1378 30.2724 34.3906 30.5281 34.5724C30.7866 34.7543 31.1048 34.8452 31.4826 34.8452ZM37.4315 32.1136V36H36.1573V27.2727H37.4144V30.5199H37.4954C37.6488 30.1676 37.8832 29.8878 38.1985 29.6804C38.5138 29.473 38.9258 29.3693 39.4343 29.3693C39.8832 29.3693 40.2752 29.4616 40.6104 29.6463C40.9485 29.831 41.2099 30.1065 41.3945 30.473C41.582 30.8366 41.6758 31.2912 41.6758 31.8366V36H40.4016V31.9901C40.4016 31.5099 40.2781 31.1378 40.0309 30.8736C39.7837 30.6065 39.44 30.473 38.9996 30.473C38.6985 30.473 38.4286 30.5369 38.19 30.6648C37.9542 30.7926 37.7681 30.9801 37.6317 31.2273C37.4982 31.4716 37.4315 31.767 37.4315 32.1136ZM51.4141 29.5653C51.3686 29.1619 51.1811 28.8494 50.8516 28.6278C50.522 28.4034 50.1072 28.2912 49.6072 28.2912C49.2493 28.2912 48.9396 28.348 48.6783 28.4616C48.4169 28.5724 48.2138 28.7259 48.0689 28.9219C47.9268 29.1151 47.8558 29.3352 47.8558 29.5824C47.8558 29.7898 47.9041 29.9687 48.0007 30.1193C48.1001 30.2699 48.2294 30.3963 48.3885 30.4986C48.5504 30.598 48.7237 30.6818 48.9084 30.75C49.093 30.8153 49.2706 30.8693 49.4411 30.9119L50.2933 31.1335C50.5717 31.2017 50.8572 31.294 51.1499 31.4105C51.4425 31.527 51.7138 31.6804 51.9638 31.8707C52.2138 32.0611 52.4155 32.2969 52.5689 32.5781C52.7251 32.8594 52.8033 33.196 52.8033 33.5881C52.8033 34.0824 52.6754 34.5213 52.4197 34.9048C52.1669 35.2884 51.799 35.5909 51.3161 35.8125C50.8359 36.0341 50.255 36.1449 49.5732 36.1449C48.9197 36.1449 48.3544 36.0412 47.8771 35.8338C47.3999 35.6264 47.0263 35.3324 46.7564 34.9517C46.4865 34.5682 46.3374 34.1136 46.3089 33.5881H47.63C47.6555 33.9034 47.7578 34.1662 47.9368 34.3764C48.1186 34.5838 48.3501 34.7386 48.6314 34.8409C48.9155 34.9403 49.2266 34.9901 49.5646 34.9901C49.9368 34.9901 50.2678 34.9318 50.5575 34.8153C50.8501 34.696 51.0803 34.5312 51.2479 34.321C51.4155 34.108 51.4993 33.8594 51.4993 33.5753C51.4993 33.3168 51.4254 33.1051 51.2777 32.9403C51.1328 32.7756 50.9354 32.6392 50.6854 32.5312C50.4382 32.4233 50.1584 32.3281 49.8459 32.2457L48.8146 31.9645C48.1158 31.7741 47.5618 31.4943 47.1527 31.125C46.7464 30.7557 46.5433 30.267 46.5433 29.6591C46.5433 29.1562 46.6797 28.7173 46.9524 28.3423C47.2251 27.9673 47.5945 27.6761 48.0604 27.4688C48.5263 27.2585 49.0518 27.1534 49.6371 27.1534C50.228 27.1534 50.7493 27.2571 51.201 27.4645C51.6555 27.6719 52.0135 27.9574 52.2749 28.321C52.5362 28.6818 52.6726 29.0966 52.6839 29.5653H51.4141ZM54.2745 38.4545V29.4545H55.5188V30.5156H55.6254C55.6992 30.3793 55.8058 30.2216 55.945 30.0426C56.0842 29.8636 56.2773 29.7074 56.5245 29.5739C56.7717 29.4375 57.0984 29.3693 57.5046 29.3693C58.033 29.3693 58.5046 29.5028 58.9194 29.7699C59.3342 30.0369 59.6594 30.4219 59.8952 30.9247C60.1339 31.4276 60.2532 32.0327 60.2532 32.7401C60.2532 33.4474 60.1353 34.054 59.8995 34.5597C59.6637 35.0625 59.3398 35.4503 58.9279 35.723C58.516 35.9929 58.0458 36.1278 57.5174 36.1278C57.1197 36.1278 56.7944 36.0611 56.5415 35.9276C56.2915 35.794 56.0955 35.6378 55.9535 35.4588C55.8114 35.2798 55.7021 35.1207 55.6254 34.9815H55.5487V38.4545H54.2745ZM55.5231 32.7273C55.5231 33.1875 55.5898 33.5909 55.7234 33.9375C55.8569 34.2841 56.0501 34.5554 56.3029 34.7514C56.5558 34.9446 56.8654 35.0412 57.2319 35.0412C57.6126 35.0412 57.9308 34.9403 58.1864 34.7386C58.4421 34.5341 58.6353 34.2571 58.766 33.9077C58.8995 33.5582 58.9663 33.1648 58.9663 32.7273C58.9663 32.2955 58.9009 31.9077 58.7702 31.5639C58.6424 31.2202 58.4492 30.9489 58.1907 30.75C57.935 30.5511 57.6154 30.4517 57.2319 30.4517C56.8626 30.4517 56.5501 30.5469 56.2944 30.7372C56.0415 30.9276 55.8498 31.1932 55.7191 31.5341C55.5884 31.875 55.5231 32.2727 55.5231 32.7273ZM64.5018 36.1321C63.8569 36.1321 63.3015 35.9943 62.8356 35.7188C62.3725 35.4403 62.0146 35.0497 61.7617 34.5469C61.5117 34.0412 61.3867 33.4489 61.3867 32.7699C61.3867 32.0994 61.5117 31.5085 61.7617 30.9972C62.0146 30.4858 62.3668 30.0866 62.8185 29.7997C63.2731 29.5128 63.8043 29.3693 64.4123 29.3693C64.7816 29.3693 65.1396 29.4304 65.4862 29.5526C65.8327 29.6747 66.1438 29.8665 66.4194 30.1278C66.695 30.3892 66.9123 30.7287 67.0714 31.1463C67.2305 31.5611 67.31 32.0653 67.31 32.6591V33.1108H62.1069V32.1562H66.0614C66.0614 31.821 65.9933 31.5241 65.8569 31.2656C65.7205 31.0043 65.5288 30.7983 65.2816 30.6477C65.0373 30.4972 64.7504 30.4219 64.4208 30.4219C64.0629 30.4219 63.7504 30.5099 63.4833 30.6861C63.2191 30.8594 63.0146 31.0866 62.8697 31.3679C62.7276 31.6463 62.6566 31.9489 62.6566 32.2756V33.0213C62.6566 33.4588 62.7333 33.831 62.8867 34.1378C63.043 34.4446 63.2603 34.679 63.5387 34.8409C63.8171 35 64.1424 35.0795 64.5146 35.0795C64.756 35.0795 64.9762 35.0455 65.1751 34.9773C65.3739 34.9062 65.5458 34.8011 65.6907 34.6619C65.8356 34.5227 65.9464 34.3509 66.0231 34.1463L67.229 34.3636C67.1325 34.7187 66.9592 35.0298 66.7092 35.2969C66.462 35.5611 66.1509 35.767 65.7759 35.9148C65.4038 36.0597 64.979 36.1321 64.5018 36.1321ZM71.5447 36.1321C70.8999 36.1321 70.3445 35.9943 69.8786 35.7188C69.4155 35.4403 69.0575 35.0497 68.8047 34.5469C68.5547 34.0412 68.4297 33.4489 68.4297 32.7699C68.4297 32.0994 68.5547 31.5085 68.8047 30.9972C69.0575 30.4858 69.4098 30.0866 69.8615 29.7997C70.3161 29.5128 70.8473 29.3693 71.4553 29.3693C71.8246 29.3693 72.1825 29.4304 72.5291 29.5526C72.8757 29.6747 73.1868 29.8665 73.4624 30.1278C73.7379 30.3892 73.9553 30.7287 74.1143 31.1463C74.2734 31.5611 74.353 32.0653 74.353 32.6591V33.1108H69.1499V32.1562H73.1044C73.1044 31.821 73.0362 31.5241 72.8999 31.2656C72.7635 31.0043 72.5717 30.7983 72.3246 30.6477C72.0803 30.4972 71.7933 30.4219 71.4638 30.4219C71.1058 30.4219 70.7933 30.5099 70.5263 30.6861C70.2621 30.8594 70.0575 31.0866 69.9126 31.3679C69.7706 31.6463 69.6996 31.9489 69.6996 32.2756V33.0213C69.6996 33.4588 69.7763 33.831 69.9297 34.1378C70.0859 34.4446 70.3033 34.679 70.5817 34.8409C70.8601 35 71.1854 35.0795 71.5575 35.0795C71.799 35.0795 72.0192 35.0455 72.218 34.9773C72.4169 34.9062 72.5888 34.8011 72.7337 34.6619C72.8786 34.5227 72.9893 34.3509 73.0661 34.1463L74.272 34.3636C74.1754 34.7187 74.0021 35.0298 73.7521 35.2969C73.505 35.5611 73.1939 35.767 72.8189 35.9148C72.4467 36.0597 72.022 36.1321 71.5447 36.1321ZM78.217 36.1278C77.6886 36.1278 77.217 35.9929 76.8022 35.723C76.3903 35.4503 76.0664 35.0625 75.8306 34.5597C75.5977 34.054 75.4812 33.4474 75.4812 32.7401C75.4812 32.0327 75.5991 31.4276 75.8349 30.9247C76.0735 30.4219 76.4002 30.0369 76.815 29.7699C77.2298 29.5028 77.6999 29.3693 78.2255 29.3693C78.6317 29.3693 78.9585 29.4375 79.2056 29.5739C79.4556 29.7074 79.6488 29.8636 79.7852 30.0426C79.9244 30.2216 80.0323 30.3793 80.109 30.5156H80.1857V27.2727H81.4599V36H80.2156V34.9815H80.109C80.0323 35.1207 79.9215 35.2798 79.7766 35.4588C79.6346 35.6378 79.4386 35.794 79.1886 35.9276C78.9386 36.0611 78.6147 36.1278 78.217 36.1278ZM78.4982 35.0412C78.8647 35.0412 79.1744 34.9446 79.4272 34.7514C79.6829 34.5554 79.8761 34.2841 80.0067 33.9375C80.1403 33.5909 80.207 33.1875 80.207 32.7273C80.207 32.2727 80.1417 31.875 80.011 31.5341C79.8803 31.1932 79.6886 30.9276 79.4357 30.7372C79.1829 30.5469 78.8704 30.4517 78.4982 30.4517C78.1147 30.4517 77.7951 30.5511 77.5394 30.75C77.2837 30.9489 77.0906 31.2202 76.9599 31.5639C76.832 31.9077 76.7681 32.2955 76.7681 32.7273C76.7681 33.1648 76.8335 33.5582 76.9641 33.9077C77.0948 34.2571 77.288 34.5341 77.5437 34.7386C77.8022 34.9403 78.1204 35.0412 78.4982 35.0412ZM86.5565 36V27.2727H87.8732V34.8665H91.8278V36H86.5565ZM93.2276 36V29.4545H94.5018V36H93.2276ZM93.8711 28.4446C93.6495 28.4446 93.4592 28.3707 93.3001 28.223C93.1438 28.0724 93.0657 27.8935 93.0657 27.6861C93.0657 27.4759 93.1438 27.2969 93.3001 27.1491C93.4592 26.9986 93.6495 26.9233 93.8711 26.9233C94.0927 26.9233 94.2816 26.9986 94.4379 27.1491C94.5969 27.2969 94.6765 27.4759 94.6765 27.6861C94.6765 27.8935 94.5969 28.0724 94.4379 28.223C94.2816 28.3707 94.0927 28.4446 93.8711 28.4446ZM97.4901 32.1136V36H96.2159V29.4545H97.4389V30.5199H97.5199C97.6705 30.1733 97.9063 29.8949 98.2273 29.6847C98.5511 29.4744 98.9588 29.3693 99.4503 29.3693C99.8963 29.3693 100.287 29.4631 100.622 29.6506C100.957 29.8352 101.217 30.1108 101.402 30.4773C101.587 30.8437 101.679 31.2969 101.679 31.8366V36H100.405V31.9901C100.405 31.5156 100.281 31.1449 100.034 30.8778C99.7869 30.608 99.4474 30.473 99.0156 30.473C98.7202 30.473 98.4574 30.5369 98.2273 30.6648C98 30.7926 97.8196 30.9801 97.6861 31.2273C97.5554 31.4716 97.4901 31.767 97.4901 32.1136ZM106.209 36.1321C105.564 36.1321 105.009 35.9943 104.543 35.7188C104.08 35.4403 103.722 35.0497 103.469 34.5469C103.219 34.0412 103.094 33.4489 103.094 32.7699C103.094 32.0994 103.219 31.5085 103.469 30.9972C103.722 30.4858 104.074 30.0866 104.526 29.7997C104.98 29.5128 105.511 29.3693 106.119 29.3693C106.489 29.3693 106.847 29.4304 107.193 29.5526C107.54 29.6747 107.851 29.8665 108.126 30.1278C108.402 30.3892 108.619 30.7287 108.778 31.1463C108.938 31.5611 109.017 32.0653 109.017 32.6591V33.1108H103.814V32.1562H107.768C107.768 31.821 107.7 31.5241 107.564 31.2656C107.428 31.0043 107.236 30.7983 106.989 30.6477C106.744 30.4972 106.457 30.4219 106.128 30.4219C105.77 30.4219 105.457 30.5099 105.19 30.6861C104.926 30.8594 104.722 31.0866 104.577 31.3679C104.435 31.6463 104.364 31.9489 104.364 32.2756V33.0213C104.364 33.4588 104.44 33.831 104.594 34.1378C104.75 34.4446 104.967 34.679 105.246 34.8409C105.524 35 105.849 35.0795 106.222 35.0795C106.463 35.0795 106.683 35.0455 106.882 34.9773C107.081 34.9062 107.253 34.8011 107.398 34.6619C107.543 34.5227 107.653 34.3509 107.73 34.1463L108.936 34.3636C108.839 34.7187 108.666 35.0298 108.416 35.2969C108.169 35.5611 107.858 35.767 107.483 35.9148C107.111 36.0597 106.686 36.1321 106.209 36.1321ZM115.336 31.0526L114.181 31.2571C114.132 31.1094 114.056 30.9687 113.951 30.8352C113.848 30.7017 113.709 30.5923 113.533 30.5071C113.357 30.4219 113.137 30.3793 112.873 30.3793C112.512 30.3793 112.211 30.4602 111.969 30.6222C111.728 30.7812 111.607 30.9872 111.607 31.2401C111.607 31.4588 111.688 31.6349 111.85 31.7685C112.012 31.902 112.273 32.0114 112.634 32.0966L113.674 32.3352C114.276 32.4744 114.725 32.6889 115.02 32.9787C115.316 33.2685 115.463 33.6449 115.463 34.108C115.463 34.5 115.35 34.8494 115.123 35.1562C114.898 35.4602 114.584 35.6989 114.181 35.8722C113.78 36.0455 113.316 36.1321 112.787 36.1321C112.054 36.1321 111.456 35.9759 110.993 35.6634C110.53 35.348 110.246 34.9006 110.141 34.321L111.373 34.1335C111.449 34.4545 111.607 34.6974 111.846 34.8622C112.084 35.0241 112.395 35.1051 112.779 35.1051C113.196 35.1051 113.53 35.0185 113.78 34.8452C114.03 34.669 114.155 34.4545 114.155 34.2017C114.155 33.9972 114.078 33.8253 113.925 33.6861C113.775 33.5469 113.543 33.4418 113.23 33.3707L112.123 33.1278C111.512 32.9886 111.06 32.767 110.767 32.4631C110.478 32.1591 110.333 31.7741 110.333 31.3082C110.333 30.9219 110.441 30.5838 110.657 30.294C110.873 30.0043 111.171 29.7784 111.551 29.6165C111.932 29.4517 112.368 29.3693 112.86 29.3693C113.567 29.3693 114.124 29.5227 114.53 29.8295C114.936 30.1335 115.205 30.5412 115.336 31.0526Z" style="fill: rgb(255, 255, 255);"/>
  <g clip-path="url(#clip0_266_90)">
    <path d="M22.4395 54H20.7393L22.9477 47.4545H25.0539L27.2623 54H25.5621L24.0248 49.1037H23.9736L22.4395 54ZM22.2126 51.424H25.7666V52.6257H22.2126V51.424Z" style="fill: rgb(255, 255, 255);"/>
  </g>
  <rect x="17" y="44" width="14" height="14" rx="7" stroke="#FF7474" stroke-width="2"/>
  <g clip-path="url(#clip1_266_90)">
    <path d="M42.5071 54V47.4545H45.2365C45.7266 47.4545 46.1367 47.5238 46.467 47.6623C46.7994 47.8008 47.0487 47.9947 47.2148 48.244C47.3832 48.4933 47.4673 48.782 47.4673 49.1101C47.4673 49.3594 47.4151 49.582 47.3107 49.7781C47.2063 49.9719 47.0625 50.1328 46.8793 50.2607C46.696 50.3885 46.484 50.478 46.2433 50.5291V50.593C46.5075 50.6058 46.7514 50.6772 46.9751 50.8072C47.201 50.9371 47.3821 51.1183 47.5185 51.3505C47.6548 51.5806 47.723 51.8533 47.723 52.1687C47.723 52.5202 47.6335 52.8345 47.4545 53.1115C47.2756 53.3864 47.0167 53.6037 46.6779 53.7635C46.3391 53.9212 45.9279 54 45.4442 54H42.5071ZM44.0891 52.7248H45.0671C45.4102 52.7248 45.6626 52.6598 45.8246 52.5298C45.9886 52.3999 46.0707 52.2188 46.0707 51.9865C46.0707 51.8182 46.0313 51.6733 45.9524 51.5518C45.8736 51.4283 45.7617 51.3335 45.6168 51.2674C45.4719 51.1992 45.2983 51.1651 45.0959 51.1651H44.0891V52.7248ZM44.0891 50.1456H44.9648C45.1374 50.1456 45.2908 50.1168 45.4251 50.0593C45.5593 50.0018 45.6637 49.9187 45.7383 49.81C45.815 49.7013 45.8533 49.5703 45.8533 49.4169C45.8533 49.1974 45.7756 49.0249 45.62 48.8991C45.4645 48.7734 45.2546 48.7106 44.9904 48.7106H44.0891V50.1456Z" style="fill: rgb(255, 255, 255);"/>
  </g>
  <rect x="38" y="44" width="14" height="14" rx="7" stroke="#FF8AFA" stroke-width="2"/>
  <path d="M69.1334 20.3101L67.2664 14.661H68.2292L69.3595 18.1958C69.393 18.2818 69.4237 18.3841 69.4516 18.5024C69.4795 18.6154 69.5046 18.7311 69.5269 18.8494C69.5492 18.9678 69.5688 19.0781 69.5855 19.1803C69.6078 19.2825 69.6274 19.3659 69.6441 19.4305L69.4013 19.4224C69.4851 19.1373 69.5492 18.9167 69.5939 18.7607C69.6441 18.6046 69.6832 18.4863 69.7111 18.4056C69.739 18.3195 69.7641 18.2469 69.7865 18.1877L70.8414 15.6375H71.6535L72.6749 18.1877C72.7307 18.3168 72.7781 18.4459 72.8172 18.5751C72.8618 18.6988 72.9009 18.8252 72.9344 18.9544C72.9679 19.0781 73.0042 19.2099 73.0432 19.3498L72.8256 19.4063C72.8535 19.261 72.873 19.148 72.8842 19.0673C72.9009 18.9813 72.9149 18.9113 72.926 18.8575C72.9372 18.8037 72.9484 18.7526 72.9595 18.7042C72.9707 18.6504 72.9874 18.5831 73.0098 18.5024C73.0377 18.4217 73.0739 18.3114 73.1186 18.1716L74.2321 14.661H75.2033L73.3363 20.3101H72.7083L71.1595 16.7754L71.2348 16.8077L69.7446 20.3101H69.1334Z" fill="#FF5353"/>
  <path d="M63.8309 20.3908C63.4179 20.3908 63.0356 20.3182 62.684 20.1729C62.3379 20.0277 62.0337 19.8259 61.7714 19.5677C61.5146 19.3041 61.3137 18.9974 61.1686 18.6477C61.029 18.2926 60.9593 17.9052 60.9593 17.4856C60.9593 17.0659 61.029 16.6813 61.1686 16.3316C61.3137 15.9765 61.5146 15.6698 61.7714 15.4116C62.0337 15.1479 62.3379 14.9435 62.684 14.7982C63.0356 14.653 63.4179 14.5803 63.8309 14.5803C64.244 14.5803 64.6235 14.653 64.9696 14.7982C65.3212 14.9435 65.6254 15.1479 65.8821 15.4116C66.1445 15.6752 66.3454 15.9845 66.4849 16.3396C66.6301 16.6893 66.7026 17.0713 66.7026 17.4856C66.7026 17.8999 66.6301 18.2845 66.4849 18.6396C66.3454 18.9893 66.1445 19.296 65.8821 19.5596C65.6254 19.8232 65.3212 20.0277 64.9696 20.1729C64.6235 20.3182 64.244 20.3908 63.8309 20.3908ZM63.8309 19.5435C64.1156 19.5435 64.3751 19.4924 64.6096 19.3901C64.8496 19.2879 65.0561 19.1453 65.2291 18.9624C65.4021 18.7741 65.5361 18.5562 65.631 18.3087C65.7314 18.0559 65.7817 17.7815 65.7817 17.4856C65.7817 17.1897 65.7314 16.918 65.631 16.6705C65.5361 16.4176 65.4021 16.1997 65.2291 16.0168C65.0561 15.8285 64.8496 15.6833 64.6096 15.581C64.3751 15.4788 64.1156 15.4277 63.8309 15.4277C63.5463 15.4277 63.284 15.4788 63.044 15.581C62.8095 15.6833 62.603 15.8258 62.4244 16.0088C62.2514 16.1917 62.1174 16.4096 62.0225 16.6624C61.9277 16.9099 61.8802 17.1843 61.8802 17.4856C61.8802 17.7815 61.9277 18.0559 62.0225 18.3087C62.1174 18.5616 62.2514 18.7795 62.4244 18.9624C62.603 19.1453 62.8095 19.2879 63.044 19.3901C63.284 19.4924 63.5463 19.5435 63.8309 19.5435Z" fill="#FF5353"/>
  <path d="M55.6384 20.3101V14.661H58.1333C58.4682 14.661 58.7751 14.7417 59.0542 14.9031C59.3389 15.0592 59.5649 15.2744 59.7324 15.5488C59.8998 15.8178 59.9835 16.1217 59.9835 16.4607C59.9835 16.7673 59.8998 17.0525 59.7324 17.3161C59.5649 17.5797 59.3417 17.7923 59.0626 17.9537C58.7835 18.1097 58.4737 18.1877 58.1333 18.1877H56.5426V20.3101H55.6384ZM59.1212 20.3101L57.631 17.76L58.5603 17.5582L60.218 20.3182L59.1212 20.3101ZM56.5426 17.3484H58.217C58.3789 17.3484 58.524 17.3107 58.6524 17.2354C58.7807 17.1547 58.8812 17.0471 58.9538 16.9126C59.0263 16.7727 59.0626 16.6194 59.0626 16.4526C59.0626 16.2643 59.0152 16.1002 58.9203 15.9603C58.831 15.8151 58.7026 15.7021 58.5351 15.6214C58.3733 15.5407 58.1891 15.5003 57.9826 15.5003H56.5426V17.3484Z" fill="#FF5353"/>
  <path d="M49.8171 20.3101V14.661H52.312C52.6469 14.661 52.9539 14.7417 53.2329 14.9031C53.5176 15.0592 53.7436 15.2744 53.9111 15.5488C54.0785 15.8178 54.1622 16.1217 54.1622 16.4607C54.1622 16.7673 54.0785 17.0525 53.9111 17.3161C53.7436 17.5797 53.5204 17.7923 53.2413 17.9537C52.9622 18.1097 52.6525 18.1877 52.312 18.1877H50.7213V20.3101H49.8171ZM53.2999 20.3101L51.8097 17.76L52.739 17.5582L54.3967 20.3182L53.2999 20.3101ZM50.7213 17.3484H52.3957C52.5576 17.3484 52.7027 17.3107 52.8311 17.2354C52.9594 17.1547 53.0599 17.0471 53.1325 16.9126C53.205 16.7727 53.2413 16.6194 53.2413 16.4526C53.2413 16.2643 53.1939 16.1002 53.099 15.9603C53.0097 15.8151 52.8813 15.7021 52.7139 15.6214C52.552 15.5407 52.3678 15.5003 52.1613 15.5003H50.7213V17.3484Z" fill="#FF5353"/>
  <path d="M43.3437 20.3101L45.6126 14.661H46.5335L48.7857 20.3101H47.8229L46.4833 16.9045C46.4666 16.8669 46.4331 16.7754 46.3828 16.6302C46.3382 16.4849 46.2852 16.3235 46.2238 16.1459C46.1624 15.9684 46.1066 15.807 46.0563 15.6617C46.0061 15.5111 45.9726 15.4143 45.9559 15.3712L46.1484 15.3631C46.1149 15.4546 46.0731 15.5703 46.0228 15.7102C45.9782 15.85 45.9279 15.998 45.8721 16.154C45.8219 16.31 45.7717 16.458 45.7214 16.5979C45.6712 16.7324 45.6293 16.8454 45.5959 16.9368L44.2647 20.3101H43.3437ZM44.3484 18.9059L44.6833 18.0666H47.3456L47.7308 18.9059H44.3484Z" fill="#FF5353"/>
  <path d="M35.3456 20.3101V14.661H37.6396C38.0582 14.661 38.4349 14.7283 38.7698 14.8628C39.1103 14.9973 39.4005 15.191 39.6405 15.4438C39.8805 15.6967 40.0647 15.9953 40.1931 16.3396C40.3215 16.684 40.3857 17.0659 40.3857 17.4856C40.3857 17.9052 40.3215 18.2899 40.1931 18.6396C40.0647 18.9839 39.8805 19.2825 39.6405 19.5354C39.4061 19.7829 39.1187 19.9739 38.7782 20.1084C38.4377 20.2429 38.0582 20.3101 37.6396 20.3101H35.3456ZM36.2498 19.5596L36.2247 19.4708H37.5977C37.8935 19.4708 38.1559 19.4251 38.3847 19.3337C38.6191 19.2422 38.8145 19.1131 38.9708 18.9463C39.1326 18.7741 39.2554 18.5643 39.3391 18.3168C39.4229 18.0693 39.4647 17.7923 39.4647 17.4856C39.4647 17.1789 39.4229 16.9045 39.3391 16.6624C39.2554 16.415 39.1326 16.2051 38.9708 16.033C38.8089 15.8608 38.6136 15.729 38.3847 15.6375C38.1559 15.5461 37.8935 15.5003 37.5977 15.5003H36.1996L36.2498 15.4277V19.5596Z" fill="#FF5353"/>
  <path d="M30.2029 20.3101V14.661H33.8951V15.5003H31.1071V19.4708H33.8951V20.3101H30.2029ZM30.6132 17.8326V16.9933H33.4346V17.8326H30.6132Z" fill="#FF5353"/>
  <path d="M24.3816 20.3101V14.661H26.8765C27.2114 14.661 27.5184 14.7417 27.7975 14.9031C28.0821 15.0592 28.3082 15.2744 28.4756 15.5488C28.6431 15.8178 28.7268 16.1217 28.7268 16.4607C28.7268 16.7673 28.6431 17.0525 28.4756 17.3161C28.3082 17.5797 28.0849 17.7923 27.8059 17.9537C27.5268 18.1097 27.217 18.1877 26.8765 18.1877H25.2858V20.3101H24.3816ZM27.8645 20.3101L26.3742 17.76L27.3035 17.5582L28.9612 20.3182L27.8645 20.3101ZM25.2858 17.3484H26.9603C27.1221 17.3484 27.2672 17.3107 27.3956 17.2354C27.524 17.1547 27.6245 17.0471 27.697 16.9126C27.7696 16.7727 27.8059 16.6194 27.8059 16.4526C27.8059 16.2643 27.7584 16.1002 27.6635 15.9603C27.5742 15.8151 27.4459 15.7021 27.2784 15.6214C27.1165 15.5407 26.9324 15.5003 26.7258 15.5003H25.2858V17.3484Z" fill="#FF5353"/>
  <path fill-rule="evenodd" clip-rule="evenodd" d="M19.7117 14L20.2344 14.5151L17.069 17.5L20.2344 20.4849L19.7117 21L16 17.5L19.7117 14Z" fill="#FF5353"/>
  <path fill-rule="evenodd" clip-rule="evenodd" d="M79.2883 14L78.7656 14.5151L81.931 17.5L78.7656 20.4849L79.2883 21L83 17.5L79.2883 14Z" fill="#FF5353"/>
</svg>