<?xml version="1.0" encoding="utf-8"?>
<svg viewBox="57.945 122.948 16.128 16.117" fill="none" xmlns="http://www.w3.org/2000/svg">
  <rect x="59.022" y="123.769" width="14.144" height="14.252" rx="7" stroke-width="2" style="fill-rule: evenodd; stroke-opacity: 0; stroke: rgb(255, 138, 250); fill: rgb(255, 138, 250); transform-origin: 66.095px 130.895px;"/>
  <rect x="59.956" y="124.679" width="12.373" height="12.466" rx="7" stroke-width="2" style="fill-rule: evenodd; stroke-opacity: 0; fill: rgb(255, 255, 255); stroke: rgba(255, 138, 250, 0); transform-origin: 66.143px 130.912px;"/>
  <path d="M 63.681 134.161 L 63.681 127.616 L 66.411 127.616 C 66.901 127.616 67.311 127.685 67.641 127.823 C 67.973 127.962 68.223 128.156 68.389 128.405 C 68.557 128.654 68.641 128.943 68.641 129.271 C 68.641 129.52 68.589 129.743 68.485 129.939 C 68.38 130.133 68.237 130.294 68.053 130.422 C 67.87 130.55 67.658 130.639 67.417 130.69 L 67.417 130.754 C 67.682 130.767 67.925 130.838 68.149 130.968 C 68.375 131.098 68.556 131.279 68.693 131.512 C 68.829 131.742 68.897 132.014 68.897 132.33 C 68.897 132.681 68.808 132.996 68.629 133.273 C 68.45 133.547 68.191 133.765 67.852 133.925 C 67.513 134.082 67.102 134.161 66.618 134.161 L 63.681 134.161 Z M 65.263 132.886 L 66.241 132.886 C 66.584 132.886 66.837 132.821 66.999 132.691 C 67.163 132.561 67.245 132.38 67.245 132.148 C 67.245 131.979 67.205 131.834 67.126 131.713 C 67.048 131.589 66.936 131.495 66.791 131.428 C 66.646 131.36 66.472 131.326 66.27 131.326 L 65.263 131.326 L 65.263 132.886 Z M 65.263 130.307 L 66.139 130.307 C 66.311 130.307 66.465 130.278 66.599 130.22 C 66.733 130.163 66.838 130.08 66.912 129.971 C 66.989 129.862 67.027 129.731 67.027 129.578 C 67.027 129.358 66.95 129.186 66.794 129.06 C 66.639 128.934 66.429 128.872 66.164 128.872 L 65.263 128.872 L 65.263 130.307 Z" fill="#56544D" style=""/>
</svg>