<?xml version="1.0" encoding="utf-8"?>
<svg viewBox="36.966 42.973 16.079 16.068" fill="none" xmlns="http://www.w3.org/2000/svg">
  <defs>
    <clipPath id="clip3_266_55">
      <rect x="37" y="43" width="16" height="16" rx="4" fill="white"/>
    </clipPath>
  </defs>
  <g clip-path="url(#clip3_266_55)">
    <rect x="37" y="43" width="16" height="16" rx="4" fill="#FF8AFA"/>
    <path d="M40.1812 54V47.4545H41.5651V52.859H44.3712V54H40.1812ZM45.2493 54V53.0028L47.5792 50.8455C47.7773 50.6538 47.9435 50.4812 48.0778 50.3278C48.2141 50.1744 48.3175 50.0241 48.3878 49.8771C48.4581 49.728 48.4933 49.5671 48.4933 49.3945C48.4933 49.2028 48.4496 49.0376 48.3622 48.8991C48.2749 48.7585 48.1555 48.6509 48.0043 48.5763C47.853 48.4996 47.6815 48.4613 47.4897 48.4613C47.2894 48.4613 47.1147 48.5018 46.9656 48.5827C46.8164 48.6637 46.7013 48.7798 46.6204 48.9311C46.5394 49.0824 46.4989 49.2624 46.4989 49.4712H45.1854C45.1854 49.043 45.2823 48.6712 45.4762 48.3558C45.6701 48.0405 45.9418 47.7965 46.2912 47.6239C46.6406 47.4513 47.0433 47.3651 47.4993 47.3651C47.968 47.3651 48.3761 47.4482 48.7234 47.6143C49.0728 47.7784 49.3445 48.0064 49.5384 48.2983C49.7322 48.5902 49.8292 48.9247 49.8292 49.3018C49.8292 49.549 49.7802 49.793 49.6822 50.0337C49.5863 50.2745 49.4148 50.5419 49.1676 50.8359C48.9205 51.1278 48.5721 51.4783 48.1225 51.8874L47.1669 52.8239V52.8686H49.9155V54H45.2493Z" fill="white"/>
  </g>
</svg>