<?xml version="1.0" encoding="utf-8"?>
<svg viewBox="15.927 122.948 16.128 16.117" fill="none" xmlns="http://www.w3.org/2000/svg">
  <defs>
    <clipPath id="clip4_266_55">
      <rect x="16" y="123" width="16" height="16" rx="4" fill="white"/>
    </clipPath>
  </defs>
  <g clip-path="url(#clip4_266_55)">
    <rect x="16" y="123" width="16" height="16" rx="4" fill="#5F8098"/>
    <path d="M17.7596 134V128.182H18.9897V132.986H21.484V134H17.7596ZM22.2646 134V133.114L24.3356 131.196C24.5117 131.026 24.6594 130.872 24.7788 130.736C24.9 130.599 24.9918 130.466 25.0543 130.335C25.1168 130.203 25.1481 130.06 25.1481 129.906C25.1481 129.736 25.1093 129.589 25.0316 129.466C24.954 129.341 24.8479 129.245 24.7134 129.179C24.579 129.111 24.4265 129.077 24.256 129.077C24.078 129.077 23.9227 129.113 23.7901 129.185C23.6576 129.257 23.5553 129.36 23.4833 129.494C23.4113 129.629 23.3754 129.789 23.3754 129.974H22.2077C22.2077 129.594 22.2939 129.263 22.4663 128.983C22.6386 128.703 22.8801 128.486 23.1907 128.332C23.5013 128.179 23.8593 128.102 24.2646 128.102C24.6812 128.102 25.0439 128.176 25.3526 128.324C25.6632 128.47 25.9047 128.672 26.0771 128.932C26.2494 129.191 26.3356 129.489 26.3356 129.824C26.3356 130.044 26.292 130.26 26.2049 130.474C26.1197 130.688 25.9672 130.926 25.7475 131.188C25.5278 131.447 25.2182 131.759 24.8185 132.122L23.9691 132.955V132.994H26.4123V134H22.2646ZM29.8349 128.182V134H28.6048V129.349H28.5707L27.2383 130.185V129.094L28.6786 128.182H29.8349Z" fill="white"/>
  </g>
</svg>