<?xml version="1.0" encoding="utf-8"?>
<svg viewBox="36.926 122.948 16.128 16.117" fill="none" xmlns="http://www.w3.org/2000/svg">
  <defs>
    <clipPath id="clip5_266_55">
      <rect x="37" y="123" width="16" height="16" rx="4" fill="white"/>
    </clipPath>
  </defs>
  <g clip-path="url(#clip5_266_55)">
    <rect x="37" y="123" width="16" height="16" rx="4" fill="#809CB1"/>
    <path d="M38.1971 134V128.182H39.4272V132.986H41.9215V134H38.1971ZM42.7021 134V133.114L44.7731 131.196C44.9492 131.026 45.0969 130.872 45.2163 130.736C45.3375 130.599 45.4293 130.466 45.4918 130.335C45.5543 130.203 45.5856 130.06 45.5856 129.906C45.5856 129.736 45.5468 129.589 45.4691 129.466C45.3915 129.341 45.2854 129.245 45.1509 129.179C45.0165 129.111 44.864 129.077 44.6935 129.077C44.5155 129.077 44.3602 129.113 44.2276 129.185C44.0951 129.257 43.9928 129.36 43.9208 129.494C43.8488 129.629 43.8129 129.789 43.8129 129.974H42.6452C42.6452 129.594 42.7314 129.263 42.9038 128.983C43.0761 128.703 43.3176 128.486 43.6282 128.332C43.9388 128.179 44.2968 128.102 44.7021 128.102C45.1187 128.102 45.4814 128.176 45.7901 128.324C46.1007 128.47 46.3422 128.672 46.5146 128.932C46.6869 129.191 46.7731 129.489 46.7731 129.824C46.7731 130.044 46.7295 130.26 46.6424 130.474C46.5572 130.688 46.4047 130.926 46.185 131.188C45.9653 131.447 45.6557 131.759 45.256 132.122L44.4066 132.955V132.994H46.8498V134H42.7021ZM47.7411 134V133.114L49.8121 131.196C49.9883 131.026 50.136 130.872 50.2553 130.736C50.3765 130.599 50.4684 130.466 50.5309 130.335C50.5934 130.203 50.6246 130.06 50.6246 129.906C50.6246 129.736 50.5858 129.589 50.5082 129.466C50.4305 129.341 50.3245 129.245 50.19 129.179C50.0555 129.111 49.9031 129.077 49.7326 129.077C49.5546 129.077 49.3993 129.113 49.2667 129.185C49.1341 129.257 49.0318 129.36 48.9599 129.494C48.8879 129.629 48.8519 129.789 48.8519 129.974H47.6843C47.6843 129.594 47.7705 129.263 47.9428 128.983C48.1152 128.703 48.3567 128.486 48.6673 128.332C48.9779 128.179 49.3358 128.102 49.7411 128.102C50.1578 128.102 50.5205 128.176 50.8292 128.324C51.1398 128.47 51.3813 128.672 51.5536 128.932C51.726 129.191 51.8121 129.489 51.8121 129.824C51.8121 130.044 51.7686 130.26 51.6815 130.474C51.5962 130.688 51.4438 130.926 51.2241 131.188C51.0044 131.447 50.6947 131.759 50.2951 132.122L49.4457 132.955V132.994H51.8888V134H47.7411Z" fill="white"/>
  </g>
</svg>