<?xml version="1.0" encoding="utf-8"?>
<svg viewBox="57.971 42.973 16.079 16.068" fill="none" xmlns="http://www.w3.org/2000/svg">
  <defs>
    <clipPath id="clip1_266_55">
      <rect x="58" y="43" width="16" height="16" rx="4" fill="white"/>
    </clipPath>
  </defs>
  <g clip-path="url(#clip1_266_55)" transform="matrix(1, 0, 0, 1, -3.552713678800501e-15, 0)">
    <rect x="58" y="43" width="16" height="16" rx="4" fill="#43D95B"/>
    <path d="M61.045 54V47.4545H62.4288V52.859H65.235V54H61.045ZM68.6251 54.0895C68.2885 54.0874 67.9636 54.0309 67.6503 53.9201C67.3393 53.8093 67.0601 53.6293 66.813 53.38C66.5658 53.1307 66.3698 52.8004 66.2249 52.3892C66.0822 51.978 66.0108 51.473 66.0108 50.8743C66.0129 50.3246 66.0758 49.8335 66.1994 49.4009C66.3251 48.9663 66.504 48.5977 66.7363 48.2951C66.9707 47.9925 67.2508 47.7624 67.5768 47.6048C67.9028 47.445 68.2682 47.3651 68.6731 47.3651C69.1099 47.3651 69.4955 47.4503 69.83 47.6207C70.1646 47.7891 70.433 48.0181 70.6354 48.3079C70.84 48.5977 70.9636 48.9226 71.0062 49.2827H69.6415C69.5882 49.0547 69.4763 48.8757 69.3059 48.7457C69.1354 48.6158 68.9245 48.5508 68.6731 48.5508C68.2469 48.5508 67.9231 48.7362 67.7015 49.1069C67.482 49.4776 67.3702 49.9815 67.3659 50.6186H67.4106C67.5087 50.4247 67.6408 50.2596 67.807 50.1232C67.9753 49.9847 68.166 49.8793 68.379 49.8068C68.5942 49.7322 68.8212 49.695 69.0598 49.695C69.4476 49.695 69.7927 49.7866 70.0953 49.9698C70.3979 50.1509 70.6365 50.4002 70.8112 50.7177C70.9859 51.0352 71.0733 51.3984 71.0733 51.8075C71.0733 52.2507 70.9699 52.6449 70.7633 52.9901C70.5587 53.3352 70.2722 53.6058 69.9035 53.8018C69.5371 53.9957 69.1109 54.0916 68.6251 54.0895ZM68.6187 53.0028C68.8318 53.0028 69.0225 52.9517 69.1908 52.8494C69.3592 52.7472 69.4913 52.6087 69.5871 52.4339C69.683 52.2592 69.731 52.0632 69.731 51.8459C69.731 51.6286 69.683 51.4336 69.5871 51.261C69.4934 51.0884 69.3634 50.951 69.1972 50.8487C69.031 50.7464 68.8414 50.6953 68.6283 50.6953C68.4685 50.6953 68.3204 50.7251 68.1841 50.7848C68.0498 50.8445 67.9316 50.9276 67.8293 51.0341C67.7292 51.1406 67.6503 51.2642 67.5928 51.4048C67.5353 51.5433 67.5065 51.6914 67.5065 51.8491C67.5065 52.06 67.5545 52.2528 67.6503 52.4276C67.7484 52.6023 67.8805 52.7418 68.0467 52.8462C68.215 52.9506 68.4057 53.0028 68.6187 53.0028Z" fill="white"/>
  </g>
</svg>