<svg width="229" height="71" viewBox="0 0 229 71" fill="none" xmlns="http://www.w3.org/2000/svg">
<rect x="0.5" y="0.5" width="228" height="70" rx="5.5" fill="#161F37"/>
<rect x="0.5" y="0.5" width="228" height="70" rx="5.5" stroke="#55648E"/>
<path fill-rule="evenodd" clip-rule="evenodd" d="M18 16.4045C18 15.6288 18.6127 15 19.3686 15H50.1645C50.9203 15 51.5331 15.6288 51.5331 16.4045C51.5331 17.1802 50.9203 17.809 50.1645 17.809H38.0724L38.178 17.9173C39.3549 19.1241 39.3549 21.0819 38.178 22.2887L38.0724 22.397H49.6289C50.3346 22.397 51.0115 22.6846 51.5107 23.1965L60.2003 32.1072C61.0458 32.9743 61.5209 34.1506 61.5209 35.3773C61.5209 37.9303 59.5042 40 57.0164 40H34.0729C33.3171 40 32.7043 39.3712 32.7043 38.5955C32.7043 37.8198 33.3171 37.191 34.0729 37.191H57.0164C57.9925 37.191 58.7837 36.379 58.7837 35.3773C58.7837 34.896 58.5973 34.4344 58.2656 34.0943L49.5979 25.206H19.3686C18.6127 25.206 18 24.5772 18 23.8015C18 23.0258 18.6127 22.397 19.3686 22.397H34.2L36.2433 20.3017C36.3503 20.192 36.3503 20.014 36.2433 19.9043L34.2 17.809H19.3686C18.6127 17.809 18 17.1802 18 16.4045Z" fill="#FFFFFF"/>
<path d="M82.3234 18.3664C83.9229 18.3664 85.2872 18.6517 86.4163 19.2223V23.2514L86.3906 23.2777C85.9116 22.5228 84.9023 22.0225 83.3626 21.7767C82.9093 21.6977 82.3362 21.6582 81.6433 21.6582C80.9505 21.6582 80.2705 21.7942 79.6033 22.0664C78.9361 22.3297 78.3887 22.7072 77.961 23.1987C77.1313 24.1555 76.7164 25.5205 76.7164 27.2937C76.7164 29.3566 77.2425 30.8927 78.2946 31.9022C79.1671 32.7449 80.3218 33.1663 81.7588 33.1663C83.384 33.1663 84.7013 32.8107 85.7106 32.0997C86.0784 31.8452 86.3906 31.5291 86.6472 31.1517L86.6857 31.178V34.8648C85.377 35.9796 83.615 36.537 81.3996 36.537C78.7907 36.537 76.7464 35.6856 75.2666 33.9826C73.8467 32.3587 73.1367 30.208 73.1367 27.5307C73.1367 24.6954 73.9151 22.4614 75.4719 20.8287C77.0458 19.1871 79.3296 18.3664 82.3234 18.3664Z" fill="#FFFFFF"/>
<path d="M88.9567 29.44C88.9567 28.4129 89.1278 27.4605 89.4699 26.5827C89.8121 25.7049 90.2953 24.9368 90.9198 24.2784C92.2541 22.8827 93.9991 22.1849 96.1546 22.1849C97.9765 22.1849 99.4392 22.8037 100.543 24.0414C101.629 25.2353 102.172 26.7363 102.172 28.5446C102.172 29.2381 102.121 29.7121 102.018 29.9666C101.163 30.2124 99.4221 30.3353 96.7961 30.3353H92.2798C92.5022 31.2746 93.0197 32.0075 93.8323 32.5342C94.6449 33.0521 95.7012 33.3111 97.0014 33.3111C98.3614 33.3111 99.529 33.0609 100.504 32.5606C100.761 32.4289 100.953 32.306 101.081 32.1919C101.064 32.5606 101.043 32.938 101.017 33.3243L100.876 35.3783C100.226 35.8348 99.174 36.1508 97.7199 36.3264C97.2922 36.379 96.8816 36.4054 96.4882 36.4054C94.3156 36.4054 92.5193 35.7558 91.0994 34.4566C89.6709 33.1487 88.9567 31.4765 88.9567 29.44ZM98.7592 27.7809C98.4085 25.8936 97.4077 24.95 95.7568 24.95C94.4567 24.95 93.4687 25.5249 92.793 26.6749C92.5877 27.026 92.4295 27.4122 92.3183 27.8336C92.5236 27.8423 92.7759 27.8511 93.0753 27.8599H94.0247C94.3412 27.8687 94.6449 27.8731 94.9357 27.8731H95.667C96.1033 27.8731 96.5309 27.8687 96.9501 27.8599L98.0022 27.8204C98.2844 27.8116 98.5368 27.7985 98.7592 27.7809Z" fill="#FFFFFF"/>
<path d="M108.344 34.5225C108.344 35.2949 108.378 35.8567 108.446 36.2079H105.226V22.4482H108.344V23.6201C109.473 22.6633 110.679 22.1849 111.962 22.1849C113.365 22.1849 114.485 22.6764 115.323 23.6596C116.162 24.634 116.581 25.9199 116.581 27.5176V32.7581C116.581 34.2416 116.602 35.1325 116.645 35.431C116.688 35.7295 116.743 35.9226 116.812 36.0104C116.889 36.0981 116.953 36.1771 117.004 36.2474L116.978 36.3C116.286 36.2386 115.781 36.2079 115.464 36.2079H114.566C114.293 36.2079 113.925 36.221 113.463 36.2474V29.0713C113.463 26.4993 112.702 25.2133 111.179 25.2133C110.05 25.2133 109.105 25.8102 108.344 27.004V34.5225Z" fill="#FFFFFF"/>
<path d="M126.293 33.3111C127.397 33.3111 128.154 33.017 128.564 32.4289H128.667L128.705 35.4837C128.286 35.9138 127.508 36.1991 126.37 36.3395C126.062 36.3834 125.677 36.4054 125.216 36.4054C124.762 36.4054 124.266 36.3176 123.727 36.142C123.197 35.9665 122.744 35.6812 122.367 35.2862C121.589 34.4698 121.2 33.1926 121.2 31.4545V25.4767H119.262C119.254 25.2221 119.249 24.9631 119.249 24.6998V22.6721C119.249 22.5228 119.254 22.4482 119.262 22.4482H121.2V18.6956H124.343V22.4482H127.871V25.4767H124.343V30.8488C124.343 32.227 124.715 33.0126 125.459 33.2058C125.699 33.276 125.977 33.3111 126.293 33.3111Z" fill="#FFFFFF"/>
<path d="M134.351 34.7331C134.351 35.4881 134.368 35.9796 134.402 36.2079H131.207V22.4482H134.351V23.4621C135.078 22.6106 135.839 22.1849 136.635 22.1849C137.439 22.1849 138.072 22.2858 138.534 22.4877L138.303 26.0297L138.251 26.0692C137.952 25.5249 137.332 25.2528 136.391 25.2528C136.032 25.2528 135.664 25.3801 135.287 25.6347C134.92 25.8804 134.607 26.2096 134.351 26.6222V34.7331Z" fill="#FFFFFF"/>
<path d="M148.952 35.3915C147.737 36.0674 146.638 36.4054 145.654 36.4054C144.671 36.4054 143.828 36.3132 143.127 36.1289C142.425 35.9357 141.831 35.6548 141.343 35.2862C140.351 34.54 139.855 33.4603 139.855 32.0471C139.855 30.783 140.462 29.7296 141.677 28.8869C142.994 27.974 144.782 27.5176 147.04 27.5176L147.553 27.5307C147.656 27.5395 147.772 27.5483 147.9 27.5571C148.028 27.5571 148.144 27.5658 148.246 27.5834C148.178 26.1789 147.588 25.3581 146.476 25.1211C146.108 25.0421 145.714 25.0026 145.295 25.0026C144.885 25.0026 144.478 25.0421 144.076 25.1211C143.683 25.1914 143.298 25.2879 142.922 25.4108C142.092 25.6829 141.497 25.9946 141.138 26.3457L141.1 26.3193L140.715 23.4094C142.229 22.593 143.884 22.1849 145.68 22.1849C148.469 22.1849 150.252 23.2163 151.03 25.2791C151.278 25.9375 151.403 26.6792 151.403 27.5044V32.2709C151.403 33.2891 151.753 33.9826 152.455 34.3513L150.132 36.537C149.645 36.2737 149.251 35.8919 148.952 35.3915ZM148.259 29.9535C148.028 29.9096 147.789 29.8876 147.541 29.8876H147.027C145.137 29.8876 143.935 30.3178 143.422 31.178C143.268 31.4326 143.191 31.7003 143.191 31.9812C143.191 32.2621 143.238 32.5123 143.332 32.7317C143.435 32.9424 143.602 33.118 143.833 33.2584C144.277 33.5218 144.936 33.6534 145.808 33.6534C146.689 33.6534 147.511 33.4384 148.272 33.0083C148.263 32.9117 148.259 32.8107 148.259 32.7054V29.9535Z" fill="#FFFFFF"/>
<path d="M158.395 34.7331C158.395 35.4881 158.412 35.9796 158.446 36.2079H155.188V16.5888H158.395V34.7331Z" fill="#FFFFFF"/>
<path d="M176.576 29.4005C176.319 29.418 176.046 29.4268 175.755 29.4268C175.464 29.4268 175.032 29.4048 174.459 29.361V36.2079H171.059V18.6034C172.256 18.4454 173.728 18.3664 175.472 18.3664C177.85 18.3664 179.621 18.8185 180.784 19.7226C181.956 20.618 182.542 22.0049 182.542 23.8834C182.542 25.3406 182.007 26.5871 180.938 27.6229C180.588 27.9565 180.186 28.2461 179.732 28.4919L182.35 34.1538C182.863 35.3213 183.256 36.0147 183.53 36.2342L183.466 36.3C182.636 36.1596 181.332 36.164 179.553 36.3132L176.576 29.4005ZM175.716 21.4738C175.28 21.4738 174.861 21.4958 174.459 21.5397V26.5695C174.878 26.631 175.37 26.6617 175.934 26.6617C176.499 26.6617 176.974 26.6134 177.359 26.5169C177.743 26.4115 178.077 26.2535 178.359 26.0428C178.967 25.5776 179.27 24.8797 179.27 23.9493C179.27 23.0188 178.954 22.3648 178.321 21.9874C177.731 21.645 176.862 21.4738 175.716 21.4738Z" fill="#FFFFFF"/>
<path d="M194.911 35.3915C193.696 36.0674 192.597 36.4054 191.613 36.4054C190.63 36.4054 189.787 36.3132 189.086 36.1289C188.384 35.9357 187.79 35.6548 187.302 35.2862C186.31 34.54 185.814 33.4603 185.814 32.0471C185.814 30.783 186.421 29.7296 187.636 28.8869C188.953 27.974 190.741 27.5176 192.999 27.5176L193.512 27.5307C193.615 27.5395 193.73 27.5483 193.859 27.5571C193.987 27.5571 194.102 27.5658 194.205 27.5834C194.136 26.1789 193.546 25.3581 192.434 25.1211C192.067 25.0421 191.673 25.0026 191.254 25.0026C190.843 25.0026 190.437 25.0421 190.035 25.1211C189.642 25.1914 189.257 25.2879 188.88 25.4108C188.051 25.6829 187.456 25.9946 187.097 26.3457L187.058 26.3193L186.673 23.4094C188.187 22.593 189.843 22.1849 191.639 22.1849C194.427 22.1849 196.211 23.2163 196.989 25.2791C197.237 25.9375 197.361 26.6792 197.361 27.5044V32.2709C197.361 33.2891 197.712 33.9826 198.413 34.3513L196.091 36.537C195.603 36.2737 195.21 35.8919 194.911 35.3915ZM194.218 29.9535C193.987 29.9096 193.747 29.8876 193.499 29.8876H192.986C191.096 29.8876 189.894 30.3178 189.381 31.178C189.227 31.4326 189.15 31.7003 189.15 31.9812C189.15 32.2621 189.197 32.5123 189.291 32.7317C189.394 32.9424 189.56 33.118 189.791 33.2584C190.236 33.5218 190.895 33.6534 191.767 33.6534C192.648 33.6534 193.469 33.4384 194.231 33.0083C194.222 32.9117 194.218 32.8107 194.218 32.7054V29.9535Z" fill="#FFFFFF"/>
<path d="M200.967 18.5244C201.651 17.4271 202.365 16.4616 203.109 15.6276L205.868 17.8529C205.5 18.3181 205.158 18.7746 204.841 19.2223C204.841 19.2223 204.512 19.7007 203.853 20.6575L200.967 18.5244ZM204.341 34.7331C204.341 35.4881 204.358 35.9796 204.392 36.2079H201.133V22.4482H204.341V34.7331Z" fill="#FFFFFF"/>
<path d="M210.949 34.7331C210.949 35.4881 210.966 35.9796 211 36.2079H207.741V16.5888H210.949V34.7331Z" fill="#FFFFFF"/>
<path d="M18.7926 50.4545H19.7386L21.9631 55.8878H22.0398L24.2642 50.4545H25.2102V57H24.4688V52.027H24.4048L22.3594 57H21.6435L19.598 52.027H19.5341V57H18.7926V50.4545ZM28.5018 57.1151C28.1907 57.1151 27.9084 57.0565 27.6548 56.9393C27.4013 56.82 27.1999 56.6484 27.0508 56.4247C26.9016 56.1989 26.8271 55.9261 26.8271 55.6065C26.8271 55.3253 26.8825 55.0973 26.9933 54.9226C27.1041 54.7457 27.2521 54.6072 27.4375 54.5071C27.6229 54.407 27.8274 54.3324 28.0511 54.2834C28.277 54.2322 28.5039 54.1918 28.7319 54.1619C29.0302 54.1236 29.272 54.0948 29.4574 54.0756C29.6449 54.0543 29.7813 54.0192 29.8665 53.9702C29.9538 53.9212 29.9975 53.8359 29.9975 53.7145V53.6889C29.9975 53.3736 29.9112 53.1286 29.7386 52.9538C29.5682 52.7791 29.3093 52.6918 28.962 52.6918C28.6019 52.6918 28.3196 52.7706 28.1151 52.9283C27.9105 53.0859 27.7667 53.2543 27.6836 53.4332L26.9677 53.1776C27.0955 52.8793 27.266 52.647 27.4791 52.4808C27.6943 52.3125 27.9286 52.1953 28.1822 52.1293C28.4379 52.0611 28.6893 52.027 28.9364 52.027C29.0941 52.027 29.2752 52.0462 29.4798 52.0845C29.6864 52.1207 29.8857 52.1964 30.0774 52.3114C30.2713 52.4265 30.4322 52.6001 30.56 52.8324C30.6879 53.0646 30.7518 53.3757 30.7518 53.7656V57H29.9975V56.3352H29.9592C29.908 56.4418 29.8228 56.5558 29.7035 56.6772C29.5842 56.7987 29.4254 56.902 29.2273 56.9872C29.0291 57.0724 28.7873 57.1151 28.5018 57.1151ZM28.6168 56.4375C28.9151 56.4375 29.1666 56.3789 29.3711 56.2617C29.5778 56.1445 29.7333 55.9933 29.8377 55.8079C29.9443 55.6225 29.9975 55.4276 29.9975 55.223V54.5327C29.9656 54.571 29.8952 54.6062 29.7866 54.6381C29.68 54.668 29.5565 54.6946 29.4158 54.718C29.2773 54.7393 29.142 54.7585 29.0099 54.7756C28.88 54.7905 28.7745 54.8033 28.6935 54.8139C28.4975 54.8395 28.3143 54.881 28.1438 54.9386C27.9755 54.994 27.8391 55.0781 27.7347 55.1911C27.6325 55.3018 27.5813 55.4531 27.5813 55.6449C27.5813 55.907 27.6783 56.1051 27.8722 56.2393C28.0682 56.3714 28.3164 56.4375 28.6168 56.4375ZM32.4885 58.8409V52.0909H33.2172V52.8707H33.3066C33.362 52.7855 33.4388 52.6768 33.5368 52.5447C33.6369 52.4105 33.7797 52.2912 33.965 52.1868C34.1525 52.0803 34.4061 52.027 34.7257 52.027C35.139 52.027 35.5034 52.1303 35.8187 52.337C36.1341 52.5437 36.3802 52.8366 36.557 53.2159C36.7338 53.5952 36.8223 54.0426 36.8223 54.5582C36.8223 55.0781 36.7338 55.5288 36.557 55.9102C36.3802 56.2894 36.1351 56.5835 35.8219 56.7923C35.5087 56.9989 35.1476 57.1023 34.7385 57.1023C34.4231 57.1023 34.1706 57.0501 33.981 56.9457C33.7914 56.8391 33.6454 56.7187 33.5432 56.5845C33.4409 56.4482 33.362 56.3352 33.3066 56.2457H33.2427V58.8409H32.4885ZM33.2299 54.5455C33.2299 54.9162 33.2843 55.2433 33.3929 55.5266C33.5016 55.8079 33.6603 56.0284 33.8691 56.1882C34.078 56.3459 34.3336 56.4247 34.6362 56.4247C34.9515 56.4247 35.2147 56.3416 35.4256 56.1754C35.6387 56.0071 35.7985 55.7812 35.905 55.4979C36.0137 55.2124 36.068 54.8949 36.068 54.5455C36.068 54.2003 36.0147 53.8892 35.9082 53.6122C35.8038 53.3331 35.6451 53.1126 35.432 52.9506C35.2211 52.7866 34.9558 52.7045 34.6362 52.7045C34.3294 52.7045 34.0716 52.7823 33.8628 52.9379C33.6539 53.0913 33.4963 53.3065 33.3897 53.5835C33.2832 53.8583 33.2299 54.179 33.2299 54.5455ZM43.2184 57.1023C42.7752 57.1023 42.3864 56.9968 42.0519 56.7859C41.7195 56.5749 41.4595 56.2798 41.272 55.9006C41.0867 55.5213 40.994 55.0781 40.994 54.571C40.994 54.0597 41.0867 53.6133 41.272 53.2319C41.4595 52.8505 41.7195 52.5543 42.0519 52.3434C42.3864 52.1325 42.7752 52.027 43.2184 52.027C43.6616 52.027 44.0494 52.1325 44.3818 52.3434C44.7163 52.5543 44.9762 52.8505 45.1616 53.2319C45.3491 53.6133 45.4428 54.0597 45.4428 54.571C45.4428 55.0781 45.3491 55.5213 45.1616 55.9006C44.9762 56.2798 44.7163 56.5749 44.3818 56.7859C44.0494 56.9968 43.6616 57.1023 43.2184 57.1023ZM43.2184 56.4247C43.5551 56.4247 43.832 56.3384 44.0494 56.1658C44.2667 55.9933 44.4276 55.7663 44.532 55.4851C44.6364 55.2038 44.6886 54.8991 44.6886 54.571C44.6886 54.2429 44.6364 53.9371 44.532 53.6538C44.4276 53.3704 44.2667 53.1413 44.0494 52.9666C43.832 52.7919 43.5551 52.7045 43.2184 52.7045C42.8818 52.7045 42.6048 52.7919 42.3874 52.9666C42.1701 53.1413 42.0092 53.3704 41.9048 53.6538C41.8004 53.9371 41.7482 54.2429 41.7482 54.571C41.7482 54.8991 41.8004 55.2038 41.9048 55.4851C42.0092 55.7663 42.1701 55.9933 42.3874 56.1658C42.6048 56.3384 42.8818 56.4247 43.2184 56.4247ZM49.1403 52.0909V52.7301H46.494V52.0909H49.1403ZM47.2866 57V51.4134C47.2866 51.1321 47.3526 50.8977 47.4847 50.7102C47.6168 50.5227 47.7884 50.3821 47.9993 50.2884C48.2102 50.1946 48.4329 50.1477 48.6673 50.1477C48.8526 50.1477 49.0039 50.1626 49.1211 50.1925C49.2383 50.2223 49.3257 50.25 49.3832 50.2756L49.1659 50.9276C49.1275 50.9148 49.0742 50.8988 49.0061 50.8796C48.94 50.8604 48.8526 50.8509 48.744 50.8509C48.4947 50.8509 48.3146 50.9137 48.2039 51.0394C48.0952 51.1651 48.0409 51.3494 48.0409 51.5923V57H47.2866ZM53.5509 57V50.4545H55.7625C56.276 50.4545 56.6958 50.5472 57.0218 50.7326C57.3499 50.9158 57.5928 51.1641 57.7505 51.4773C57.9081 51.7905 57.987 52.1399 57.987 52.5256C57.987 52.9112 57.9081 53.2617 57.7505 53.5771C57.5949 53.8924 57.3542 54.1438 57.0282 54.3313C56.7022 54.5167 56.2846 54.6094 55.7753 54.6094H54.1901V53.9062H55.7498C56.1013 53.9062 56.3836 53.8455 56.5967 53.7241C56.8098 53.6026 56.9642 53.4386 57.0601 53.2319C57.1581 53.0231 57.2071 52.7876 57.2071 52.5256C57.2071 52.2635 57.1581 52.0291 57.0601 51.8224C56.9642 51.6158 56.8087 51.4538 56.5935 51.3366C56.3783 51.2173 56.0928 51.1577 55.737 51.1577H54.3435V57H53.5509ZM60.9661 57.1151C60.655 57.1151 60.3727 57.0565 60.1192 56.9393C59.8656 56.82 59.6643 56.6484 59.5151 56.4247C59.366 56.1989 59.2914 55.9261 59.2914 55.6065C59.2914 55.3253 59.3468 55.0973 59.4576 54.9226C59.5684 54.7457 59.7165 54.6072 59.9018 54.5071C60.0872 54.407 60.2918 54.3324 60.5155 54.2834C60.7413 54.2322 60.9682 54.1918 61.1962 54.1619C61.4945 54.1236 61.7364 54.0948 61.9217 54.0756C62.1092 54.0543 62.2456 54.0192 62.3308 53.9702C62.4182 53.9212 62.4619 53.8359 62.4619 53.7145V53.6889C62.4619 53.3736 62.3756 53.1286 62.203 52.9538C62.0325 52.7791 61.7736 52.6918 61.4263 52.6918C61.0663 52.6918 60.7839 52.7706 60.5794 52.9283C60.3749 53.0859 60.231 53.2543 60.1479 53.4332L59.432 53.1776C59.5599 52.8793 59.7303 52.647 59.9434 52.4808C60.1586 52.3125 60.393 52.1953 60.6465 52.1293C60.9022 52.0611 61.1536 52.027 61.4008 52.027C61.5584 52.027 61.7396 52.0462 61.9441 52.0845C62.1508 52.1207 62.35 52.1964 62.5418 52.3114C62.7356 52.4265 62.8965 52.6001 63.0244 52.8324C63.1522 53.0646 63.2161 53.3757 63.2161 53.7656V57H62.4619V56.3352H62.4235C62.3724 56.4418 62.2871 56.5558 62.1678 56.6772C62.0485 56.7987 61.8898 56.902 61.6916 56.9872C61.4935 57.0724 61.2516 57.1151 60.9661 57.1151ZM61.0812 56.4375C61.3795 56.4375 61.6309 56.3789 61.8354 56.2617C62.0421 56.1445 62.1977 55.9933 62.3021 55.8079C62.4086 55.6225 62.4619 55.4276 62.4619 55.223V54.5327C62.4299 54.571 62.3596 54.6062 62.2509 54.6381C62.1444 54.668 62.0208 54.6946 61.8802 54.718C61.7417 54.7393 61.6064 54.7585 61.4743 54.7756C61.3443 54.7905 61.2388 54.8033 61.1579 54.8139C60.9619 54.8395 60.7786 54.881 60.6082 54.9386C60.4398 54.994 60.3035 55.0781 60.1991 55.1911C60.0968 55.3018 60.0457 55.4531 60.0457 55.6449C60.0457 55.907 60.1426 56.1051 60.3365 56.2393C60.5325 56.3714 60.7807 56.4375 61.0812 56.4375ZM68.4301 53.1903L67.7525 53.3821C67.7099 53.2692 67.6471 53.1594 67.564 53.0529C67.483 52.9442 67.3722 52.8548 67.2316 52.7844C67.0909 52.7141 66.9109 52.679 66.6914 52.679C66.391 52.679 66.1407 52.7482 65.9404 52.8867C65.7422 53.0231 65.6431 53.1967 65.6431 53.4077C65.6431 53.5952 65.7113 53.7433 65.8477 53.8519C65.9841 53.9606 66.1971 54.0511 66.4869 54.1236L67.2156 54.3026C67.6545 54.4091 67.9816 54.5721 68.1968 54.7915C68.412 55.0089 68.5196 55.2891 68.5196 55.6321C68.5196 55.9134 68.4386 56.1648 68.2767 56.3864C68.1169 56.608 67.8931 56.7827 67.6055 56.9105C67.3179 57.0384 66.9833 57.1023 66.602 57.1023C66.1012 57.1023 65.6868 56.9936 65.3587 56.7763C65.0306 56.5589 64.8228 56.2415 64.7355 55.8239L65.4514 55.6449C65.5196 55.9091 65.6485 56.1072 65.8381 56.2393C66.0299 56.3714 66.2802 56.4375 66.5892 56.4375C66.9407 56.4375 67.2198 56.3629 67.4265 56.2138C67.6353 56.0625 67.7397 55.8814 67.7397 55.6705C67.7397 55.5 67.6801 55.3572 67.5608 55.2422C67.4414 55.125 67.2582 55.0376 67.011 54.9801L66.1929 54.7884C65.7433 54.6818 65.413 54.5167 65.2021 54.293C64.9933 54.0671 64.8889 53.7848 64.8889 53.446C64.8889 53.169 64.9667 52.924 65.1222 52.7109C65.2799 52.4979 65.494 52.3306 65.7646 52.2092C66.0373 52.0877 66.3463 52.027 66.6914 52.027C67.1772 52.027 67.5586 52.1335 67.8356 52.3466C68.1147 52.5597 68.3129 52.8409 68.4301 53.1903ZM73.4922 53.1903L72.8147 53.3821C72.7721 53.2692 72.7092 53.1594 72.6261 53.0529C72.5451 52.9442 72.4343 52.8548 72.2937 52.7844C72.1531 52.7141 71.973 52.679 71.7536 52.679C71.4532 52.679 71.2028 52.7482 71.0025 52.8867C70.8044 53.0231 70.7053 53.1967 70.7053 53.4077C70.7053 53.5952 70.7735 53.7433 70.9098 53.8519C71.0462 53.9606 71.2593 54.0511 71.549 54.1236L72.2777 54.3026C72.7167 54.4091 73.0437 54.5721 73.2589 54.7915C73.4741 55.0089 73.5817 55.2891 73.5817 55.6321C73.5817 55.9134 73.5007 56.1648 73.3388 56.3864C73.179 56.608 72.9553 56.7827 72.6676 56.9105C72.38 57.0384 72.0455 57.1023 71.6641 57.1023C71.1634 57.1023 70.749 56.9936 70.4208 56.7763C70.0927 56.5589 69.885 56.2415 69.7976 55.8239L70.5135 55.6449C70.5817 55.9091 70.7106 56.1072 70.9002 56.2393C71.092 56.3714 71.3424 56.4375 71.6513 56.4375C72.0029 56.4375 72.282 56.3629 72.4887 56.2138C72.6975 56.0625 72.8019 55.8814 72.8019 55.6705C72.8019 55.5 72.7422 55.3572 72.6229 55.2422C72.5036 55.125 72.3203 55.0376 72.0732 54.9801L71.255 54.7884C70.8054 54.6818 70.4752 54.5167 70.2642 54.293C70.0554 54.0671 69.951 53.7848 69.951 53.446C69.951 53.169 70.0288 52.924 70.1843 52.7109C70.342 52.4979 70.5561 52.3306 70.8267 52.2092C71.0995 52.0877 71.4084 52.027 71.7536 52.027C72.2394 52.027 72.6208 52.1335 72.8978 52.3466C73.1769 52.5597 73.375 52.8409 73.4922 53.1903ZM77.1353 57.1023C76.6623 57.1023 76.2543 56.9979 75.9113 56.7891C75.5704 56.5781 75.3072 56.2841 75.1218 55.907C74.9386 55.5277 74.847 55.0866 74.847 54.5838C74.847 54.081 74.9386 53.6378 75.1218 53.2543C75.3072 52.8686 75.565 52.5682 75.8953 52.353C76.2277 52.1357 76.6155 52.027 77.0586 52.027C77.3143 52.027 77.5668 52.0696 77.8161 52.1548C78.0654 52.2401 78.2923 52.3786 78.4968 52.5703C78.7014 52.7599 78.8644 53.0114 78.9858 53.3246C79.1073 53.6378 79.168 54.0234 79.168 54.4815V54.8011H75.3839V54.1491H78.401C78.401 53.8722 78.3456 53.625 78.2348 53.4077C78.1261 53.1903 77.9706 53.0188 77.7681 52.8931C77.5679 52.7674 77.3314 52.7045 77.0586 52.7045C76.7582 52.7045 76.4983 52.7791 76.2788 52.9283C76.0615 53.0753 75.8942 53.267 75.777 53.5036C75.6598 53.7401 75.6012 53.9936 75.6012 54.2642V54.6989C75.6012 55.0696 75.6652 55.3839 75.793 55.6417C75.923 55.8974 76.103 56.0923 76.3331 56.2266C76.5632 56.3587 76.8306 56.4247 77.1353 56.4247C77.3335 56.4247 77.5125 56.397 77.6723 56.3416C77.8342 56.2841 77.9738 56.1989 78.0909 56.0859C78.2081 55.9709 78.2987 55.8281 78.3626 55.6577L79.0913 55.8622C79.0146 56.1094 78.8857 56.3267 78.7046 56.5142C78.5235 56.6996 78.2998 56.8445 78.0334 56.9489C77.7671 57.0511 77.4677 57.1023 77.1353 57.1023ZM81.4296 54.0469V57H80.6754V52.0909H81.4041V52.858H81.468C81.5831 52.6087 81.7578 52.4084 81.9921 52.2571C82.2265 52.1037 82.5291 52.027 82.8998 52.027C83.2322 52.027 83.523 52.0952 83.7723 52.2315C84.0216 52.3658 84.2155 52.5703 84.354 52.8452C84.4925 53.1179 84.5617 53.4631 84.5617 53.8807V57H83.8075V53.9318C83.8075 53.5462 83.7073 53.2457 83.5071 53.0305C83.3068 52.8132 83.0319 52.7045 82.6825 52.7045C82.4417 52.7045 82.2265 52.7567 82.0369 52.8612C81.8494 52.9656 81.7013 53.1179 81.5926 53.3182C81.484 53.5185 81.4296 53.7614 81.4296 54.0469ZM88.2816 58.9432C87.9172 58.9432 87.604 58.8963 87.3419 58.8026C87.0799 58.7109 86.8615 58.5895 86.6867 58.4382C86.5142 58.2891 86.3767 58.1293 86.2745 57.9588L86.8753 57.5369C86.9435 57.6264 87.0298 57.7287 87.1342 57.8438C87.2386 57.9609 87.3813 58.0621 87.5625 58.1474C87.7457 58.2347 87.9854 58.2784 88.2816 58.2784C88.6779 58.2784 89.0049 58.1825 89.2627 57.9908C89.5206 57.799 89.6495 57.4986 89.6495 57.0895V56.0923H89.5855C89.5301 56.1818 89.4513 56.2926 89.349 56.4247C89.2489 56.5547 89.104 56.6708 88.9144 56.7731C88.7269 56.8732 88.4733 56.9233 88.1537 56.9233C87.7574 56.9233 87.4016 56.8295 87.0863 56.642C86.773 56.4545 86.5248 56.1818 86.3416 55.8239C86.1605 55.4659 86.0699 55.0312 86.0699 54.5199C86.0699 54.017 86.1583 53.5792 86.3352 53.2063C86.512 52.8313 86.7581 52.5415 87.0735 52.337C87.3888 52.1303 87.7532 52.027 88.1665 52.027C88.4861 52.027 88.7397 52.0803 88.9272 52.1868C89.1168 52.2912 89.2617 52.4105 89.3618 52.5447C89.4641 52.6768 89.5429 52.7855 89.5983 52.8707H89.675V52.0909H90.4037V57.1406C90.4037 57.5625 90.3078 57.9055 90.1161 58.1697C89.9264 58.4361 89.6708 58.631 89.349 58.7546C89.0294 58.8803 88.6736 58.9432 88.2816 58.9432ZM88.256 56.2457C88.5586 56.2457 88.8142 56.1765 89.023 56.038C89.2318 55.8995 89.3906 55.7003 89.4992 55.4403C89.6079 55.1804 89.6622 54.8693 89.6622 54.5071C89.6622 54.1534 89.609 53.8413 89.5024 53.5707C89.3959 53.3001 89.2382 53.0881 89.0294 52.9347C88.8206 52.7812 88.5628 52.7045 88.256 52.7045C87.9364 52.7045 87.6701 52.7855 87.457 52.9474C87.2461 53.1094 87.0873 53.3267 86.9808 53.5994C86.8764 53.8722 86.8242 54.1747 86.8242 54.5071C86.8242 54.848 86.8774 55.1495 86.984 55.4116C87.0926 55.6715 87.2524 55.8761 87.4634 56.0252C87.6764 56.1722 87.9407 56.2457 88.256 56.2457ZM94.2026 57.1023C93.7296 57.1023 93.3216 56.9979 92.9786 56.7891C92.6377 56.5781 92.3745 56.2841 92.1891 55.907C92.0059 55.5277 91.9143 55.0866 91.9143 54.5838C91.9143 54.081 92.0059 53.6378 92.1891 53.2543C92.3745 52.8686 92.6323 52.5682 92.9626 52.353C93.295 52.1357 93.6828 52.027 94.1259 52.027C94.3816 52.027 94.6341 52.0696 94.8834 52.1548C95.1327 52.2401 95.3596 52.3786 95.5641 52.5703C95.7687 52.7599 95.9317 53.0114 96.0531 53.3246C96.1746 53.6378 96.2353 54.0234 96.2353 54.4815V54.8011H92.4512V54.1491H95.4683C95.4683 53.8722 95.4129 53.625 95.3021 53.4077C95.1934 53.1903 95.0379 53.0188 94.8355 52.8931C94.6352 52.7674 94.3987 52.7045 94.1259 52.7045C93.8255 52.7045 93.5656 52.7791 93.3461 52.9283C93.1288 53.0753 92.9615 53.267 92.8443 53.5036C92.7271 53.7401 92.6686 53.9936 92.6686 54.2642V54.6989C92.6686 55.0696 92.7325 55.3839 92.8603 55.6417C92.9903 55.8974 93.1703 56.0923 93.4004 56.2266C93.6306 56.3587 93.898 56.4247 94.2026 56.4247C94.4008 56.4247 94.5798 56.397 94.7396 56.3416C94.9015 56.2841 95.0411 56.1989 95.1583 56.0859C95.2754 55.9709 95.366 55.8281 95.4299 55.6577L96.1586 55.8622C96.0819 56.1094 95.953 56.3267 95.7719 56.5142C95.5908 56.6996 95.3671 56.8445 95.1007 56.9489C94.8344 57.0511 94.535 57.1023 94.2026 57.1023ZM97.7427 57V52.0909H98.4714V52.8324H98.5225C98.612 52.5895 98.7739 52.3924 99.0083 52.2411C99.2427 52.0898 99.5069 52.0142 99.8009 52.0142C99.8563 52.0142 99.9256 52.0153 100.009 52.0174C100.092 52.0195 100.155 52.0227 100.197 52.027V52.794C100.172 52.7876 100.113 52.7781 100.021 52.7653C99.932 52.7504 99.8371 52.7429 99.737 52.7429C99.4984 52.7429 99.2853 52.793 99.0978 52.8931C98.9124 52.9911 98.7654 53.1275 98.6567 53.3022C98.5502 53.4748 98.4969 53.6719 98.4969 53.8935V57H97.7427ZM104.445 57V50.4545H106.656C107.168 50.4545 107.588 50.5419 107.916 50.7166C108.244 50.8892 108.487 51.1268 108.644 51.4293C108.802 51.7319 108.881 52.076 108.881 52.4616C108.881 52.8473 108.802 53.1893 108.644 53.4876C108.487 53.7859 108.245 54.0202 107.919 54.1907C107.593 54.359 107.176 54.4432 106.669 54.4432H104.88V53.7273H106.644C106.993 53.7273 107.274 53.6761 107.487 53.5739C107.703 53.4716 107.858 53.3267 107.954 53.1392C108.052 52.9496 108.101 52.7237 108.101 52.4616C108.101 52.1996 108.052 51.9705 107.954 51.7745C107.856 51.5785 107.699 51.4272 107.484 51.3207C107.269 51.212 106.985 51.1577 106.631 51.1577H105.237V57H104.445ZM107.526 54.0597L109.137 57H108.216L106.631 54.0597H107.526ZM111.904 57.1151C111.593 57.1151 111.311 57.0565 111.057 56.9393C110.804 56.82 110.602 56.6484 110.453 56.4247C110.304 56.1989 110.229 55.9261 110.229 55.6065C110.229 55.3253 110.285 55.0973 110.395 54.9226C110.506 54.7457 110.654 54.6072 110.84 54.5071C111.025 54.407 111.23 54.3324 111.453 54.2834C111.679 54.2322 111.906 54.1918 112.134 54.1619C112.432 54.1236 112.674 54.0948 112.86 54.0756C113.047 54.0543 113.183 54.0192 113.269 53.9702C113.356 53.9212 113.4 53.8359 113.4 53.7145V53.6889C113.4 53.3736 113.313 53.1286 113.141 52.9538C112.97 52.7791 112.712 52.6918 112.364 52.6918C112.004 52.6918 111.722 52.7706 111.517 52.9283C111.313 53.0859 111.169 53.2543 111.086 53.4332L110.37 53.1776C110.498 52.8793 110.668 52.647 110.881 52.4808C111.096 52.3125 111.331 52.1953 111.584 52.1293C111.84 52.0611 112.092 52.027 112.339 52.027C112.496 52.027 112.677 52.0462 112.882 52.0845C113.089 52.1207 113.288 52.1964 113.48 52.3114C113.674 52.4265 113.834 52.6001 113.962 52.8324C114.09 53.0646 114.154 53.3757 114.154 53.7656V57H113.4V56.3352H113.361C113.31 56.4418 113.225 56.5558 113.106 56.6772C112.986 56.7987 112.828 56.902 112.63 56.9872C112.431 57.0724 112.19 57.1151 111.904 57.1151ZM112.019 56.4375C112.317 56.4375 112.569 56.3789 112.773 56.2617C112.98 56.1445 113.136 55.9933 113.24 55.8079C113.346 55.6225 113.4 55.4276 113.4 55.223V54.5327C113.368 54.571 113.297 54.6062 113.189 54.6381C113.082 54.668 112.959 54.6946 112.818 54.718C112.68 54.7393 112.544 54.7585 112.412 54.7756C112.282 54.7905 112.177 54.8033 112.096 54.8139C111.9 54.8395 111.717 54.881 111.546 54.9386C111.378 54.994 111.241 55.0781 111.137 55.1911C111.035 55.3018 110.984 55.4531 110.984 55.6449C110.984 55.907 111.081 56.1051 111.274 56.2393C111.47 56.3714 111.719 56.4375 112.019 56.4375ZM115.891 57V52.0909H116.645V57H115.891ZM116.274 51.2727C116.127 51.2727 116 51.2227 115.894 51.1225C115.789 51.0224 115.737 50.902 115.737 50.7614C115.737 50.6207 115.789 50.5004 115.894 50.4002C116 50.3001 116.127 50.25 116.274 50.25C116.421 50.25 116.547 50.3001 116.651 50.4002C116.758 50.5004 116.811 50.6207 116.811 50.7614C116.811 50.902 116.758 51.0224 116.651 51.1225C116.547 51.2227 116.421 51.2727 116.274 51.2727ZM119.141 50.4545V57H118.386V50.4545H119.141ZM127.455 52.0909C127.417 51.767 127.261 51.5156 126.989 51.3366C126.716 51.1577 126.381 51.0682 125.985 51.0682C125.695 51.0682 125.442 51.1151 125.224 51.2088C125.009 51.3026 124.841 51.4315 124.719 51.5955C124.6 51.7596 124.54 51.946 124.54 52.1548C124.54 52.3295 124.582 52.4798 124.665 52.6055C124.75 52.729 124.859 52.8324 124.991 52.9155C125.123 52.9964 125.262 53.0636 125.407 53.1168C125.551 53.168 125.685 53.2095 125.806 53.2415L126.471 53.4205C126.641 53.4652 126.831 53.527 127.04 53.6058C127.251 53.6847 127.452 53.7923 127.644 53.9286C127.838 54.0629 127.998 54.2354 128.123 54.4464C128.249 54.6573 128.312 54.9162 128.312 55.223C128.312 55.5767 128.219 55.8963 128.034 56.1818C127.85 56.4673 127.582 56.6942 127.228 56.8626C126.877 57.0309 126.45 57.1151 125.947 57.1151C125.478 57.1151 125.072 57.0394 124.729 56.8881C124.388 56.7369 124.12 56.5259 123.924 56.2553C123.73 55.9847 123.62 55.6705 123.594 55.3125H124.413C124.434 55.5597 124.517 55.7642 124.662 55.9261C124.809 56.0859 124.994 56.2053 125.218 56.2841C125.444 56.3608 125.687 56.3991 125.947 56.3991C126.249 56.3991 126.521 56.3501 126.762 56.2521C127.002 56.152 127.193 56.0135 127.334 55.8366C127.474 55.6577 127.545 55.4489 127.545 55.2102C127.545 54.9929 127.484 54.8161 127.363 54.6797C127.241 54.5433 127.081 54.4325 126.883 54.3473C126.685 54.2621 126.471 54.1875 126.241 54.1236L125.435 53.8935C124.924 53.7464 124.519 53.5366 124.221 53.2638C123.923 52.9911 123.773 52.6342 123.773 52.1932C123.773 51.8267 123.873 51.5071 124.071 51.2344C124.271 50.9595 124.539 50.7464 124.876 50.5952C125.215 50.4418 125.593 50.3651 126.011 50.3651C126.433 50.3651 126.808 50.4407 127.136 50.592C127.464 50.7411 127.724 50.9457 127.915 51.2056C128.109 51.4656 128.212 51.7607 128.222 52.0909H127.455ZM131.931 57.1023C131.458 57.1023 131.05 56.9979 130.707 56.7891C130.366 56.5781 130.103 56.2841 129.917 55.907C129.734 55.5277 129.643 55.0866 129.643 54.5838C129.643 54.081 129.734 53.6378 129.917 53.2543C130.103 52.8686 130.361 52.5682 130.691 52.353C131.023 52.1357 131.411 52.027 131.854 52.027C132.11 52.027 132.362 52.0696 132.612 52.1548C132.861 52.2401 133.088 52.3786 133.292 52.5703C133.497 52.7599 133.66 53.0114 133.781 53.3246C133.903 53.6378 133.964 54.0234 133.964 54.4815V54.8011H130.18V54.1491H133.197C133.197 53.8722 133.141 53.625 133.03 53.4077C132.922 53.1903 132.766 53.0188 132.564 52.8931C132.363 52.7674 132.127 52.7045 131.854 52.7045C131.554 52.7045 131.294 52.7791 131.074 52.9283C130.857 53.0753 130.69 53.267 130.573 53.5036C130.455 53.7401 130.397 53.9936 130.397 54.2642V54.6989C130.397 55.0696 130.461 55.3839 130.589 55.6417C130.719 55.8974 130.899 56.0923 131.129 56.2266C131.359 56.3587 131.626 56.4247 131.931 56.4247C132.129 56.4247 132.308 56.397 132.468 56.3416C132.63 56.2841 132.769 56.1989 132.887 56.0859C133.004 55.9709 133.094 55.8281 133.158 55.6577L133.887 55.8622C133.81 56.1094 133.681 56.3267 133.5 56.5142C133.319 56.6996 133.095 56.8445 132.829 56.9489C132.563 57.0511 132.263 57.1023 131.931 57.1023ZM135.471 57V52.0909H136.2V52.8324H136.251C136.34 52.5895 136.502 52.3924 136.737 52.2411C136.971 52.0898 137.235 52.0142 137.529 52.0142C137.585 52.0142 137.654 52.0153 137.737 52.0174C137.82 52.0195 137.883 52.0227 137.926 52.027V52.794C137.9 52.7876 137.841 52.7781 137.75 52.7653C137.66 52.7504 137.565 52.7429 137.465 52.7429C137.227 52.7429 137.014 52.793 136.826 52.8931C136.641 52.9911 136.494 53.1275 136.385 53.3022C136.278 53.4748 136.225 53.6719 136.225 53.8935V57H135.471ZM143.343 52.0909L141.528 57H140.761L138.945 52.0909H139.764L141.119 56.0028H141.17L142.525 52.0909H143.343ZM144.699 57V52.0909H145.453V57H144.699ZM145.082 51.2727C144.935 51.2727 144.809 51.2227 144.702 51.1225C144.598 51.0224 144.545 50.902 144.545 50.7614C144.545 50.6207 144.598 50.5004 144.702 50.4002C144.809 50.3001 144.935 50.25 145.082 50.25C145.229 50.25 145.355 50.3001 145.459 50.4002C145.566 50.5004 145.619 50.6207 145.619 50.7614C145.619 50.902 145.566 51.0224 145.459 51.1225C145.355 51.2227 145.229 51.2727 145.082 51.2727ZM149.189 57.1023C148.729 57.1023 148.332 56.9936 148 56.7763C147.668 56.5589 147.412 56.2596 147.233 55.8782C147.054 55.4968 146.964 55.0611 146.964 54.571C146.964 54.0724 147.056 53.6325 147.239 53.2511C147.425 52.8675 147.682 52.5682 148.013 52.353C148.345 52.1357 148.733 52.027 149.176 52.027C149.521 52.027 149.832 52.0909 150.109 52.2188C150.386 52.3466 150.613 52.5256 150.79 52.7557C150.967 52.9858 151.077 53.2543 151.119 53.5611H150.365C150.307 53.3374 150.18 53.1392 149.981 52.9666C149.785 52.7919 149.521 52.7045 149.189 52.7045C148.895 52.7045 148.637 52.7812 148.415 52.9347C148.196 53.0859 148.024 53.3001 147.901 53.5771C147.779 53.8519 147.719 54.1747 147.719 54.5455C147.719 54.9247 147.778 55.255 147.898 55.5362C148.019 55.8175 148.19 56.0359 148.409 56.1914C148.631 56.3469 148.891 56.4247 149.189 56.4247C149.385 56.4247 149.563 56.3906 149.723 56.3224C149.882 56.2543 150.018 56.1562 150.128 56.0284C150.239 55.9006 150.318 55.7472 150.365 55.5682H151.119C151.077 55.858 150.971 56.119 150.803 56.3512C150.637 56.5813 150.416 56.7646 150.141 56.9009C149.869 57.0352 149.551 57.1023 149.189 57.1023ZM154.64 57.1023C154.167 57.1023 153.759 56.9979 153.416 56.7891C153.075 56.5781 152.812 56.2841 152.627 55.907C152.443 55.5277 152.352 55.0866 152.352 54.5838C152.352 54.081 152.443 53.6378 152.627 53.2543C152.812 52.8686 153.07 52.5682 153.4 52.353C153.732 52.1357 154.12 52.027 154.563 52.027C154.819 52.027 155.072 52.0696 155.321 52.1548C155.57 52.2401 155.797 52.3786 156.002 52.5703C156.206 52.7599 156.369 53.0114 156.491 53.3246C156.612 53.6378 156.673 54.0234 156.673 54.4815V54.8011H152.889V54.1491H155.906C155.906 53.8722 155.85 53.625 155.74 53.4077C155.631 53.1903 155.475 53.0188 155.273 52.8931C155.073 52.7674 154.836 52.7045 154.563 52.7045C154.263 52.7045 154.003 52.7791 153.784 52.9283C153.566 53.0753 153.399 53.267 153.282 53.5036C153.165 53.7401 153.106 53.9936 153.106 54.2642V54.6989C153.106 55.0696 153.17 55.3839 153.298 55.6417C153.428 55.8974 153.608 56.0923 153.838 56.2266C154.068 56.3587 154.335 56.4247 154.64 56.4247C154.838 56.4247 155.017 56.397 155.177 56.3416C155.339 56.2841 155.479 56.1989 155.596 56.0859C155.713 55.9709 155.803 55.8281 155.867 55.6577L156.596 55.8622C156.519 56.1094 156.39 56.3267 156.209 56.5142C156.028 56.6996 155.805 56.8445 155.538 56.9489C155.272 57.0511 154.972 57.1023 154.64 57.1023ZM161.657 53.1903L160.98 53.3821C160.937 53.2692 160.874 53.1594 160.791 53.0529C160.71 52.9442 160.6 52.8548 160.459 52.7844C160.318 52.7141 160.138 52.679 159.919 52.679C159.618 52.679 159.368 52.7482 159.168 52.8867C158.97 53.0231 158.87 53.1967 158.87 53.4077C158.87 53.5952 158.939 53.7433 159.075 53.8519C159.211 53.9606 159.424 54.0511 159.714 54.1236L160.443 54.3026C160.882 54.4091 161.209 54.5721 161.424 54.7915C161.639 55.0089 161.747 55.2891 161.747 55.6321C161.747 55.9134 161.666 56.1648 161.504 56.3864C161.344 56.608 161.12 56.7827 160.833 56.9105C160.545 57.0384 160.211 57.1023 159.829 57.1023C159.329 57.1023 158.914 56.9936 158.586 56.7763C158.258 56.5589 158.05 56.2415 157.963 55.8239L158.679 55.6449C158.747 55.9091 158.876 56.1072 159.065 56.2393C159.257 56.3714 159.508 56.4375 159.817 56.4375C160.168 56.4375 160.447 56.3629 160.654 56.2138C160.863 56.0625 160.967 55.8814 160.967 55.6705C160.967 55.5 160.907 55.3572 160.788 55.2422C160.669 55.125 160.486 55.0376 160.238 54.9801L159.42 54.7884C158.971 54.6818 158.64 54.5167 158.429 54.293C158.221 54.0671 158.116 53.7848 158.116 53.446C158.116 53.169 158.194 52.924 158.35 52.7109C158.507 52.4979 158.721 52.3306 158.992 52.2092C159.265 52.0877 159.574 52.027 159.919 52.027C160.405 52.027 160.786 52.1335 161.063 52.3466C161.342 52.5597 161.54 52.8409 161.657 53.1903Z" fill="#FFFFFF"/>
</svg>
