<svg width="171" height="153" viewBox="0 0 171 153" fill="none" xmlns="http://www.w3.org/2000/svg">
<rect x="0.5" y="0.5" width="170" height="152" rx="5.5" fill="white"/>
<rect x="0.5" y="0.5" width="170" height="152" rx="5.5" stroke="#E0DDD0"/>
<path d="M16.9588 38V29.2727H18.2756V36.8665H22.2301V38H16.9588ZM26.3871 38.1321C25.7734 38.1321 25.2379 37.9915 24.7805 37.7102C24.3232 37.429 23.968 37.0355 23.7152 36.5298C23.4624 36.0241 23.3359 35.4332 23.3359 34.7571C23.3359 34.0781 23.4624 33.4844 23.7152 32.9759C23.968 32.4673 24.3232 32.0724 24.7805 31.7912C25.2379 31.5099 25.7734 31.3693 26.3871 31.3693C27.0007 31.3693 27.5362 31.5099 27.9936 31.7912C28.451 32.0724 28.8061 32.4673 29.0589 32.9759C29.3118 33.4844 29.4382 34.0781 29.4382 34.7571C29.4382 35.4332 29.3118 36.0241 29.0589 36.5298C28.8061 37.0355 28.451 37.429 27.9936 37.7102C27.5362 37.9915 27.0007 38.1321 26.3871 38.1321ZM26.3913 37.0625C26.7891 37.0625 27.1186 36.9574 27.38 36.7472C27.6413 36.5369 27.8345 36.2571 27.9595 35.9077C28.0874 35.5582 28.1513 35.1733 28.1513 34.7528C28.1513 34.3352 28.0874 33.9517 27.9595 33.6023C27.8345 33.25 27.6413 32.9673 27.38 32.7543C27.1186 32.5412 26.7891 32.4347 26.3913 32.4347C25.9908 32.4347 25.6584 32.5412 25.3942 32.7543C25.1328 32.9673 24.9382 33.25 24.8104 33.6023C24.6854 33.9517 24.6229 34.3352 24.6229 34.7528C24.6229 35.1733 24.6854 35.5582 24.8104 35.9077C24.9382 36.2571 25.1328 36.5369 25.3942 36.7472C25.6584 36.9574 25.9908 37.0625 26.3913 37.0625ZM33.6175 38.1321C32.984 38.1321 32.4386 37.9886 31.9812 37.7017C31.5266 37.4119 31.1772 37.0128 30.9329 36.5043C30.6886 35.9957 30.5664 35.4134 30.5664 34.7571C30.5664 34.0923 30.6914 33.5057 30.9414 32.9972C31.1914 32.4858 31.5437 32.0866 31.9982 31.7997C32.4528 31.5128 32.9883 31.3693 33.6048 31.3693C34.1019 31.3693 34.5451 31.4616 34.9343 31.6463C35.3235 31.8281 35.6374 32.0838 35.8761 32.4134C36.1175 32.7429 36.261 33.1278 36.3065 33.5682H35.0664C34.9982 33.2614 34.842 32.9972 34.5977 32.7756C34.3562 32.554 34.0323 32.4432 33.6261 32.4432C33.271 32.4432 32.9599 32.5369 32.6928 32.7244C32.4286 32.9091 32.2227 33.1733 32.0749 33.517C31.9272 33.858 31.8533 34.2614 31.8533 34.7273C31.8533 35.2045 31.9258 35.6165 32.0707 35.9631C32.2156 36.3097 32.4201 36.5781 32.6843 36.7685C32.9513 36.9588 33.2653 37.054 33.6261 37.054C33.8675 37.054 34.0863 37.0099 34.2823 36.9219C34.4812 36.831 34.6474 36.7017 34.7809 36.5341C34.9173 36.3665 35.0124 36.1648 35.0664 35.929H36.3065C36.261 36.3523 36.1232 36.7301 35.8931 37.0625C35.663 37.3949 35.3548 37.6562 34.9684 37.8466C34.5849 38.0369 34.1346 38.1321 33.6175 38.1321ZM39.5739 38.1449C39.1591 38.1449 38.7841 38.0682 38.4489 37.9148C38.1136 37.7585 37.848 37.5327 37.652 37.2372C37.4588 36.9418 37.3622 36.5795 37.3622 36.1506C37.3622 35.7812 37.4332 35.4773 37.5753 35.2386C37.7173 35 37.9091 34.8111 38.1506 34.6719C38.392 34.5327 38.6619 34.4276 38.9602 34.3565C39.2585 34.2855 39.5625 34.2315 39.8722 34.1946C40.2642 34.1491 40.5824 34.1122 40.8267 34.0838C41.071 34.0526 41.2486 34.0028 41.3594 33.9347C41.4702 33.8665 41.5256 33.7557 41.5256 33.6023V33.5724C41.5256 33.2003 41.4205 32.9119 41.2102 32.7074C41.0028 32.5028 40.6932 32.4006 40.2812 32.4006C39.8523 32.4006 39.5142 32.4957 39.267 32.6861C39.0227 32.8736 38.8537 33.0824 38.7599 33.3125L37.5625 33.0398C37.7045 32.642 37.9119 32.321 38.1847 32.0767C38.4602 31.8295 38.777 31.6506 39.1349 31.5398C39.4929 31.4261 39.8693 31.3693 40.2642 31.3693C40.5256 31.3693 40.8026 31.4006 41.0952 31.4631C41.3906 31.5227 41.6662 31.6335 41.9219 31.7955C42.1804 31.9574 42.392 32.1889 42.5568 32.4901C42.7216 32.7884 42.804 33.1761 42.804 33.6534V38H41.5597V37.1051H41.5085C41.4261 37.2699 41.3026 37.4318 41.1378 37.5909C40.973 37.75 40.7614 37.8821 40.5028 37.9872C40.2443 38.0923 39.9347 38.1449 39.5739 38.1449ZM39.8509 37.1222C40.2031 37.1222 40.5043 37.0526 40.7543 36.9134C41.0071 36.7741 41.1989 36.5923 41.3295 36.3679C41.4631 36.1406 41.5298 35.8977 41.5298 35.6392V34.7955C41.4844 34.8409 41.3963 34.8835 41.2656 34.9233C41.1378 34.9602 40.9915 34.9929 40.8267 35.0213C40.6619 35.0469 40.5014 35.071 40.3452 35.0938C40.1889 35.1136 40.0582 35.1307 39.9531 35.1449C39.706 35.1761 39.4801 35.2287 39.2756 35.3026C39.0739 35.3764 38.9119 35.483 38.7898 35.6222C38.6705 35.7585 38.6108 35.9403 38.6108 36.1676C38.6108 36.483 38.7273 36.7216 38.9602 36.8835C39.1932 37.0426 39.4901 37.1222 39.8509 37.1222ZM45.7752 29.2727V38H44.5011V29.2727H45.7752ZM50.7674 38V29.2727H52.0842V36.8665H56.0387V38H50.7674ZM57.4386 38V31.4545H58.7127V38H57.4386ZM58.082 30.4446C57.8604 30.4446 57.6701 30.3707 57.511 30.223C57.3548 30.0724 57.2766 29.8935 57.2766 29.6861C57.2766 29.4759 57.3548 29.2969 57.511 29.1491C57.6701 28.9986 57.8604 28.9233 58.082 28.9233C58.3036 28.9233 58.4925 28.9986 58.6488 29.1491C58.8079 29.2969 58.8874 29.4759 58.8874 29.6861C58.8874 29.8935 58.8079 30.0724 58.6488 30.223C58.4925 30.3707 58.3036 30.4446 58.082 30.4446ZM61.701 34.1136V38H60.4268V31.4545H61.6499V32.5199H61.7308C61.8814 32.1733 62.1172 31.8949 62.4382 31.6847C62.7621 31.4744 63.1697 31.3693 63.6612 31.3693C64.1072 31.3693 64.4979 31.4631 64.8331 31.6506C65.1683 31.8352 65.4283 32.1108 65.6129 32.4773C65.7976 32.8437 65.8899 33.2969 65.8899 33.8366V38H64.6158V33.9901C64.6158 33.5156 64.4922 33.1449 64.245 32.8778C63.9979 32.608 63.6584 32.473 63.2266 32.473C62.9311 32.473 62.6683 32.5369 62.4382 32.6648C62.2109 32.7926 62.0305 32.9801 61.897 33.2273C61.7663 33.4716 61.701 33.767 61.701 34.1136ZM70.4197 38.1321C69.7749 38.1321 69.2195 37.9943 68.7536 37.7188C68.2905 37.4403 67.9325 37.0497 67.6797 36.5469C67.4297 36.0412 67.3047 35.4489 67.3047 34.7699C67.3047 34.0994 67.4297 33.5085 67.6797 32.9972C67.9325 32.4858 68.2848 32.0866 68.7365 31.7997C69.1911 31.5128 69.7223 31.3693 70.3303 31.3693C70.6996 31.3693 71.0575 31.4304 71.4041 31.5526C71.7507 31.6747 72.0618 31.8665 72.3374 32.1278C72.6129 32.3892 72.8303 32.7287 72.9893 33.1463C73.1484 33.5611 73.228 34.0653 73.228 34.6591V35.1108H68.0249V34.1562H71.9794C71.9794 33.821 71.9112 33.5241 71.7749 33.2656C71.6385 33.0043 71.4467 32.7983 71.1996 32.6477C70.9553 32.4972 70.6683 32.4219 70.3388 32.4219C69.9808 32.4219 69.6683 32.5099 69.4013 32.6861C69.1371 32.8594 68.9325 33.0866 68.7876 33.3679C68.6456 33.6463 68.5746 33.9489 68.5746 34.2756V35.0213C68.5746 35.4588 68.6513 35.831 68.8047 36.1378C68.9609 36.4446 69.1783 36.679 69.4567 36.8409C69.7351 37 70.0604 37.0795 70.4325 37.0795C70.674 37.0795 70.8942 37.0455 71.093 36.9773C71.2919 36.9062 71.4638 36.8011 71.6087 36.6619C71.7536 36.5227 71.8643 36.3509 71.9411 36.1463L73.147 36.3636C73.0504 36.7187 72.8771 37.0298 72.6271 37.2969C72.38 37.5611 72.0689 37.767 71.6939 37.9148C71.3217 38.0597 70.897 38.1321 70.4197 38.1321ZM79.5465 33.0526L78.3917 33.2571C78.3434 33.1094 78.2667 32.9687 78.1616 32.8352C78.0593 32.7017 77.9201 32.5923 77.744 32.5071C77.5678 32.4219 77.3477 32.3793 77.0835 32.3793C76.7227 32.3793 76.4215 32.4602 76.18 32.6222C75.9386 32.7812 75.8178 32.9872 75.8178 33.2401C75.8178 33.4588 75.8988 33.6349 76.0607 33.7685C76.2227 33.902 76.484 34.0114 76.8448 34.0966L77.8846 34.3352C78.4869 34.4744 78.9357 34.6889 79.2312 34.9787C79.5266 35.2685 79.6744 35.6449 79.6744 36.108C79.6744 36.5 79.5607 36.8494 79.3335 37.1562C79.109 37.4602 78.7951 37.6989 78.3917 37.8722C77.9911 38.0455 77.5266 38.1321 76.9982 38.1321C76.2653 38.1321 75.6673 37.9759 75.2042 37.6634C74.7411 37.348 74.457 36.9006 74.3519 36.321L75.5835 36.1335C75.6602 36.4545 75.8178 36.6974 76.0565 36.8622C76.2951 37.0241 76.6062 37.1051 76.9897 37.1051C77.4073 37.1051 77.7411 37.0185 77.9911 36.8452C78.2411 36.669 78.3661 36.4545 78.3661 36.2017C78.3661 35.9972 78.2894 35.8253 78.136 35.6861C77.9854 35.5469 77.7539 35.4418 77.4414 35.3707L76.3335 35.1278C75.7227 34.9886 75.271 34.767 74.9783 34.4631C74.6886 34.1591 74.5437 33.7741 74.5437 33.3082C74.5437 32.9219 74.6516 32.5838 74.8675 32.294C75.0835 32.0043 75.3817 31.7784 75.7624 31.6165C76.1431 31.4517 76.5792 31.3693 77.0707 31.3693C77.7781 31.3693 78.3349 31.5227 78.7411 31.8295C79.1474 32.1335 79.4158 32.5412 79.5465 33.0526Z" fill="#56544D"/>
<path d="M14.9588 118V109.273H16.2756V116.866H20.2301V118H14.9588ZM24.3871 118.132C23.7734 118.132 23.2379 117.991 22.7805 117.71C22.3232 117.429 21.968 117.036 21.7152 116.53C21.4624 116.024 21.3359 115.433 21.3359 114.757C21.3359 114.078 21.4624 113.484 21.7152 112.976C21.968 112.467 22.3232 112.072 22.7805 111.791C23.2379 111.51 23.7734 111.369 24.3871 111.369C25.0007 111.369 25.5362 111.51 25.9936 111.791C26.451 112.072 26.8061 112.467 27.0589 112.976C27.3118 113.484 27.4382 114.078 27.4382 114.757C27.4382 115.433 27.3118 116.024 27.0589 116.53C26.8061 117.036 26.451 117.429 25.9936 117.71C25.5362 117.991 25.0007 118.132 24.3871 118.132ZM24.3913 117.062C24.7891 117.062 25.1186 116.957 25.38 116.747C25.6413 116.537 25.8345 116.257 25.9595 115.908C26.0874 115.558 26.1513 115.173 26.1513 114.753C26.1513 114.335 26.0874 113.952 25.9595 113.602C25.8345 113.25 25.6413 112.967 25.38 112.754C25.1186 112.541 24.7891 112.435 24.3913 112.435C23.9908 112.435 23.6584 112.541 23.3942 112.754C23.1328 112.967 22.9382 113.25 22.8104 113.602C22.6854 113.952 22.6229 114.335 22.6229 114.753C22.6229 115.173 22.6854 115.558 22.8104 115.908C22.9382 116.257 23.1328 116.537 23.3942 116.747C23.6584 116.957 23.9908 117.062 24.3913 117.062ZM31.6175 118.132C30.984 118.132 30.4386 117.989 29.9812 117.702C29.5266 117.412 29.1772 117.013 28.9329 116.504C28.6886 115.996 28.5664 115.413 28.5664 114.757C28.5664 114.092 28.6914 113.506 28.9414 112.997C29.1914 112.486 29.5437 112.087 29.9982 111.8C30.4528 111.513 30.9883 111.369 31.6048 111.369C32.1019 111.369 32.5451 111.462 32.9343 111.646C33.3235 111.828 33.6374 112.084 33.8761 112.413C34.1175 112.743 34.261 113.128 34.3065 113.568H33.0664C32.9982 113.261 32.842 112.997 32.5977 112.776C32.3562 112.554 32.0323 112.443 31.6261 112.443C31.271 112.443 30.9599 112.537 30.6928 112.724C30.4286 112.909 30.2227 113.173 30.0749 113.517C29.9272 113.858 29.8533 114.261 29.8533 114.727C29.8533 115.205 29.9258 115.616 30.0707 115.963C30.2156 116.31 30.4201 116.578 30.6843 116.768C30.9513 116.959 31.2653 117.054 31.6261 117.054C31.8675 117.054 32.0863 117.01 32.2823 116.922C32.4812 116.831 32.6474 116.702 32.7809 116.534C32.9173 116.366 33.0124 116.165 33.0664 115.929H34.3065C34.261 116.352 34.1232 116.73 33.8931 117.062C33.663 117.395 33.3548 117.656 32.9684 117.847C32.5849 118.037 32.1346 118.132 31.6175 118.132ZM37.5739 118.145C37.1591 118.145 36.7841 118.068 36.4489 117.915C36.1136 117.759 35.848 117.533 35.652 117.237C35.4588 116.942 35.3622 116.58 35.3622 116.151C35.3622 115.781 35.4332 115.477 35.5753 115.239C35.7173 115 35.9091 114.811 36.1506 114.672C36.392 114.533 36.6619 114.428 36.9602 114.357C37.2585 114.286 37.5625 114.232 37.8722 114.195C38.2642 114.149 38.5824 114.112 38.8267 114.084C39.071 114.053 39.2486 114.003 39.3594 113.935C39.4702 113.866 39.5256 113.756 39.5256 113.602V113.572C39.5256 113.2 39.4205 112.912 39.2102 112.707C39.0028 112.503 38.6932 112.401 38.2812 112.401C37.8523 112.401 37.5142 112.496 37.267 112.686C37.0227 112.874 36.8537 113.082 36.7599 113.312L35.5625 113.04C35.7045 112.642 35.9119 112.321 36.1847 112.077C36.4602 111.83 36.777 111.651 37.1349 111.54C37.4929 111.426 37.8693 111.369 38.2642 111.369C38.5256 111.369 38.8026 111.401 39.0952 111.463C39.3906 111.523 39.6662 111.634 39.9219 111.795C40.1804 111.957 40.392 112.189 40.5568 112.49C40.7216 112.788 40.804 113.176 40.804 113.653V118H39.5597V117.105H39.5085C39.4261 117.27 39.3026 117.432 39.1378 117.591C38.973 117.75 38.7614 117.882 38.5028 117.987C38.2443 118.092 37.9347 118.145 37.5739 118.145ZM37.8509 117.122C38.2031 117.122 38.5043 117.053 38.7543 116.913C39.0071 116.774 39.1989 116.592 39.3295 116.368C39.4631 116.141 39.5298 115.898 39.5298 115.639V114.795C39.4844 114.841 39.3963 114.884 39.2656 114.923C39.1378 114.96 38.9915 114.993 38.8267 115.021C38.6619 115.047 38.5014 115.071 38.3452 115.094C38.1889 115.114 38.0582 115.131 37.9531 115.145C37.706 115.176 37.4801 115.229 37.2756 115.303C37.0739 115.376 36.9119 115.483 36.7898 115.622C36.6705 115.759 36.6108 115.94 36.6108 116.168C36.6108 116.483 36.7273 116.722 36.9602 116.884C37.1932 117.043 37.4901 117.122 37.8509 117.122ZM43.7752 109.273V118H42.5011V109.273H43.7752ZM53.5273 111.565C53.4819 111.162 53.2944 110.849 52.9648 110.628C52.6353 110.403 52.2205 110.291 51.7205 110.291C51.3626 110.291 51.0529 110.348 50.7915 110.462C50.5302 110.572 50.3271 110.726 50.1822 110.922C50.0401 111.115 49.9691 111.335 49.9691 111.582C49.9691 111.79 50.0174 111.969 50.114 112.119C50.2134 112.27 50.3427 112.396 50.5018 112.499C50.6637 112.598 50.837 112.682 51.0217 112.75C51.2063 112.815 51.3839 112.869 51.5543 112.912L52.4066 113.134C52.685 113.202 52.9705 113.294 53.2631 113.411C53.5558 113.527 53.8271 113.68 54.0771 113.871C54.3271 114.061 54.5288 114.297 54.6822 114.578C54.8384 114.859 54.9165 115.196 54.9165 115.588C54.9165 116.082 54.7887 116.521 54.533 116.905C54.2802 117.288 53.9123 117.591 53.4293 117.812C52.9492 118.034 52.3683 118.145 51.6864 118.145C51.033 118.145 50.4677 118.041 49.9904 117.834C49.5131 117.626 49.1396 117.332 48.8697 116.952C48.5998 116.568 48.4506 116.114 48.4222 115.588H49.7433C49.7688 115.903 49.8711 116.166 50.0501 116.376C50.2319 116.584 50.4634 116.739 50.7447 116.841C51.0288 116.94 51.3398 116.99 51.6779 116.99C52.0501 116.99 52.381 116.932 52.6708 116.815C52.9634 116.696 53.1935 116.531 53.3612 116.321C53.5288 116.108 53.6126 115.859 53.6126 115.575C53.6126 115.317 53.5387 115.105 53.391 114.94C53.2461 114.776 53.0487 114.639 52.7987 114.531C52.5515 114.423 52.2717 114.328 51.9592 114.246L50.9279 113.964C50.229 113.774 49.6751 113.494 49.266 113.125C48.8597 112.756 48.6566 112.267 48.6566 111.659C48.6566 111.156 48.793 110.717 49.0657 110.342C49.3384 109.967 49.7077 109.676 50.1737 109.469C50.6396 109.259 51.1651 109.153 51.7504 109.153C52.3413 109.153 52.8626 109.257 53.3143 109.464C53.7688 109.672 54.1268 109.957 54.3881 110.321C54.6495 110.682 54.7859 111.097 54.7972 111.565H53.5273ZM57.6619 114.114V118H56.3878V109.273H57.6449V112.52H57.7259C57.8793 112.168 58.1136 111.888 58.429 111.68C58.7443 111.473 59.1563 111.369 59.6648 111.369C60.1136 111.369 60.5057 111.462 60.8409 111.646C61.179 111.831 61.4403 112.107 61.625 112.473C61.8125 112.837 61.9062 113.291 61.9062 113.837V118H60.6321V113.99C60.6321 113.51 60.5085 113.138 60.2614 112.874C60.0142 112.607 59.6705 112.473 59.2301 112.473C58.929 112.473 58.6591 112.537 58.4205 112.665C58.1847 112.793 57.9986 112.98 57.8622 113.227C57.7287 113.472 57.6619 113.767 57.6619 114.114ZM67.7528 115.286V111.455H69.0312V118H67.7784V116.866H67.7102C67.5597 117.216 67.3182 117.507 66.9858 117.74C66.6563 117.97 66.2457 118.085 65.7543 118.085C65.3338 118.085 64.9616 117.993 64.6378 117.808C64.3168 117.621 64.0639 117.344 63.8793 116.977C63.6974 116.611 63.6065 116.158 63.6065 115.618V111.455H64.8807V115.464C64.8807 115.911 65.0043 116.266 65.2514 116.53C65.4986 116.794 65.8196 116.926 66.2145 116.926C66.4531 116.926 66.6903 116.866 66.9261 116.747C67.1648 116.628 67.3622 116.447 67.5185 116.206C67.6776 115.964 67.7557 115.658 67.7528 115.286ZM73.7987 111.455V112.477H70.2234V111.455H73.7987ZM71.1822 109.886H72.4563V116.078C72.4563 116.325 72.4933 116.511 72.5671 116.636C72.641 116.759 72.7362 116.842 72.8526 116.888C72.9719 116.93 73.1012 116.952 73.2404 116.952C73.3427 116.952 73.4322 116.945 73.5089 116.93C73.5856 116.916 73.6452 116.905 73.6879 116.896L73.918 117.949C73.8441 117.977 73.739 118.006 73.6026 118.034C73.4663 118.065 73.2958 118.082 73.0913 118.085C72.756 118.091 72.4435 118.031 72.1538 117.906C71.864 117.781 71.6296 117.588 71.4506 117.327C71.2717 117.065 71.1822 116.737 71.1822 116.342V109.886ZM78.2635 111.455V112.477H74.6882V111.455H78.2635ZM75.647 109.886H76.9212V116.078C76.9212 116.325 76.9581 116.511 77.032 116.636C77.1058 116.759 77.201 116.842 77.3175 116.888C77.4368 116.93 77.5661 116.952 77.7053 116.952C77.8075 116.952 77.897 116.945 77.9737 116.93C78.0504 116.916 78.1101 116.905 78.1527 116.896L78.3828 117.949C78.3089 117.977 78.2038 118.006 78.0675 118.034C77.9311 118.065 77.7607 118.082 77.5561 118.085C77.2209 118.091 76.9084 118.031 76.6186 117.906C76.3288 117.781 76.0945 117.588 75.9155 117.327C75.7365 117.065 75.647 116.737 75.647 116.342V109.886ZM81.0877 109.273V118H79.8136V109.273H81.0877ZM85.6229 118.132C84.978 118.132 84.4226 117.994 83.9567 117.719C83.4936 117.44 83.1357 117.05 82.8828 116.547C82.6328 116.041 82.5078 115.449 82.5078 114.77C82.5078 114.099 82.6328 113.509 82.8828 112.997C83.1357 112.486 83.4879 112.087 83.9396 111.8C84.3942 111.513 84.9254 111.369 85.5334 111.369C85.9027 111.369 86.2607 111.43 86.6072 111.553C86.9538 111.675 87.2649 111.866 87.5405 112.128C87.8161 112.389 88.0334 112.729 88.1925 113.146C88.3516 113.561 88.4311 114.065 88.4311 114.659V115.111H83.228V114.156H87.1825C87.1825 113.821 87.1143 113.524 86.978 113.266C86.8416 113.004 86.6499 112.798 86.4027 112.648C86.1584 112.497 85.8714 112.422 85.5419 112.422C85.1839 112.422 84.8714 112.51 84.6044 112.686C84.3402 112.859 84.1357 113.087 83.9908 113.368C83.8487 113.646 83.7777 113.949 83.7777 114.276V115.021C83.7777 115.459 83.8544 115.831 84.0078 116.138C84.1641 116.445 84.3814 116.679 84.6598 116.841C84.9382 117 85.2635 117.08 85.6357 117.08C85.8771 117.08 86.0973 117.045 86.2962 116.977C86.495 116.906 86.6669 116.801 86.8118 116.662C86.9567 116.523 87.0675 116.351 87.1442 116.146L88.3501 116.364C88.2536 116.719 88.0803 117.03 87.8303 117.297C87.5831 117.561 87.272 117.767 86.897 117.915C86.5249 118.06 86.1001 118.132 85.6229 118.132ZM93.1229 118V109.273H94.4396V116.866H98.3942V118H93.1229ZM99.794 118V111.455H101.068V118H99.794ZM100.438 110.445C100.216 110.445 100.026 110.371 99.8665 110.223C99.7102 110.072 99.6321 109.893 99.6321 109.686C99.6321 109.476 99.7102 109.297 99.8665 109.149C100.026 108.999 100.216 108.923 100.438 108.923C100.659 108.923 100.848 108.999 101.004 109.149C101.163 109.297 101.243 109.476 101.243 109.686C101.243 109.893 101.163 110.072 101.004 110.223C100.848 110.371 100.659 110.445 100.438 110.445ZM104.056 114.114V118H102.782V111.455H104.005V112.52H104.086C104.237 112.173 104.473 111.895 104.794 111.685C105.118 111.474 105.525 111.369 106.017 111.369C106.463 111.369 106.853 111.463 107.189 111.651C107.524 111.835 107.784 112.111 107.968 112.477C108.153 112.844 108.245 113.297 108.245 113.837V118H106.971V113.99C106.971 113.516 106.848 113.145 106.6 112.878C106.353 112.608 106.014 112.473 105.582 112.473C105.287 112.473 105.024 112.537 104.794 112.665C104.566 112.793 104.386 112.98 104.252 113.227C104.122 113.472 104.056 113.767 104.056 114.114ZM112.775 118.132C112.13 118.132 111.575 117.994 111.109 117.719C110.646 117.44 110.288 117.05 110.035 116.547C109.785 116.041 109.66 115.449 109.66 114.77C109.66 114.099 109.785 113.509 110.035 112.997C110.288 112.486 110.64 112.087 111.092 111.8C111.547 111.513 112.078 111.369 112.686 111.369C113.055 111.369 113.413 111.43 113.76 111.553C114.106 111.675 114.417 111.866 114.693 112.128C114.968 112.389 115.186 112.729 115.345 113.146C115.504 113.561 115.583 114.065 115.583 114.659V115.111H110.38V114.156H114.335C114.335 113.821 114.267 113.524 114.13 113.266C113.994 113.004 113.802 112.798 113.555 112.648C113.311 112.497 113.024 112.422 112.694 112.422C112.336 112.422 112.024 112.51 111.757 112.686C111.493 112.859 111.288 113.087 111.143 113.368C111.001 113.646 110.93 113.949 110.93 114.276V115.021C110.93 115.459 111.007 115.831 111.16 116.138C111.316 116.445 111.534 116.679 111.812 116.841C112.091 117 112.416 117.08 112.788 117.08C113.029 117.08 113.25 117.045 113.449 116.977C113.647 116.906 113.819 116.801 113.964 116.662C114.109 116.523 114.22 116.351 114.297 116.146L115.502 116.364C115.406 116.719 115.233 117.03 114.983 117.297C114.735 117.561 114.424 117.767 114.049 117.915C113.677 118.06 113.252 118.132 112.775 118.132ZM121.902 113.053L120.747 113.257C120.699 113.109 120.622 112.969 120.517 112.835C120.415 112.702 120.276 112.592 120.099 112.507C119.923 112.422 119.703 112.379 119.439 112.379C119.078 112.379 118.777 112.46 118.536 112.622C118.294 112.781 118.173 112.987 118.173 113.24C118.173 113.459 118.254 113.635 118.416 113.768C118.578 113.902 118.839 114.011 119.2 114.097L120.24 114.335C120.842 114.474 121.291 114.689 121.587 114.979C121.882 115.268 122.03 115.645 122.03 116.108C122.03 116.5 121.916 116.849 121.689 117.156C121.464 117.46 121.151 117.699 120.747 117.872C120.347 118.045 119.882 118.132 119.354 118.132C118.621 118.132 118.023 117.976 117.56 117.663C117.097 117.348 116.813 116.901 116.707 116.321L117.939 116.134C118.016 116.455 118.173 116.697 118.412 116.862C118.651 117.024 118.962 117.105 119.345 117.105C119.763 117.105 120.097 117.018 120.347 116.845C120.597 116.669 120.722 116.455 120.722 116.202C120.722 115.997 120.645 115.825 120.491 115.686C120.341 115.547 120.109 115.442 119.797 115.371L118.689 115.128C118.078 114.989 117.626 114.767 117.334 114.463C117.044 114.159 116.899 113.774 116.899 113.308C116.899 112.922 117.007 112.584 117.223 112.294C117.439 112.004 117.737 111.778 118.118 111.616C118.499 111.452 118.935 111.369 119.426 111.369C120.134 111.369 120.69 111.523 121.097 111.83C121.503 112.134 121.771 112.541 121.902 113.053Z" fill="#56544D"/>
<g clip-path="url(#clip0_343_235)">
<rect x="15" y="43" width="16" height="16" rx="4" fill="#59C3FF"/>
<path d="M19.0206 54V47.4545H20.4044V52.859H23.2105V54H19.0206ZM26.5232 47.4545V54H25.1393V48.7681H25.101L23.6021 49.7077V48.4805L25.2224 47.4545H26.5232Z" fill="white"/>
</g>
<rect x="14" y="42" width="18" height="18" rx="5" stroke="white" stroke-width="2"/>
<g clip-path="url(#clip1_343_235)">
<rect x="78" y="43" width="16" height="16" rx="4" fill="#43D95B"/>
<path d="M81.045 54V47.4545H82.4288V52.859H85.235V54H81.045ZM88.6251 54.0895C88.2885 54.0874 87.9636 54.0309 87.6503 53.9201C87.3393 53.8093 87.0601 53.6293 86.813 53.38C86.5658 53.1307 86.3698 52.8004 86.2249 52.3892C86.0822 51.978 86.0108 51.473 86.0108 50.8743C86.0129 50.3246 86.0758 49.8335 86.1994 49.4009C86.3251 48.9663 86.504 48.5977 86.7363 48.2951C86.9707 47.9925 87.2508 47.7624 87.5768 47.6048C87.9028 47.445 88.2682 47.3651 88.6731 47.3651C89.1099 47.3651 89.4955 47.4503 89.83 47.6207C90.1646 47.7891 90.433 48.0181 90.6354 48.3079C90.84 48.5977 90.9636 48.9226 91.0062 49.2827H89.6415C89.5882 49.0547 89.4763 48.8757 89.3059 48.7457C89.1354 48.6158 88.9245 48.5508 88.6731 48.5508C88.2469 48.5508 87.9231 48.7362 87.7015 49.1069C87.482 49.4776 87.3702 49.9815 87.3659 50.6186H87.4106C87.5087 50.4247 87.6408 50.2596 87.807 50.1232C87.9753 49.9847 88.166 49.8793 88.379 49.8068C88.5942 49.7322 88.8212 49.695 89.0598 49.695C89.4476 49.695 89.7927 49.7866 90.0953 49.9698C90.3979 50.1509 90.6365 50.4002 90.8112 50.7177C90.9859 51.0352 91.0733 51.3984 91.0733 51.8075C91.0733 52.2507 90.9699 52.6449 90.7633 52.9901C90.5587 53.3352 90.2722 53.6058 89.9035 53.8018C89.5371 53.9957 89.1109 54.0916 88.6251 54.0895ZM88.6187 53.0028C88.8318 53.0028 89.0225 52.9517 89.1908 52.8494C89.3592 52.7472 89.4913 52.6087 89.5871 52.4339C89.683 52.2592 89.731 52.0632 89.731 51.8459C89.731 51.6286 89.683 51.4336 89.5871 51.261C89.4934 51.0884 89.3634 50.951 89.1972 50.8487C89.031 50.7464 88.8414 50.6953 88.6283 50.6953C88.4685 50.6953 88.3204 50.7251 88.1841 50.7848C88.0498 50.8445 87.9316 50.9276 87.8293 51.0341C87.7292 51.1406 87.6503 51.2642 87.5928 51.4048C87.5353 51.5433 87.5065 51.6914 87.5065 51.8491C87.5065 52.06 87.5545 52.2528 87.6503 52.4276C87.7484 52.6023 87.8805 52.7418 88.0467 52.8462C88.215 52.9506 88.4057 53.0028 88.6187 53.0028Z" fill="white"/>
</g>
<rect x="77" y="42" width="18" height="18" rx="5" stroke="white" stroke-width="2"/>
<g clip-path="url(#clip2_343_235)">
<rect x="56" y="123" width="16" height="16" rx="4" fill="#5F8098"/>
<path d="M57.0799 134V128.182H58.31V132.986H60.8043V134H57.0799ZM61.5849 134V133.114L63.6559 131.196C63.832 131.026 63.9798 130.872 64.0991 130.736C64.2203 130.599 64.3121 130.466 64.3746 130.335C64.4371 130.203 64.4684 130.06 64.4684 129.906C64.4684 129.736 64.4296 129.589 64.3519 129.466C64.2743 129.341 64.1682 129.245 64.0337 129.179C63.8993 129.111 63.7468 129.077 63.5763 129.077C63.3983 129.077 63.243 129.113 63.1104 129.185C62.9779 129.257 62.8756 129.36 62.8036 129.494C62.7317 129.629 62.6957 129.789 62.6957 129.974H61.5281C61.5281 129.594 61.6142 129.263 61.7866 128.983C61.9589 128.703 62.2004 128.486 62.511 128.332C62.8216 128.179 63.1796 128.102 63.5849 128.102C64.0015 128.102 64.3642 128.176 64.6729 128.324C64.9835 128.47 65.225 128.672 65.3974 128.932C65.5697 129.191 65.6559 129.489 65.6559 129.824C65.6559 130.044 65.6123 130.26 65.5252 130.474C65.44 130.688 65.2875 130.926 65.0678 131.188C64.8481 131.447 64.5385 131.759 64.1388 132.122L63.2894 132.955V132.994H65.7326V134H61.5849ZM68.7745 134.08C68.3503 134.08 67.9724 134.007 67.641 133.861C67.3114 133.713 67.051 133.51 66.8597 133.253C66.6703 132.993 66.5728 132.694 66.5671 132.355H67.8058C67.8133 132.497 67.8597 132.622 67.945 132.73C68.0321 132.836 68.1476 132.919 68.2915 132.977C68.4355 133.036 68.5974 133.065 68.7773 133.065C68.9648 133.065 69.1306 133.032 69.2745 132.966C69.4184 132.9 69.5311 132.808 69.6126 132.69C69.694 132.573 69.7347 132.437 69.7347 132.284C69.7347 132.129 69.6912 131.991 69.604 131.872C69.5188 131.751 69.3957 131.656 69.2347 131.588C69.0756 131.52 68.8862 131.486 68.6665 131.486H68.1239V130.582H68.6665C68.8522 130.582 69.016 130.55 69.158 130.486C69.302 130.421 69.4137 130.332 69.4933 130.219C69.5728 130.103 69.6126 129.969 69.6126 129.815C69.6126 129.67 69.5775 129.542 69.5075 129.432C69.4393 129.32 69.3427 129.233 69.2177 129.17C69.0946 129.108 68.9506 129.077 68.7859 129.077C68.6192 129.077 68.4667 129.107 68.3285 129.168C68.1902 129.226 68.0794 129.311 67.9961 129.42C67.9128 129.53 67.8683 129.659 67.8626 129.807H66.6836C66.6893 129.472 66.7849 129.176 66.9705 128.92C67.1561 128.665 67.4061 128.465 67.7205 128.321C68.0368 128.175 68.3938 128.102 68.7915 128.102C69.1931 128.102 69.5444 128.175 69.8455 128.321C70.1467 128.467 70.3806 128.664 70.5472 128.912C70.7158 129.158 70.7991 129.435 70.7972 129.741C70.7991 130.067 70.6978 130.339 70.4933 130.557C70.2906 130.775 70.0264 130.913 69.7006 130.972V131.017C70.1287 131.072 70.4544 131.221 70.6779 131.463C70.9033 131.704 71.015 132.005 71.0131 132.366C71.015 132.698 70.9194 132.992 70.7262 133.25C70.5349 133.508 70.2707 133.71 69.9336 133.858C69.5965 134.006 69.2101 134.08 68.7745 134.08Z" fill="white"/>
</g>
<rect x="55" y="122" width="18" height="18" rx="5" stroke="white" stroke-width="2"/>
<g clip-path="url(#clip3_343_235)">
<rect x="99" y="123" width="16" height="16" rx="4" fill="#5F8098"/>
<path d="M100.138 134V128.182H101.369V132.986H103.863V134H100.138ZM104.643 134V133.114L106.714 131.196C106.891 131.026 107.038 130.872 107.158 130.736C107.279 130.599 107.371 130.466 107.433 130.335C107.496 130.203 107.527 130.06 107.527 129.906C107.527 129.736 107.488 129.589 107.411 129.466C107.333 129.341 107.227 129.245 107.092 129.179C106.958 129.111 106.805 129.077 106.635 129.077C106.457 129.077 106.302 129.113 106.169 129.185C106.036 129.257 105.934 129.36 105.862 129.494C105.79 129.629 105.754 129.789 105.754 129.974H104.587C104.587 129.594 104.673 129.263 104.845 128.983C105.018 128.703 105.259 128.486 105.57 128.332C105.88 128.179 106.238 128.102 106.643 128.102C107.06 128.102 107.423 128.176 107.732 128.324C108.042 128.47 108.284 128.672 108.456 128.932C108.628 129.191 108.714 129.489 108.714 129.824C108.714 130.044 108.671 130.26 108.584 130.474C108.499 130.688 108.346 130.926 108.126 131.188C107.907 131.447 107.597 131.759 107.197 132.122L106.348 132.955V132.994H108.791V134H104.643ZM111.808 134.08C111.406 134.08 111.048 134.006 110.734 133.858C110.421 133.71 110.173 133.507 109.989 133.247C109.806 132.988 109.71 132.69 109.702 132.355H110.896C110.909 132.58 111.004 132.763 111.18 132.903C111.356 133.044 111.565 133.114 111.808 133.114C112.001 133.114 112.171 133.071 112.319 132.986C112.469 132.899 112.585 132.778 112.668 132.625C112.754 132.47 112.796 132.292 112.796 132.091C112.796 131.886 112.753 131.706 112.665 131.551C112.58 131.396 112.462 131.275 112.31 131.188C112.159 131.1 111.986 131.056 111.79 131.054C111.62 131.054 111.454 131.089 111.293 131.159C111.134 131.229 111.01 131.325 110.921 131.446L109.827 131.25L110.103 128.182H113.66V129.188H111.117L110.967 130.645H111.001C111.103 130.501 111.257 130.382 111.464 130.287C111.67 130.192 111.901 130.145 112.157 130.145C112.507 130.145 112.82 130.227 113.094 130.392C113.369 130.557 113.586 130.783 113.745 131.071C113.904 131.357 113.983 131.687 113.981 132.06C113.983 132.452 113.892 132.8 113.708 133.105C113.526 133.408 113.272 133.647 112.944 133.821C112.618 133.993 112.239 134.08 111.808 134.08Z" fill="white"/>
</g>
<rect x="98" y="122" width="18" height="18" rx="5" stroke="white" stroke-width="2"/>
<g clip-path="url(#clip4_343_235)">
<rect x="36" y="43" width="16" height="16" rx="4" fill="#FF8AFA"/>
<path d="M39.1812 54V47.4545H40.5651V52.859H43.3712V54H39.1812ZM44.2493 54V53.0028L46.5792 50.8455C46.7773 50.6538 46.9435 50.4812 47.0778 50.3278C47.2141 50.1744 47.3175 50.0241 47.3878 49.8771C47.4581 49.728 47.4933 49.5671 47.4933 49.3945C47.4933 49.2028 47.4496 49.0376 47.3622 48.8991C47.2749 48.7585 47.1555 48.6509 47.0043 48.5763C46.853 48.4996 46.6815 48.4613 46.4897 48.4613C46.2894 48.4613 46.1147 48.5018 45.9656 48.5827C45.8164 48.6637 45.7013 48.7798 45.6204 48.9311C45.5394 49.0824 45.4989 49.2624 45.4989 49.4712H44.1854C44.1854 49.043 44.2823 48.6712 44.4762 48.3558C44.6701 48.0405 44.9418 47.7965 45.2912 47.6239C45.6406 47.4513 46.0433 47.3651 46.4993 47.3651C46.968 47.3651 47.3761 47.4482 47.7234 47.6143C48.0728 47.7784 48.3445 48.0064 48.5384 48.2983C48.7322 48.5902 48.8292 48.9247 48.8292 49.3018C48.8292 49.549 48.7802 49.793 48.6822 50.0337C48.5863 50.2745 48.4148 50.5419 48.1676 50.8359C47.9205 51.1278 47.5721 51.4783 47.1225 51.8874L46.1669 52.8239V52.8686H48.9155V54H44.2493Z" fill="white"/>
</g>
<rect x="35" y="42" width="18" height="18" rx="5" stroke="white" stroke-width="2"/>
<g clip-path="url(#clip5_343_235)">
<rect x="57" y="43" width="16" height="16" rx="4" fill="#FFC42E"/>
<path d="M60.0494 54V47.4545H61.4332V52.859H64.2393V54H60.0494ZM67.5368 54.0895C67.0596 54.0895 66.6345 54.0075 66.2616 53.8434C65.8909 53.6772 65.5979 53.4492 65.3827 53.1594C65.1697 52.8675 65.0599 52.5309 65.0535 52.1495H66.447C66.4555 52.3093 66.5077 52.4499 66.6036 52.5714C66.7016 52.6907 66.8316 52.7834 66.9935 52.8494C67.1555 52.9155 67.3376 52.9485 67.54 52.9485C67.751 52.9485 67.9374 52.9112 68.0993 52.8366C68.2613 52.7621 68.3881 52.6587 68.4797 52.5266C68.5713 52.3945 68.6171 52.2422 68.6171 52.0696C68.6171 51.8949 68.5681 51.7404 68.4701 51.6062C68.3742 51.4698 68.2357 51.3633 68.0546 51.2866C67.8756 51.2099 67.6626 51.1715 67.4154 51.1715H66.805V50.1552H67.4154C67.6242 50.1552 67.8085 50.119 67.9683 50.0465C68.1302 49.9741 68.2559 49.8739 68.3454 49.7461C68.4349 49.6161 68.4797 49.4648 68.4797 49.2923C68.4797 49.1282 68.4403 48.9844 68.3614 48.8608C68.2847 48.7351 68.176 48.6371 68.0354 48.5668C67.8969 48.4964 67.735 48.4613 67.5496 48.4613C67.3621 48.4613 67.1906 48.4954 67.0351 48.5636C66.8795 48.6296 66.7549 48.7244 66.6611 48.848C66.5674 48.9716 66.5173 49.1165 66.5109 49.2827H65.1846C65.191 48.9055 65.2986 48.5732 65.5074 48.2855C65.7162 47.9979 65.9974 47.7731 66.3511 47.6112C66.7069 47.4471 67.1086 47.3651 67.556 47.3651C68.0077 47.3651 68.403 47.4471 68.7417 47.6112C69.0805 47.7752 69.3437 47.9968 69.5312 48.2759C69.7208 48.5529 69.8145 48.864 69.8124 49.2092C69.8145 49.5756 69.7006 49.8814 69.4704 50.1264C69.2425 50.3714 68.9452 50.527 68.5787 50.593V50.6442C69.0603 50.706 69.4268 50.8732 69.6782 51.146C69.9317 51.4165 70.0574 51.7553 70.0553 52.1623C70.0574 52.5352 69.9498 52.8665 69.7325 53.1562C69.5173 53.446 69.2201 53.674 68.8408 53.8402C68.4616 54.0064 68.0269 54.0895 67.5368 54.0895Z" fill="white"/>
</g>
<rect x="56" y="42" width="18" height="18" rx="5" stroke="white" stroke-width="2"/>
<path d="M15.9588 78V69.2727H19.0696C19.7457 69.2727 20.3068 69.3892 20.7528 69.6222C21.2017 69.8551 21.5369 70.1776 21.7585 70.5895C21.9801 70.9986 22.0909 71.4716 22.0909 72.0085C22.0909 72.5426 21.9787 73.0128 21.7543 73.419C21.5327 73.8224 21.1974 74.1364 20.7486 74.3608C20.3026 74.5852 19.7415 74.6974 19.0653 74.6974H16.7088V73.5639H18.946C19.3722 73.5639 19.7188 73.5028 19.9858 73.3807C20.2557 73.2585 20.4531 73.081 20.5781 72.848C20.7031 72.6151 20.7656 72.3352 20.7656 72.0085C20.7656 71.679 20.7017 71.3935 20.5739 71.152C20.4489 70.9105 20.2514 70.7259 19.9815 70.598C19.7145 70.4673 19.3636 70.402 18.929 70.402H17.2756V78H15.9588ZM20.267 74.0625L22.4233 78H20.9233L18.8097 74.0625H20.267ZM26.3299 78.1321C25.685 78.1321 25.1296 77.9943 24.6637 77.7188C24.2006 77.4403 23.8427 77.0497 23.5898 76.5469C23.3398 76.0412 23.2148 75.4489 23.2148 74.7699C23.2148 74.0994 23.3398 73.5085 23.5898 72.9972C23.8427 72.4858 24.195 72.0866 24.6467 71.7997C25.1012 71.5128 25.6325 71.3693 26.2404 71.3693C26.6097 71.3693 26.9677 71.4304 27.3143 71.5526C27.6609 71.6747 27.9719 71.8665 28.2475 72.1278C28.5231 72.3892 28.7404 72.7287 28.8995 73.1463C29.0586 73.5611 29.1381 74.0653 29.1381 74.6591V75.1108H23.935V74.1562H27.8896C27.8896 73.821 27.8214 73.5241 27.685 73.2656C27.5487 73.0043 27.3569 72.7983 27.1097 72.6477C26.8654 72.4972 26.5785 72.4219 26.2489 72.4219C25.891 72.4219 25.5785 72.5099 25.3114 72.6861C25.0472 72.8594 24.8427 73.0866 24.6978 73.3679C24.5558 73.6463 24.4847 73.9489 24.4847 74.2756V75.0213C24.4847 75.4588 24.5614 75.831 24.7148 76.1378C24.8711 76.4446 25.0884 76.679 25.3668 76.8409C25.6452 77 25.9705 77.0795 26.3427 77.0795C26.5842 77.0795 26.8043 77.0455 27.0032 76.9773C27.2021 76.9062 27.3739 76.8011 27.5188 76.6619C27.6637 76.5227 27.7745 76.3509 27.8512 76.1463L29.0572 76.3636C28.9606 76.7187 28.7873 77.0298 28.5373 77.2969C28.2901 77.5611 27.979 77.767 27.604 77.9148C27.2319 78.0597 26.8072 78.1321 26.3299 78.1321ZM33.2962 80.5909C32.7763 80.5909 32.3288 80.5227 31.9538 80.3864C31.5817 80.25 31.2777 80.0696 31.0419 79.8452C30.8061 79.6207 30.63 79.375 30.5135 79.108L31.6087 78.6562C31.6854 78.7812 31.7876 78.9134 31.9155 79.0526C32.0462 79.1946 32.2223 79.3153 32.4439 79.4148C32.6683 79.5142 32.9567 79.5639 33.3089 79.5639C33.7919 79.5639 34.1911 79.446 34.5064 79.2102C34.8217 78.9773 34.9794 78.6051 34.9794 78.0938V76.8068H34.8984C34.8217 76.946 34.7109 77.1009 34.5661 77.2713C34.424 77.4418 34.228 77.5895 33.978 77.7145C33.728 77.8395 33.4027 77.902 33.0021 77.902C32.4851 77.902 32.0192 77.7812 31.6044 77.5398C31.1925 77.2955 30.8658 76.9361 30.6243 76.4616C30.3857 75.9844 30.2663 75.3977 30.2663 74.7017C30.2663 74.0057 30.3842 73.4091 30.62 72.9119C30.8587 72.4148 31.1854 72.0341 31.6001 71.7699C32.0149 71.5028 32.4851 71.3693 33.0107 71.3693C33.4169 71.3693 33.745 71.4375 33.995 71.5739C34.245 71.7074 34.4396 71.8636 34.5788 72.0426C34.7209 72.2216 34.8303 72.3793 34.907 72.5156H35.0007V71.4545H36.2493V78.1449C36.2493 78.7074 36.1186 79.169 35.8572 79.5298C35.5959 79.8906 35.2422 80.1577 34.7962 80.331C34.353 80.5043 33.853 80.5909 33.2962 80.5909ZM33.2834 76.8452C33.6499 76.8452 33.9595 76.7599 34.2124 76.5895C34.468 76.4162 34.6612 76.169 34.7919 75.848C34.9254 75.5241 34.9922 75.1364 34.9922 74.6847C34.9922 74.2443 34.9268 73.8565 34.7962 73.5213C34.6655 73.1861 34.4737 72.9247 34.2209 72.7372C33.968 72.5469 33.6555 72.4517 33.2834 72.4517C32.8999 72.4517 32.5803 72.5511 32.3246 72.75C32.0689 72.946 31.8757 73.2131 31.745 73.5511C31.6172 73.8892 31.5533 74.267 31.5533 74.6847C31.5533 75.1136 31.6186 75.4901 31.7493 75.8139C31.88 76.1378 32.0732 76.3906 32.3288 76.5724C32.5874 76.7543 32.9055 76.8452 33.2834 76.8452ZM37.9581 78V71.4545H39.2322V78H37.9581ZM38.6016 70.4446C38.38 70.4446 38.1896 70.3707 38.0305 70.223C37.8743 70.0724 37.7962 69.8935 37.7962 69.6861C37.7962 69.4759 37.8743 69.2969 38.0305 69.1491C38.1896 68.9986 38.38 68.9233 38.6016 68.9233C38.8232 68.9233 39.0121 68.9986 39.1683 69.1491C39.3274 69.2969 39.407 69.4759 39.407 69.6861C39.407 69.8935 39.3274 70.0724 39.1683 70.223C39.0121 70.3707 38.8232 70.4446 38.6016 70.4446ZM43.7035 78.1321C43.0898 78.1321 42.5543 77.9915 42.0969 77.7102C41.6396 77.429 41.2844 77.0355 41.0316 76.5298C40.7788 76.0241 40.6523 75.4332 40.6523 74.7571C40.6523 74.0781 40.7788 73.4844 41.0316 72.9759C41.2844 72.4673 41.6396 72.0724 42.0969 71.7912C42.5543 71.5099 43.0898 71.3693 43.7035 71.3693C44.3171 71.3693 44.8526 71.5099 45.31 71.7912C45.7674 72.0724 46.1225 72.4673 46.3754 72.9759C46.6282 73.4844 46.7546 74.0781 46.7546 74.7571C46.7546 75.4332 46.6282 76.0241 46.3754 76.5298C46.1225 77.0355 45.7674 77.429 45.31 77.7102C44.8526 77.9915 44.3171 78.1321 43.7035 78.1321ZM43.7077 77.0625C44.1055 77.0625 44.435 76.9574 44.6964 76.7472C44.9577 76.5369 45.1509 76.2571 45.2759 75.9077C45.4038 75.5582 45.4677 75.1733 45.4677 74.7528C45.4677 74.3352 45.4038 73.9517 45.2759 73.6023C45.1509 73.25 44.9577 72.9673 44.6964 72.7543C44.435 72.5412 44.1055 72.4347 43.7077 72.4347C43.3072 72.4347 42.9748 72.5412 42.7106 72.7543C42.4492 72.9673 42.2546 73.25 42.1268 73.6023C42.0018 73.9517 41.9393 74.3352 41.9393 74.7528C41.9393 75.1733 42.0018 75.5582 42.1268 75.9077C42.2546 76.2571 42.4492 76.5369 42.7106 76.7472C42.9748 76.9574 43.3072 77.0625 43.7077 77.0625ZM49.451 74.1136V78H48.1768V71.4545H49.3999V72.5199H49.4808C49.6314 72.1733 49.8672 71.8949 50.1882 71.6847C50.5121 71.4744 50.9197 71.3693 51.4112 71.3693C51.8572 71.3693 52.2479 71.4631 52.5831 71.6506C52.9183 71.8352 53.1783 72.1108 53.3629 72.4773C53.5476 72.8437 53.6399 73.2969 53.6399 73.8366V78H52.3658V73.9901C52.3658 73.5156 52.2422 73.1449 51.995 72.8778C51.7479 72.608 51.4084 72.473 50.9766 72.473C50.6811 72.473 50.4183 72.5369 50.1882 72.6648C49.9609 72.7926 49.7805 72.9801 49.647 73.2273C49.5163 73.4716 49.451 73.767 49.451 74.1136ZM57.2536 78.1449C56.8388 78.1449 56.4638 78.0682 56.1286 77.9148C55.7933 77.7585 55.5277 77.5327 55.3317 77.2372C55.1385 76.9418 55.0419 76.5795 55.0419 76.1506C55.0419 75.7812 55.1129 75.4773 55.255 75.2386C55.397 75 55.5888 74.8111 55.8303 74.6719C56.0717 74.5327 56.3416 74.4276 56.6399 74.3565C56.9382 74.2855 57.2422 74.2315 57.5518 74.1946C57.9439 74.1491 58.2621 74.1122 58.5064 74.0838C58.7507 74.0526 58.9283 74.0028 59.0391 73.9347C59.1499 73.8665 59.2053 73.7557 59.2053 73.6023V73.5724C59.2053 73.2003 59.1001 72.9119 58.8899 72.7074C58.6825 72.5028 58.3729 72.4006 57.9609 72.4006C57.532 72.4006 57.1939 72.4957 56.9467 72.6861C56.7024 72.8736 56.5334 73.0824 56.4396 73.3125L55.2422 73.0398C55.3842 72.642 55.5916 72.321 55.8643 72.0767C56.1399 71.8295 56.4567 71.6506 56.8146 71.5398C57.1726 71.4261 57.549 71.3693 57.9439 71.3693C58.2053 71.3693 58.4822 71.4006 58.7749 71.4631C59.0703 71.5227 59.3459 71.6335 59.6016 71.7955C59.8601 71.9574 60.0717 72.1889 60.2365 72.4901C60.4013 72.7884 60.4837 73.1761 60.4837 73.6534V78H59.2393V77.1051H59.1882C59.1058 77.2699 58.9822 77.4318 58.8175 77.5909C58.6527 77.75 58.4411 77.8821 58.1825 77.9872C57.924 78.0923 57.6143 78.1449 57.2536 78.1449ZM57.5305 77.1222C57.8828 77.1222 58.1839 77.0526 58.4339 76.9134C58.6868 76.7741 58.8786 76.5923 59.0092 76.3679C59.1428 76.1406 59.2095 75.8977 59.2095 75.6392V74.7955C59.1641 74.8409 59.076 74.8835 58.9453 74.9233C58.8175 74.9602 58.6712 74.9929 58.5064 75.0213C58.3416 75.0469 58.1811 75.071 58.0249 75.0938C57.8686 75.1136 57.7379 75.1307 57.6328 75.1449C57.3857 75.1761 57.1598 75.2287 56.9553 75.3026C56.7536 75.3764 56.5916 75.483 56.4695 75.6222C56.3501 75.7585 56.2905 75.9403 56.2905 76.1676C56.2905 76.483 56.407 76.7216 56.6399 76.8835C56.8729 77.0426 57.1697 77.1222 57.5305 77.1222ZM63.4549 69.2727V78H62.1808V69.2727H63.4549ZM68.4471 78V69.2727H69.7638V76.8665H73.7184V78H68.4471ZM75.1183 78V71.4545H76.3924V78H75.1183ZM75.7617 70.4446C75.5401 70.4446 75.3498 70.3707 75.1907 70.223C75.0344 70.0724 74.9563 69.8935 74.9563 69.6861C74.9563 69.4759 75.0344 69.2969 75.1907 69.1491C75.3498 68.9986 75.5401 68.9233 75.7617 68.9233C75.9833 68.9233 76.1722 68.9986 76.3285 69.1491C76.4876 69.2969 76.5671 69.4759 76.5671 69.6861C76.5671 69.8935 76.4876 70.0724 76.3285 70.223C76.1722 70.3707 75.9833 70.4446 75.7617 70.4446ZM79.3807 74.1136V78H78.1065V71.4545H79.3295V72.5199H79.4105C79.5611 72.1733 79.7969 71.8949 80.1179 71.6847C80.4418 71.4744 80.8494 71.3693 81.3409 71.3693C81.7869 71.3693 82.1776 71.4631 82.5128 71.6506C82.848 71.8352 83.108 72.1108 83.2926 72.4773C83.4773 72.8437 83.5696 73.2969 83.5696 73.8366V78H82.2955V73.9901C82.2955 73.5156 82.1719 73.1449 81.9247 72.8778C81.6776 72.608 81.3381 72.473 80.9062 72.473C80.6108 72.473 80.348 72.5369 80.1179 72.6648C79.8906 72.7926 79.7102 72.9801 79.5767 73.2273C79.446 73.4716 79.3807 73.767 79.3807 74.1136ZM88.0994 78.1321C87.4545 78.1321 86.8991 77.9943 86.4332 77.7188C85.9702 77.4403 85.6122 77.0497 85.3594 76.5469C85.1094 76.0412 84.9844 75.4489 84.9844 74.7699C84.9844 74.0994 85.1094 73.5085 85.3594 72.9972C85.6122 72.4858 85.9645 72.0866 86.4162 71.7997C86.8707 71.5128 87.402 71.3693 88.0099 71.3693C88.3793 71.3693 88.7372 71.4304 89.0838 71.5526C89.4304 71.6747 89.7415 71.8665 90.017 72.1278C90.2926 72.3892 90.5099 72.7287 90.669 73.1463C90.8281 73.5611 90.9077 74.0653 90.9077 74.6591V75.1108H85.7045V74.1562H89.6591C89.6591 73.821 89.5909 73.5241 89.4545 73.2656C89.3182 73.0043 89.1264 72.7983 88.8793 72.6477C88.6349 72.4972 88.348 72.4219 88.0185 72.4219C87.6605 72.4219 87.348 72.5099 87.081 72.6861C86.8168 72.8594 86.6122 73.0866 86.4673 73.3679C86.3253 73.6463 86.2543 73.9489 86.2543 74.2756V75.0213C86.2543 75.4588 86.331 75.831 86.4844 76.1378C86.6406 76.4446 86.858 76.679 87.1364 76.8409C87.4148 77 87.7401 77.0795 88.1122 77.0795C88.3537 77.0795 88.5739 77.0455 88.7727 76.9773C88.9716 76.9062 89.1435 76.8011 89.2884 76.6619C89.4332 76.5227 89.544 76.3509 89.6207 76.1463L90.8267 76.3636C90.7301 76.7187 90.5568 77.0298 90.3068 77.2969C90.0597 77.5611 89.7486 77.767 89.3736 77.9148C89.0014 78.0597 88.5767 78.1321 88.0994 78.1321ZM97.2262 73.0526L96.0714 73.2571C96.0231 73.1094 95.9464 72.9687 95.8413 72.8352C95.739 72.7017 95.5998 72.5923 95.4237 72.5071C95.2475 72.4219 95.0273 72.3793 94.7631 72.3793C94.4023 72.3793 94.1012 72.4602 93.8597 72.6222C93.6183 72.7812 93.4975 72.9872 93.4975 73.2401C93.4975 73.4588 93.5785 73.6349 93.7404 73.7685C93.9023 73.902 94.1637 74.0114 94.5245 74.0966L95.5643 74.3352C96.1665 74.4744 96.6154 74.6889 96.9109 74.9787C97.2063 75.2685 97.354 75.6449 97.354 76.108C97.354 76.5 97.2404 76.8494 97.0131 77.1562C96.7887 77.4602 96.4748 77.6989 96.0714 77.8722C95.6708 78.0455 95.2063 78.1321 94.6779 78.1321C93.945 78.1321 93.3469 77.9759 92.8839 77.6634C92.4208 77.348 92.1367 76.9006 92.0316 76.321L93.2631 76.1335C93.3398 76.4545 93.4975 76.6974 93.7362 76.8622C93.9748 77.0241 94.2859 77.1051 94.6694 77.1051C95.087 77.1051 95.4208 77.0185 95.6708 76.8452C95.9208 76.669 96.0458 76.4545 96.0458 76.2017C96.0458 75.9972 95.9691 75.8253 95.8157 75.6861C95.6651 75.5469 95.4336 75.4418 95.1211 75.3707L94.0131 75.1278C93.4023 74.9886 92.9506 74.767 92.658 74.4631C92.3683 74.1591 92.2234 73.7741 92.2234 73.3082C92.2234 72.9219 92.3313 72.5838 92.5472 72.294C92.7631 72.0043 93.0614 71.7784 93.4421 71.6165C93.8228 71.4517 94.2589 71.3693 94.7504 71.3693C95.4577 71.3693 96.0146 71.5227 96.4208 71.8295C96.8271 72.1335 97.0955 72.5412 97.2262 73.0526Z" fill="#56544D"/>
<g clip-path="url(#clip6_343_235)">
<rect x="77" y="123" width="16" height="16" rx="4" fill="#809CB1"/>
<path d="M78.0682 134V128.182H79.2983V132.986H81.7926V134H78.0682ZM82.5732 134V133.114L84.6442 131.196C84.8203 131.026 84.968 130.872 85.0874 130.736C85.2086 130.599 85.3004 130.466 85.3629 130.335C85.4254 130.203 85.4567 130.06 85.4567 129.906C85.4567 129.736 85.4179 129.589 85.3402 129.466C85.2625 129.341 85.1565 129.245 85.022 129.179C84.8875 129.111 84.7351 129.077 84.5646 129.077C84.3866 129.077 84.2313 129.113 84.0987 129.185C83.9661 129.257 83.8639 129.36 83.7919 129.494C83.7199 129.629 83.6839 129.789 83.6839 129.974H82.5163C82.5163 129.594 82.6025 129.263 82.7749 128.983C82.9472 128.703 83.1887 128.486 83.4993 128.332C83.8099 128.179 84.1679 128.102 84.5732 128.102C84.9898 128.102 85.3525 128.176 85.6612 128.324C85.9718 128.47 86.2133 128.672 86.3857 128.932C86.558 129.191 86.6442 129.489 86.6442 129.824C86.6442 130.044 86.6006 130.26 86.5135 130.474C86.4283 130.688 86.2758 130.926 86.0561 131.188C85.8364 131.447 85.5268 131.759 85.1271 132.122L84.2777 132.955V132.994H86.7209V134H82.5732ZM87.3991 132.977V132.009L89.8281 128.182H90.6634V129.523H90.169L88.6378 131.946V131.991H92.0895V132.977H87.3991ZM90.1918 134V132.682L90.2145 132.253V128.182H91.3679V134H90.1918Z" fill="white"/>
</g>
<rect x="76" y="122" width="18" height="18" rx="5" stroke="white" stroke-width="2"/>
<g clip-path="url(#clip7_343_235)">
<rect x="99" y="43" width="16" height="16" rx="4" fill="#5ADCD4"/>
<path d="M102.339 54V47.4545H103.723V52.859H106.529V54H102.339ZM107.666 54L110.38 48.6307V48.5859H107.219V47.4545H111.812V48.6019L109.095 54H107.666Z" fill="white"/>
</g>
<rect x="98" y="42" width="18" height="18" rx="5" stroke="white" stroke-width="2"/>
<g clip-path="url(#clip8_343_235)">
<rect x="120" y="43" width="16" height="16" rx="4" fill="#8D7EE8"/>
<path d="M123.041 54V47.4545H124.424V52.859H127.231V54H123.041ZM130.55 54.0895C130.058 54.0895 129.62 54.0096 129.237 53.8498C128.855 53.6879 128.556 53.4673 128.339 53.1882C128.121 52.9091 128.013 52.5927 128.013 52.239C128.013 51.9663 128.075 51.7159 128.198 51.4879C128.324 51.2578 128.494 51.0671 128.71 50.9158C128.925 50.7624 129.165 50.6644 129.432 50.6218V50.5771C129.082 50.5067 128.799 50.3374 128.582 50.0689C128.364 49.7983 128.256 49.484 128.256 49.1261C128.256 48.7873 128.355 48.4858 128.553 48.2216C128.751 47.9553 129.023 47.7464 129.368 47.5952C129.715 47.4418 130.109 47.3651 130.55 47.3651C130.991 47.3651 131.385 47.4418 131.73 47.5952C132.077 47.7486 132.35 47.9585 132.548 48.2248C132.746 48.489 132.846 48.7894 132.848 49.1261C132.846 49.4862 132.735 49.8004 132.516 50.0689C132.297 50.3374 132.015 50.5067 131.672 50.5771V50.6218C131.934 50.6644 132.172 50.7624 132.385 50.9158C132.6 51.0671 132.771 51.2578 132.896 51.4879C133.024 51.7159 133.089 51.9663 133.091 52.239C133.089 52.5927 132.979 52.9091 132.762 53.1882C132.545 53.4673 132.244 53.6879 131.861 53.8498C131.479 54.0096 131.043 54.0895 130.55 54.0895ZM130.55 53.0732C130.77 53.0732 130.962 53.0337 131.126 52.9549C131.29 52.8739 131.418 52.7631 131.509 52.6225C131.603 52.4798 131.65 52.3157 131.65 52.1303C131.65 51.9407 131.602 51.7734 131.506 51.6286C131.41 51.4815 131.28 51.3665 131.116 51.2834C130.952 51.1982 130.763 51.1555 130.55 51.1555C130.339 51.1555 130.151 51.1982 129.985 51.2834C129.819 51.3665 129.688 51.4815 129.592 51.6286C129.498 51.7734 129.451 51.9407 129.451 52.1303C129.451 52.3157 129.497 52.4798 129.588 52.6225C129.68 52.7631 129.809 52.8739 129.975 52.9549C130.141 53.0337 130.333 53.0732 130.55 53.0732ZM130.55 50.1488C130.734 50.1488 130.897 50.1115 131.039 50.0369C131.182 49.9624 131.294 49.859 131.375 49.7269C131.456 49.5948 131.496 49.4425 131.496 49.2699C131.496 49.0994 131.456 48.9503 131.375 48.8224C131.294 48.6925 131.183 48.5913 131.043 48.5188C130.902 48.4442 130.738 48.407 130.55 48.407C130.365 48.407 130.201 48.4442 130.058 48.5188C129.915 48.5913 129.804 48.6925 129.723 48.8224C129.644 48.9503 129.604 49.0994 129.604 49.2699C129.604 49.4425 129.645 49.5948 129.726 49.7269C129.807 49.859 129.919 49.9624 130.061 50.0369C130.204 50.1115 130.367 50.1488 130.55 50.1488Z" fill="white"/>
</g>
<rect x="119" y="42" width="18" height="18" rx="5" stroke="white" stroke-width="2"/>
<g clip-path="url(#clip9_343_235)">
<rect x="141" y="43" width="16" height="16" rx="4" fill="#FF7474"/>
<path d="M144.045 54V47.4545H145.429V52.859H148.235V54H144.045ZM151.481 47.3651C151.818 47.3651 152.142 47.4215 152.453 47.5344C152.766 47.6474 153.045 47.8274 153.29 48.0746C153.537 48.3217 153.732 48.6499 153.875 49.0589C154.02 49.4659 154.094 49.9656 154.096 50.5579C154.096 51.114 154.033 51.6104 153.907 52.0472C153.784 52.4819 153.606 52.8516 153.373 53.1562C153.141 53.4609 152.861 53.6932 152.533 53.853C152.205 54.0107 151.838 54.0895 151.433 54.0895C150.997 54.0895 150.611 54.0053 150.276 53.837C149.942 53.6665 149.672 53.4354 149.468 53.1435C149.265 52.8494 149.143 52.5192 149.1 52.1527H150.465C150.518 52.3913 150.63 52.5767 150.801 52.7088C150.971 52.8388 151.182 52.9038 151.433 52.9038C151.86 52.9038 152.183 52.7184 152.405 52.3477C152.627 51.9748 152.738 51.4645 152.741 50.8168H152.696C152.598 51.0085 152.466 51.1737 152.299 51.3121C152.133 51.4485 151.943 51.554 151.727 51.6286C151.514 51.7031 151.287 51.7404 151.047 51.7404C150.661 51.7404 150.317 51.6499 150.014 51.4688C149.712 51.2876 149.473 51.0384 149.298 50.7209C149.124 50.4034 149.036 50.0412 149.036 49.6342C149.034 49.1953 149.135 48.8043 149.34 48.4613C149.545 48.1183 149.83 47.8498 150.197 47.6559C150.565 47.4599 150.993 47.3629 151.481 47.3651ZM151.491 48.4517C151.276 48.4517 151.084 48.5028 150.916 48.6051C150.749 48.7074 150.617 48.8448 150.519 49.0174C150.423 49.19 150.377 49.3828 150.379 49.5959C150.379 49.8111 150.426 50.005 150.519 50.1776C150.615 50.348 150.745 50.4844 150.909 50.5866C151.075 50.6868 151.265 50.7369 151.478 50.7369C151.638 50.7369 151.786 50.707 151.922 50.6474C152.059 50.5877 152.177 50.5057 152.277 50.4013C152.379 50.2947 152.459 50.1722 152.517 50.0337C152.574 49.8952 152.603 49.7482 152.603 49.5927C152.601 49.386 152.552 49.1964 152.456 49.0238C152.36 48.8512 152.228 48.7127 152.06 48.6083C151.891 48.5039 151.702 48.4517 151.491 48.4517Z" fill="white"/>
</g>
<rect x="140" y="42" width="18" height="18" rx="5" stroke="white" stroke-width="2"/>
<g clip-path="url(#clip10_343_235)">
<rect x="15" y="123" width="16" height="16" rx="4" fill="#5F8098"/>
<path d="M16.7596 134V128.182H17.9897V132.986H20.484V134H16.7596ZM21.2646 134V133.114L23.3356 131.196C23.5117 131.026 23.6594 130.872 23.7788 130.736C23.9 130.599 23.9918 130.466 24.0543 130.335C24.1168 130.203 24.1481 130.06 24.1481 129.906C24.1481 129.736 24.1093 129.589 24.0316 129.466C23.954 129.341 23.8479 129.245 23.7134 129.179C23.579 129.111 23.4265 129.077 23.256 129.077C23.078 129.077 22.9227 129.113 22.7901 129.185C22.6576 129.257 22.5553 129.36 22.4833 129.494C22.4113 129.629 22.3754 129.789 22.3754 129.974H21.2077C21.2077 129.594 21.2939 129.263 21.4663 128.983C21.6386 128.703 21.8801 128.486 22.1907 128.332C22.5013 128.179 22.8593 128.102 23.2646 128.102C23.6812 128.102 24.0439 128.176 24.3526 128.324C24.6632 128.47 24.9047 128.672 25.0771 128.932C25.2494 129.191 25.3356 129.489 25.3356 129.824C25.3356 130.044 25.292 130.26 25.2049 130.474C25.1197 130.688 24.9672 130.926 24.7475 131.188C24.5278 131.447 24.2182 131.759 23.8185 132.122L22.9691 132.955V132.994H25.4123V134H21.2646ZM28.8349 128.182V134H27.6048V129.349H27.5707L26.2383 130.185V129.094L27.6786 128.182H28.8349Z" fill="white"/>
</g>
<rect x="14" y="122" width="18" height="18" rx="5" stroke="white" stroke-width="2"/>
<g clip-path="url(#clip11_343_235)">
<rect x="35" y="123" width="16" height="16" rx="4" fill="#809CB1"/>
<path d="M36.1971 134V128.182H37.4272V132.986H39.9215V134H36.1971ZM40.7021 134V133.114L42.7731 131.196C42.9492 131.026 43.0969 130.872 43.2163 130.736C43.3375 130.599 43.4293 130.466 43.4918 130.335C43.5543 130.203 43.5856 130.06 43.5856 129.906C43.5856 129.736 43.5468 129.589 43.4691 129.466C43.3915 129.341 43.2854 129.245 43.1509 129.179C43.0165 129.111 42.864 129.077 42.6935 129.077C42.5155 129.077 42.3602 129.113 42.2276 129.185C42.0951 129.257 41.9928 129.36 41.9208 129.494C41.8488 129.629 41.8129 129.789 41.8129 129.974H40.6452C40.6452 129.594 40.7314 129.263 40.9038 128.983C41.0761 128.703 41.3176 128.486 41.6282 128.332C41.9388 128.179 42.2968 128.102 42.7021 128.102C43.1187 128.102 43.4814 128.176 43.7901 128.324C44.1007 128.47 44.3422 128.672 44.5146 128.932C44.6869 129.191 44.7731 129.489 44.7731 129.824C44.7731 130.044 44.7295 130.26 44.6424 130.474C44.5572 130.688 44.4047 130.926 44.185 131.188C43.9653 131.447 43.6557 131.759 43.256 132.122L42.4066 132.955V132.994H44.8498V134H40.7021ZM45.7411 134V133.114L47.8121 131.196C47.9883 131.026 48.136 130.872 48.2553 130.736C48.3765 130.599 48.4684 130.466 48.5309 130.335C48.5934 130.203 48.6246 130.06 48.6246 129.906C48.6246 129.736 48.5858 129.589 48.5082 129.466C48.4305 129.341 48.3245 129.245 48.19 129.179C48.0555 129.111 47.9031 129.077 47.7326 129.077C47.5546 129.077 47.3993 129.113 47.2667 129.185C47.1341 129.257 47.0318 129.36 46.9599 129.494C46.8879 129.629 46.8519 129.789 46.8519 129.974H45.6843C45.6843 129.594 45.7705 129.263 45.9428 128.983C46.1152 128.703 46.3567 128.486 46.6673 128.332C46.9779 128.179 47.3358 128.102 47.7411 128.102C48.1578 128.102 48.5205 128.176 48.8292 128.324C49.1398 128.47 49.3813 128.672 49.5536 128.932C49.726 129.191 49.8121 129.489 49.8121 129.824C49.8121 130.044 49.7686 130.26 49.6815 130.474C49.5962 130.688 49.4438 130.926 49.2241 131.188C49.0044 131.447 48.6947 131.759 48.2951 132.122L47.4457 132.955V132.994H49.8888V134H45.7411Z" fill="white"/>
</g>
<rect x="34" y="122" width="18" height="18" rx="5" stroke="white" stroke-width="2"/>
<rect x="14" y="82" width="18" height="18" rx="5" fill="#B1B1B1"/>
<rect x="14" y="82" width="18" height="18" rx="5" stroke="white" stroke-width="2"/>
<path d="M16.1697 94V88.1818H18.4652C18.9046 88.1818 19.2796 88.2604 19.5902 88.4176C19.9027 88.5729 20.1404 88.7936 20.3033 89.0795C20.468 89.3636 20.5504 89.6979 20.5504 90.0824C20.5504 90.4687 20.4671 90.8011 20.3004 91.0795C20.1338 91.3561 19.8923 91.5682 19.576 91.7159C19.2616 91.8636 18.8809 91.9375 18.4339 91.9375H16.897V90.9489H18.2351C18.4699 90.9489 18.665 90.9167 18.8203 90.8523C18.9756 90.7879 19.0911 90.6913 19.1669 90.5625C19.2446 90.4337 19.2834 90.2737 19.2834 90.0824C19.2834 89.8892 19.2446 89.7263 19.1669 89.5938C19.0911 89.4612 18.9747 89.3608 18.8175 89.2926C18.6622 89.2225 18.4661 89.1875 18.2294 89.1875H17.3999V94H16.1697ZM19.3118 91.3523L20.7578 94H19.3999L17.9851 91.3523H19.3118ZM23.9169 88.1818V94H22.6868V89.3494H22.6527L21.3203 90.1847V89.0938L22.7607 88.1818H23.9169ZM27.581 94.1278C27.0923 94.1259 26.6719 94.0057 26.3196 93.767C25.9692 93.5284 25.6993 93.1828 25.5099 92.7301C25.3224 92.2775 25.2296 91.733 25.2315 91.0966C25.2315 90.4621 25.3253 89.9214 25.5128 89.4744C25.7022 89.0275 25.9721 88.6875 26.3224 88.4545C26.6747 88.2197 27.0942 88.1023 27.581 88.1023C28.0677 88.1023 28.4863 88.2197 28.8366 88.4545C29.1889 88.6894 29.4598 89.0303 29.6491 89.4773C29.8385 89.9223 29.9323 90.4621 29.9304 91.0966C29.9304 91.7348 29.8357 92.2803 29.6463 92.733C29.4588 93.1856 29.1899 93.5312 28.8395 93.7699C28.4891 94.0085 28.0696 94.1278 27.581 94.1278ZM27.581 93.108C27.9143 93.108 28.1804 92.9403 28.3793 92.6051C28.5781 92.2699 28.6766 91.767 28.6747 91.0966C28.6747 90.6553 28.6293 90.2879 28.5384 89.9943C28.4493 89.7008 28.3224 89.4801 28.1577 89.3324C27.9948 89.1847 27.8026 89.1108 27.581 89.1108C27.2495 89.1108 26.9844 89.2765 26.7855 89.608C26.5866 89.9394 26.4863 90.4356 26.4844 91.0966C26.4844 91.5436 26.5289 91.9167 26.6179 92.2159C26.7088 92.5133 26.8366 92.7367 27.0014 92.8864C27.1662 93.0341 27.3594 93.108 27.581 93.108Z" fill="white"/>
<rect x="35" y="82" width="18" height="18" rx="5" fill="#FF9431"/>
<rect x="35" y="82" width="18" height="18" rx="5" stroke="white" stroke-width="2"/>
<path d="M37.9666 94V88.1818H40.2621C40.7015 88.1818 41.0765 88.2604 41.3871 88.4176C41.6996 88.5729 41.9373 88.7936 42.1001 89.0795C42.2649 89.3636 42.3473 89.6979 42.3473 90.0824C42.3473 90.4687 42.264 90.8011 42.0973 91.0795C41.9306 91.3561 41.6892 91.5682 41.3729 91.7159C41.0585 91.8636 40.6778 91.9375 40.2308 91.9375H38.6939V90.9489H40.032C40.2668 90.9489 40.4619 90.9167 40.6172 90.8523C40.7725 90.7879 40.888 90.6913 40.9638 90.5625C41.0414 90.4337 41.0803 90.2737 41.0803 90.0824C41.0803 89.8892 41.0414 89.7263 40.9638 89.5938C40.888 89.4612 40.7715 89.3608 40.6143 89.2926C40.459 89.2225 40.263 89.1875 40.0263 89.1875H39.1967V94H37.9666ZM41.1087 91.3523L42.5547 94H41.1967L39.782 91.3523H41.1087ZM45.7138 88.1818V94H44.4837V89.3494H44.4496L43.1172 90.1847V89.0938L44.5575 88.1818H45.7138ZM49.6278 88.1818V94H48.3977V89.3494H48.3636L47.0312 90.1847V89.0938L48.4716 88.1818H49.6278Z" fill="white"/>
<rect x="56" y="82" width="18" height="18" rx="5" fill="#FF8AFA"/>
<rect x="56" y="82" width="18" height="18" rx="5" stroke="white" stroke-width="2"/>
<path d="M58.4041 94V88.1818H60.6996C61.139 88.1818 61.514 88.2604 61.8246 88.4176C62.1371 88.5729 62.3748 88.7936 62.5376 89.0795C62.7024 89.3636 62.7848 89.6979 62.7848 90.0824C62.7848 90.4687 62.7015 90.8011 62.5348 91.0795C62.3681 91.3561 62.1267 91.5682 61.8104 91.7159C61.496 91.8636 61.1153 91.9375 60.6683 91.9375H59.1314V90.9489H60.4695C60.7043 90.9489 60.8994 90.9167 61.0547 90.8523C61.21 90.7879 61.3255 90.6913 61.4013 90.5625C61.4789 90.4337 61.5178 90.2737 61.5178 90.0824C61.5178 89.8892 61.4789 89.7263 61.4013 89.5938C61.3255 89.4612 61.209 89.3608 61.0518 89.2926C60.8965 89.2225 60.7005 89.1875 60.4638 89.1875H59.6342V94H58.4041ZM61.5462 91.3523L62.9922 94H61.6342L60.2195 91.3523H61.5462ZM66.1513 88.1818V94H64.9212V89.3494H64.8871L63.5547 90.1847V89.0938L64.995 88.1818H66.1513ZM67.5341 94V93.1136L69.6051 91.196C69.7813 91.0256 69.929 90.8722 70.0483 90.7358C70.1695 90.5994 70.2614 90.4659 70.3239 90.3352C70.3864 90.2027 70.4176 90.0597 70.4176 89.9062C70.4176 89.7358 70.3788 89.589 70.3011 89.4659C70.2235 89.3409 70.1174 89.2453 69.983 89.179C69.8485 89.1108 69.696 89.0767 69.5256 89.0767C69.3475 89.0767 69.1922 89.1127 69.0597 89.1847C68.9271 89.2566 68.8248 89.3598 68.7528 89.4943C68.6809 89.6288 68.6449 89.7888 68.6449 89.9744H67.4773C67.4773 89.5937 67.5634 89.2633 67.7358 88.983C67.9081 88.7027 68.1496 88.4858 68.4602 88.3324C68.7708 88.179 69.1288 88.1023 69.5341 88.1023C69.9508 88.1023 70.3134 88.1761 70.6222 88.3239C70.9328 88.4697 71.1742 88.6723 71.3466 88.9318C71.5189 89.1913 71.6051 89.4886 71.6051 89.8239C71.6051 90.0436 71.5616 90.2604 71.4744 90.4744C71.3892 90.6884 71.2367 90.9261 71.017 91.1875C70.7973 91.447 70.4877 91.7585 70.0881 92.1222L69.2386 92.9545V92.9943H71.6818V94H67.5341Z" fill="white"/>
<rect x="77" y="82" width="18" height="18" rx="5" fill="#FFC42E"/>
<rect x="77" y="82" width="18" height="18" rx="5" stroke="white" stroke-width="2"/>
<path d="M79.2869 94V88.1818H81.5824C82.0218 88.1818 82.3968 88.2604 82.7074 88.4176C83.0199 88.5729 83.2576 88.7936 83.4205 89.0795C83.5852 89.3636 83.6676 89.6979 83.6676 90.0824C83.6676 90.4687 83.5843 90.8011 83.4176 91.0795C83.2509 91.3561 83.0095 91.5682 82.6932 91.7159C82.3788 91.8636 81.9981 91.9375 81.5511 91.9375H80.0142V90.9489H81.3523C81.5871 90.9489 81.7822 90.9167 81.9375 90.8523C82.0928 90.7879 82.2083 90.6913 82.2841 90.5625C82.3617 90.4337 82.4006 90.2737 82.4006 90.0824C82.4006 89.8892 82.3617 89.7263 82.2841 89.5938C82.2083 89.4612 82.0919 89.3608 81.9347 89.2926C81.7794 89.2225 81.5833 89.1875 81.3466 89.1875H80.517V94H79.2869ZM82.429 91.3523L83.875 94H82.517L81.1023 91.3523H82.429ZM87.0341 88.1818V94H85.804V89.3494H85.7699L84.4375 90.1847V89.0938L85.8778 88.1818H87.0341ZM90.5675 94.0795C90.1432 94.0795 89.7654 94.0066 89.4339 93.8608C89.1044 93.7131 88.844 93.5104 88.6527 93.2528C88.4633 92.9934 88.3658 92.6941 88.3601 92.3551H89.5987C89.6063 92.4972 89.6527 92.6222 89.7379 92.7301C89.825 92.8362 89.9406 92.9186 90.0845 92.9773C90.2285 93.036 90.3904 93.0653 90.5703 93.0653C90.7578 93.0653 90.9235 93.0322 91.0675 92.9659C91.2114 92.8996 91.3241 92.8078 91.4055 92.6903C91.487 92.5729 91.5277 92.4375 91.5277 92.2841C91.5277 92.1288 91.4841 91.9915 91.397 91.8722C91.3118 91.7509 91.1887 91.6562 91.0277 91.5881C90.8686 91.5199 90.6792 91.4858 90.4595 91.4858H89.9169V90.5824H90.4595C90.6451 90.5824 90.8089 90.5502 90.951 90.4858C91.0949 90.4214 91.2067 90.3324 91.2862 90.2188C91.3658 90.1032 91.4055 89.9688 91.4055 89.8153C91.4055 89.6695 91.3705 89.5417 91.3004 89.4318C91.2322 89.3201 91.1357 89.233 91.0107 89.1705C90.8875 89.108 90.7436 89.0767 90.5788 89.0767C90.4122 89.0767 90.2597 89.107 90.1214 89.1676C89.9832 89.2263 89.8724 89.3106 89.7891 89.4205C89.7057 89.5303 89.6612 89.6591 89.6555 89.8068H88.4766C88.4822 89.4716 88.5779 89.1761 88.7635 88.9205C88.9491 88.6648 89.1991 88.465 89.5135 88.321C89.8298 88.1752 90.1868 88.1023 90.5845 88.1023C90.986 88.1023 91.3374 88.1752 91.6385 88.321C91.9396 88.4669 92.1735 88.6638 92.3402 88.9119C92.5088 89.1581 92.5921 89.4347 92.5902 89.7415C92.5921 90.0672 92.4908 90.339 92.2862 90.5568C92.0836 90.7746 91.8194 90.9129 91.4936 90.9716V91.017C91.9216 91.072 92.2474 91.2206 92.4709 91.4631C92.6963 91.7036 92.808 92.0047 92.8061 92.3665C92.808 92.6979 92.7124 92.9924 92.5192 93.25C92.3279 93.5076 92.0637 93.7102 91.7266 93.858C91.3894 94.0057 91.0031 94.0795 90.5675 94.0795Z" fill="white"/>
<rect x="98" y="82" width="18" height="18" rx="5" fill="#59C3FF"/>
<rect x="98" y="82" width="18" height="18" rx="5" stroke="white" stroke-width="2"/>
<path d="M100.213 94V88.1818H102.508C102.948 88.1818 103.323 88.2604 103.633 88.4176C103.946 88.5729 104.183 88.7936 104.346 89.0795C104.511 89.3636 104.593 89.6979 104.593 90.0824C104.593 90.4687 104.51 90.8011 104.343 91.0795C104.177 91.3561 103.935 91.5682 103.619 91.7159C103.305 91.8636 102.924 91.9375 102.477 91.9375H100.94V90.9489H102.278C102.513 90.9489 102.708 90.9167 102.863 90.8523C103.019 90.7879 103.134 90.6913 103.21 90.5625C103.288 90.4337 103.326 90.2737 103.326 90.0824C103.326 89.8892 103.288 89.7263 103.21 89.5938C103.134 89.4612 103.018 89.3608 102.86 89.2926C102.705 89.2225 102.509 89.1875 102.272 89.1875H101.443V94H100.213ZM103.355 91.3523L104.801 94H103.443L102.028 91.3523H103.355ZM107.96 88.1818V94H106.73V89.3494H106.696L105.363 90.1847V89.0938L106.804 88.1818H107.96ZM109.255 92.9773V92.0085L111.684 88.1818H112.519V89.5227H112.025L110.493 91.946V91.9915H113.945V92.9773H109.255ZM112.047 94V92.6818L112.07 92.2528V88.1818H113.223V94H112.047Z" fill="white"/>
<path fill-rule="evenodd" clip-rule="evenodd" d="M16 14.4494C16 14.2012 16.2064 14 16.4609 14H26.8326C27.0872 14 27.2935 14.2012 27.2935 14.4494C27.2935 14.6977 27.0872 14.8989 26.8326 14.8989H22.7601L22.7957 14.9335C23.1921 15.3197 23.1921 15.9462 22.7957 16.3324L22.7601 16.367H26.6522C26.8899 16.367 27.1179 16.4591 27.286 16.6229L30.2125 19.4743C30.4973 19.7518 30.6573 20.1282 30.6573 20.5207C30.6573 21.3377 29.9781 22 29.1402 22H21.4132C21.1586 22 20.9522 21.7988 20.9522 21.5506C20.9522 21.3023 21.1586 21.1011 21.4132 21.1011H29.1402C29.469 21.1011 29.7355 20.8413 29.7355 20.5207C29.7355 20.3667 29.6727 20.219 29.561 20.1102L26.6418 17.2659H16.4609C16.2064 17.2659 16 17.0647 16 16.8165C16 16.5683 16.2064 16.367 16.4609 16.367H21.4559L22.1441 15.6965C22.1801 15.6614 22.1801 15.6045 22.1441 15.5694L21.4559 14.8989H16.4609C16.2064 14.8989 16 14.6977 16 14.4494Z" fill="#6D6B65"/>
<path d="M37.6633 15.0772C38.202 15.0772 38.6615 15.1685 39.0417 15.3511V16.6404L39.0331 16.6489C38.8718 16.4073 38.5319 16.2472 38.0133 16.1685C37.8606 16.1433 37.6676 16.1306 37.4343 16.1306C37.2009 16.1306 36.9719 16.1742 36.7472 16.2612C36.5225 16.3455 36.3382 16.4663 36.1941 16.6236C35.9147 16.9298 35.775 17.3666 35.775 17.934C35.775 18.5941 35.9521 19.0857 36.3065 19.4087C36.6003 19.6784 36.9892 19.8132 37.4732 19.8132C38.0205 19.8132 38.4642 19.6994 38.8041 19.4719C38.928 19.3904 39.0331 19.2893 39.1195 19.1685L39.1325 19.177V20.3567C38.6917 20.7135 38.0983 20.8919 37.3522 20.8919C36.4736 20.8919 35.7851 20.6194 35.2867 20.0744C34.8085 19.5548 34.5694 18.8666 34.5694 18.0098C34.5694 17.1025 34.8315 16.3876 35.3558 15.8652C35.8859 15.3399 36.655 15.0772 37.6633 15.0772Z" fill="#6D6B65"/>
<path d="M39.8973 18.6208C39.8973 18.2921 39.955 17.9874 40.0702 17.7065C40.1854 17.4256 40.3482 17.1798 40.5585 16.9691C41.0079 16.5225 41.5955 16.2992 42.3215 16.2992C42.9351 16.2992 43.4277 16.4972 43.7993 16.8933C44.1652 17.2753 44.3481 17.7556 44.3481 18.3343C44.3481 18.5562 44.3308 18.7079 44.2963 18.7893C44.0082 18.868 43.4219 18.9073 42.5376 18.9073H41.0165C41.0914 19.2079 41.2657 19.4424 41.5394 19.611C41.813 19.7767 42.1688 19.8596 42.6067 19.8596C43.0647 19.8596 43.458 19.7795 43.7864 19.6194C43.8728 19.5772 43.9376 19.5379 43.9808 19.5014C43.975 19.6194 43.9678 19.7402 43.9592 19.8638L43.9117 20.5211C43.6927 20.6671 43.3384 20.7683 42.8487 20.8244C42.7046 20.8413 42.5664 20.8497 42.4338 20.8497C41.7021 20.8497 41.0972 20.6419 40.619 20.2261C40.1379 19.8076 39.8973 19.2725 39.8973 18.6208ZM43.1987 18.0899C43.0806 17.486 42.7435 17.184 42.1875 17.184C41.7497 17.184 41.4169 17.368 41.1894 17.736C41.1202 17.8483 41.0669 17.9719 41.0295 18.1067C41.0986 18.1096 41.1836 18.1124 41.2844 18.1152H41.6042C41.7108 18.118 41.813 18.1194 41.911 18.1194H42.1573C42.3042 18.1194 42.4482 18.118 42.5894 18.1152L42.9437 18.1025C43.0388 18.0997 43.1238 18.0955 43.1987 18.0899Z" fill="#6D6B65"/>
<path d="M46.4266 20.2472C46.4266 20.4944 46.4381 20.6742 46.4611 20.7865H45.3765V16.3834H46.4266V16.7584C46.8068 16.4522 47.213 16.2992 47.6451 16.2992C48.1176 16.2992 48.495 16.4565 48.7773 16.7711C49.0596 17.0829 49.2007 17.4944 49.2007 18.0056V19.6826C49.2007 20.1573 49.2079 20.4424 49.2224 20.5379C49.2368 20.6334 49.2555 20.6952 49.2785 20.7233C49.3045 20.7514 49.3261 20.7767 49.3433 20.7992L49.3347 20.816C49.1014 20.7963 48.9314 20.7865 48.8248 20.7865H48.5223C48.4301 20.7865 48.3063 20.7907 48.1507 20.7992V18.5028C48.1507 17.6798 47.8943 17.2683 47.3815 17.2683C47.0013 17.2683 46.683 17.4593 46.4266 17.8413V20.2472Z" fill="#6D6B65"/>
<path d="M52.4718 19.8596C52.8435 19.8596 53.0984 19.7654 53.2367 19.5772H53.2713L53.2842 20.5548C53.1431 20.6924 52.8809 20.7837 52.4978 20.8287C52.3941 20.8427 52.2644 20.8497 52.1089 20.8497C51.9562 20.8497 51.7891 20.8216 51.6076 20.7654C51.429 20.7093 51.2763 20.618 51.1496 20.4916C50.8874 20.2303 50.7564 19.8216 50.7564 19.2654V17.3525H50.1039C50.101 17.2711 50.0995 17.1882 50.0995 17.1039V16.4551C50.0995 16.4073 50.101 16.3834 50.1039 16.3834H50.7564V15.1826H51.815V16.3834H53.0033V17.3525H51.815V19.0716C51.815 19.5126 51.9403 19.764 52.191 19.8258C52.2716 19.8483 52.3653 19.8596 52.4718 19.8596Z" fill="#6D6B65"/>
<path d="M55.1855 20.3146C55.1855 20.5562 55.1913 20.7135 55.2028 20.7865H54.1268V16.3834H55.1855V16.7079C55.4304 16.4354 55.6868 16.2992 55.9547 16.2992C56.2255 16.2992 56.4387 16.3315 56.5942 16.3961L56.5164 17.5295L56.4991 17.5421C56.3983 17.368 56.1895 17.2809 55.8726 17.2809C55.7516 17.2809 55.6277 17.3216 55.501 17.4031C55.3771 17.4817 55.2719 17.5871 55.1855 17.7191V20.3146Z" fill="#6D6B65"/>
<path d="M60.103 20.5253C59.6939 20.7416 59.3237 20.8497 58.9924 20.8497C58.6612 20.8497 58.3774 20.8202 58.1412 20.7612C57.905 20.6994 57.7047 20.6096 57.5405 20.4916C57.2064 20.2528 57.0393 19.9073 57.0393 19.4551C57.0393 19.0506 57.2438 18.7135 57.6529 18.4438C58.0965 18.1517 58.6986 18.0056 59.4591 18.0056L59.632 18.0098C59.6665 18.0126 59.7054 18.0154 59.7486 18.0183C59.7919 18.0183 59.8307 18.0211 59.8653 18.0267C59.8423 17.5772 59.6435 17.3146 59.269 17.2388C59.1451 17.2135 59.0126 17.2008 58.8715 17.2008C58.7332 17.2008 58.5963 17.2135 58.4609 17.2388C58.3284 17.2612 58.1988 17.2921 58.072 17.3315C57.7926 17.4185 57.5924 17.5183 57.4714 17.6306L57.4584 17.6222L57.3288 16.691C57.8387 16.4298 58.3961 16.2992 59.0011 16.2992C59.9402 16.2992 60.5409 16.6292 60.803 17.2893C60.8865 17.5 60.9283 17.7374 60.9283 18.0014V19.5267C60.9283 19.8525 61.0464 20.0744 61.2826 20.1924L60.5005 20.8919C60.3363 20.8076 60.2038 20.6854 60.103 20.5253ZM59.8696 18.7851C59.7919 18.7711 59.7112 18.764 59.6277 18.764H59.4548C58.8182 18.764 58.4134 18.9017 58.2406 19.177C58.1887 19.2584 58.1628 19.3441 58.1628 19.434C58.1628 19.5239 58.1786 19.6039 58.2103 19.6742C58.2449 19.7416 58.3011 19.7978 58.3788 19.8427C58.5286 19.927 58.7505 19.9691 59.0443 19.9691C59.341 19.9691 59.6176 19.9003 59.874 19.7626C59.8711 19.7317 59.8696 19.6994 59.8696 19.6657V18.7851Z" fill="#6D6B65"/>
<path d="M63.2833 20.3146C63.2833 20.5562 63.2891 20.7135 63.3006 20.7865H62.2031V14.5084H63.2833V20.3146Z" fill="#6D6B65"/>
<path d="M69.4064 18.6081C69.32 18.6138 69.2278 18.6166 69.1298 18.6166C69.0319 18.6166 68.8864 18.6096 68.6934 18.5955V20.7865H67.5483V15.1531C67.9516 15.1025 68.4471 15.0772 69.0348 15.0772C69.8356 15.0772 70.4319 15.2219 70.8237 15.5112C71.2184 15.7978 71.4157 16.2416 71.4157 16.8427C71.4157 17.309 71.2357 17.7079 70.8756 18.0393C70.7575 18.1461 70.6221 18.2388 70.4694 18.3174L71.3509 20.1292C71.5237 20.5028 71.6563 20.7247 71.7484 20.7949L71.7268 20.816C71.4474 20.7711 71.0081 20.7725 70.4089 20.8202L69.4064 18.6081ZM69.1169 16.0716C68.97 16.0716 68.8288 16.0787 68.6934 16.0927V17.7022C68.8346 17.7219 69.0002 17.7317 69.1903 17.7317C69.3805 17.7317 69.5403 17.7163 69.67 17.6854C69.7996 17.6517 69.912 17.6011 70.007 17.5337C70.2116 17.3848 70.3138 17.1615 70.3138 16.8638C70.3138 16.566 70.2072 16.3567 69.9941 16.236C69.7953 16.1264 69.5029 16.0716 69.1169 16.0716Z" fill="#6D6B65"/>
<path d="M75.5813 20.5253C75.1722 20.7416 74.802 20.8497 74.4708 20.8497C74.1395 20.8497 73.8557 20.8202 73.6195 20.7612C73.3833 20.6994 73.1831 20.6096 73.0189 20.4916C72.6847 20.2528 72.5176 19.9073 72.5176 19.4551C72.5176 19.0506 72.7221 18.7135 73.1312 18.4438C73.5748 18.1517 74.1769 18.0056 74.9374 18.0056L75.1103 18.0098C75.1449 18.0126 75.1837 18.0154 75.227 18.0183C75.2702 18.0183 75.3091 18.0211 75.3436 18.0267C75.3206 17.5772 75.1218 17.3146 74.7473 17.2388C74.6234 17.2135 74.4909 17.2008 74.3498 17.2008C74.2115 17.2008 74.0747 17.2135 73.9393 17.2388C73.8067 17.2612 73.6771 17.2921 73.5504 17.3315C73.2709 17.4185 73.0707 17.5183 72.9497 17.6306L72.9368 17.6222L72.8071 16.691C73.317 16.4298 73.8744 16.2992 74.4794 16.2992C75.4185 16.2992 76.0192 16.6292 76.2813 17.2893C76.3649 17.5 76.4066 17.7374 76.4066 18.0014V19.5267C76.4066 19.8525 76.5247 20.0744 76.761 20.1924L75.9788 20.8919C75.8146 20.8076 75.6821 20.6854 75.5813 20.5253ZM75.348 18.7851C75.2702 18.7711 75.1895 18.764 75.106 18.764H74.9331C74.2965 18.764 73.8917 18.9017 73.7189 19.177C73.667 19.2584 73.6411 19.3441 73.6411 19.434C73.6411 19.5239 73.6569 19.6039 73.6886 19.6742C73.7232 19.7416 73.7794 19.7978 73.8572 19.8427C74.007 19.927 74.2288 19.9691 74.5226 19.9691C74.8193 19.9691 75.0959 19.9003 75.3523 19.7626C75.3494 19.7317 75.348 19.6994 75.348 19.6657V18.7851Z" fill="#6D6B65"/>
<path d="M77.6209 15.1278C77.8513 14.7767 78.0919 14.4677 78.3425 14.2008L79.2715 14.9129C79.1477 15.0618 79.0324 15.2079 78.9259 15.3511C78.9259 15.3511 78.8149 15.5042 78.5931 15.8104L77.6209 15.1278ZM78.7573 20.3146C78.7573 20.5562 78.7631 20.7135 78.7746 20.7865H77.677V16.3834H78.7573V20.3146Z" fill="#6D6B65"/>
<path d="M80.9827 20.3146C80.9827 20.5562 80.9885 20.7135 81 20.7865H79.9024V14.5084H80.9827V20.3146Z" fill="#6D6B65"/>
<defs>
<clipPath id="clip0_343_235">
<rect x="15" y="43" width="16" height="16" rx="4" fill="white"/>
</clipPath>
<clipPath id="clip1_343_235">
<rect x="78" y="43" width="16" height="16" rx="4" fill="white"/>
</clipPath>
<clipPath id="clip2_343_235">
<rect x="56" y="123" width="16" height="16" rx="4" fill="white"/>
</clipPath>
<clipPath id="clip3_343_235">
<rect x="99" y="123" width="16" height="16" rx="4" fill="white"/>
</clipPath>
<clipPath id="clip4_343_235">
<rect x="36" y="43" width="16" height="16" rx="4" fill="white"/>
</clipPath>
<clipPath id="clip5_343_235">
<rect x="57" y="43" width="16" height="16" rx="4" fill="white"/>
</clipPath>
<clipPath id="clip6_343_235">
<rect x="77" y="123" width="16" height="16" rx="4" fill="white"/>
</clipPath>
<clipPath id="clip7_343_235">
<rect x="99" y="43" width="16" height="16" rx="4" fill="white"/>
</clipPath>
<clipPath id="clip8_343_235">
<rect x="120" y="43" width="16" height="16" rx="4" fill="white"/>
</clipPath>
<clipPath id="clip9_343_235">
<rect x="141" y="43" width="16" height="16" rx="4" fill="white"/>
</clipPath>
<clipPath id="clip10_343_235">
<rect x="15" y="123" width="16" height="16" rx="4" fill="white"/>
</clipPath>
<clipPath id="clip11_343_235">
<rect x="35" y="123" width="16" height="16" rx="4" fill="white"/>
</clipPath>
</defs>
</svg>
