<?xml version="1.0" encoding="utf-8"?>
<svg viewBox="57.945 122.948 16.128 16.117" fill="none" xmlns="http://www.w3.org/2000/svg">
  <defs>
    <clipPath id="clip2_266_55">
      <rect x="58" y="123" width="16" height="16" rx="4" fill="white"/>
    </clipPath>
  </defs>
  <g clip-path="url(#clip2_266_55)">
    <rect x="58" y="123" width="16" height="16" rx="4" fill="#5F8098"/>
    <path d="M59.0799 134V128.182H60.31V132.986H62.8043V134H59.0799ZM63.5849 134V133.114L65.6559 131.196C65.832 131.026 65.9798 130.872 66.0991 130.736C66.2203 130.599 66.3121 130.466 66.3746 130.335C66.4371 130.203 66.4684 130.06 66.4684 129.906C66.4684 129.736 66.4296 129.589 66.3519 129.466C66.2743 129.341 66.1682 129.245 66.0337 129.179C65.8993 129.111 65.7468 129.077 65.5763 129.077C65.3983 129.077 65.243 129.113 65.1104 129.185C64.9779 129.257 64.8756 129.36 64.8036 129.494C64.7317 129.629 64.6957 129.789 64.6957 129.974H63.5281C63.5281 129.594 63.6142 129.263 63.7866 128.983C63.9589 128.703 64.2004 128.486 64.511 128.332C64.8216 128.179 65.1796 128.102 65.5849 128.102C66.0015 128.102 66.3642 128.176 66.6729 128.324C66.9835 128.47 67.225 128.672 67.3974 128.932C67.5697 129.191 67.6559 129.489 67.6559 129.824C67.6559 130.044 67.6123 130.26 67.5252 130.474C67.44 130.688 67.2875 130.926 67.0678 131.188C66.8481 131.447 66.5385 131.759 66.1388 132.122L65.2894 132.955V132.994H67.7326V134H63.5849ZM70.7745 134.08C70.3503 134.08 69.9724 134.007 69.641 133.861C69.3114 133.713 69.051 133.51 68.8597 133.253C68.6703 132.993 68.5728 132.694 68.5671 132.355H69.8058C69.8133 132.497 69.8597 132.622 69.945 132.73C70.0321 132.836 70.1476 132.919 70.2915 132.977C70.4355 133.036 70.5974 133.065 70.7773 133.065C70.9648 133.065 71.1306 133.032 71.2745 132.966C71.4184 132.9 71.5311 132.808 71.6126 132.69C71.694 132.573 71.7347 132.437 71.7347 132.284C71.7347 132.129 71.6912 131.991 71.604 131.872C71.5188 131.751 71.3957 131.656 71.2347 131.588C71.0756 131.52 70.8862 131.486 70.6665 131.486H70.1239V130.582H70.6665C70.8522 130.582 71.016 130.55 71.158 130.486C71.302 130.421 71.4137 130.332 71.4933 130.219C71.5728 130.103 71.6126 129.969 71.6126 129.815C71.6126 129.67 71.5775 129.542 71.5075 129.432C71.4393 129.32 71.3427 129.233 71.2177 129.17C71.0946 129.108 70.9506 129.077 70.7859 129.077C70.6192 129.077 70.4667 129.107 70.3285 129.168C70.1902 129.226 70.0794 129.311 69.9961 129.42C69.9128 129.53 69.8683 129.659 69.8626 129.807H68.6836C68.6893 129.472 68.7849 129.176 68.9705 128.92C69.1561 128.665 69.4061 128.465 69.7205 128.321C70.0368 128.175 70.3938 128.102 70.7915 128.102C71.1931 128.102 71.5444 128.175 71.8455 128.321C72.1467 128.467 72.3806 128.664 72.5472 128.912C72.7158 129.158 72.7991 129.435 72.7972 129.741C72.7991 130.067 72.6978 130.339 72.4933 130.557C72.2906 130.775 72.0264 130.913 71.7006 130.972V131.017C72.1287 131.072 72.4544 131.221 72.6779 131.463C72.9033 131.704 73.015 132.005 73.0131 132.366C73.015 132.698 72.9194 132.992 72.7262 133.25C72.5349 133.508 72.2707 133.71 71.9336 133.858C71.5965 134.006 71.2101 134.08 70.7745 134.08Z" fill="white"/>
  </g>
</svg>