<?xml version="1.0" encoding="utf-8"?>
<svg viewBox="14.932 81.939 18.137 18.126" fill="none" xmlns="http://www.w3.org/2000/svg">
  <g transform="matrix(0.9999999999999999, 0, 0, 0.9999999999999999, 4.440892098500626e-16, 1.4210854715202004e-14)">
    <rect x="15" y="82" width="18" height="18" rx="5" fill="#FFC42E"/>
    <path d="M17.4041 94V88.1818H19.6996C20.139 88.1818 20.514 88.2604 20.8246 88.4176C21.1371 88.5729 21.3748 88.7936 21.5376 89.0795C21.7024 89.3636 21.7848 89.6979 21.7848 90.0824C21.7848 90.4687 21.7015 90.8011 21.5348 91.0795C21.3681 91.3561 21.1267 91.5682 20.8104 91.7159C20.496 91.8636 20.1153 91.9375 19.6683 91.9375H18.1314V90.9489H19.4695C19.7043 90.9489 19.8994 90.9167 20.0547 90.8523C20.21 90.7879 20.3255 90.6913 20.4013 90.5625C20.4789 90.4337 20.5178 90.2737 20.5178 90.0824C20.5178 89.8892 20.4789 89.7263 20.4013 89.5938C20.3255 89.4612 20.209 89.3608 20.0518 89.2926C19.8965 89.2225 19.7005 89.1875 19.4638 89.1875H18.6342V94H17.4041ZM20.5462 91.3523L21.9922 94H20.6342L19.2195 91.3523H20.5462ZM25.1513 88.1818V94H23.9212V89.3494H23.8871L22.5547 90.1847V89.0938L23.995 88.1818H25.1513ZM26.5341 94V93.1136L28.6051 91.196C28.7813 91.0256 28.929 90.8722 29.0483 90.7358C29.1695 90.5994 29.2614 90.4659 29.3239 90.3352C29.3864 90.2027 29.4176 90.0597 29.4176 89.9062C29.4176 89.7358 29.3788 89.589 29.3011 89.4659C29.2235 89.3409 29.1174 89.2453 28.983 89.179C28.8485 89.1108 28.696 89.0767 28.5256 89.0767C28.3475 89.0767 28.1922 89.1127 28.0597 89.1847C27.9271 89.2566 27.8248 89.3598 27.7528 89.4943C27.6809 89.6288 27.6449 89.7888 27.6449 89.9744H26.4773C26.4773 89.5937 26.5634 89.2633 26.7358 88.983C26.9081 88.7027 27.1496 88.4858 27.4602 88.3324C27.7708 88.179 28.1288 88.1023 28.5341 88.1023C28.9508 88.1023 29.3134 88.1761 29.6222 88.3239C29.9328 88.4697 30.1742 88.6723 30.3466 88.9318C30.5189 89.1913 30.6051 89.4886 30.6051 89.8239C30.6051 90.0436 30.5616 90.2604 30.4744 90.4744C30.3892 90.6884 30.2367 90.9261 30.017 91.1875C29.7973 91.447 29.4877 91.7585 29.0881 92.1222L28.2386 92.9545V92.9943H30.6818V94H26.5341Z" fill="white"/>
  </g>
</svg>