<?xml version="1.0" encoding="utf-8"?>
<svg viewBox="35.946 81.939 18.137 18.126" fill="none" xmlns="http://www.w3.org/2000/svg">
  <g transform="matrix(0.9999999999999999, 0, 0, 0.9999999999999999, 4.440892098500626e-16, 1.4210854715202004e-14)">
    <rect x="36" y="82" width="18" height="18" rx="5" fill="#FF8AFA"/>
    <path d="M38.2869 94V88.1818H40.5824C41.0218 88.1818 41.3968 88.2604 41.7074 88.4176C42.0199 88.5729 42.2576 88.7936 42.4205 89.0795C42.5852 89.3636 42.6676 89.6979 42.6676 90.0824C42.6676 90.4687 42.5843 90.8011 42.4176 91.0795C42.2509 91.3561 42.0095 91.5682 41.6932 91.7159C41.3788 91.8636 40.9981 91.9375 40.5511 91.9375H39.0142V90.9489H40.3523C40.5871 90.9489 40.7822 90.9167 40.9375 90.8523C41.0928 90.7879 41.2083 90.6913 41.2841 90.5625C41.3617 90.4337 41.4006 90.2737 41.4006 90.0824C41.4006 89.8892 41.3617 89.7263 41.2841 89.5938C41.2083 89.4612 41.0919 89.3608 40.9347 89.2926C40.7794 89.2225 40.5833 89.1875 40.3466 89.1875H39.517V94H38.2869ZM41.429 91.3523L42.875 94H41.517L40.1023 91.3523H41.429ZM46.0341 88.1818V94H44.804V89.3494H44.7699L43.4375 90.1847V89.0938L44.8778 88.1818H46.0341ZM49.5675 94.0795C49.1432 94.0795 48.7654 94.0066 48.4339 93.8608C48.1044 93.7131 47.844 93.5104 47.6527 93.2528C47.4633 92.9934 47.3658 92.6941 47.3601 92.3551H48.5987C48.6063 92.4972 48.6527 92.6222 48.7379 92.7301C48.825 92.8362 48.9406 92.9186 49.0845 92.9773C49.2285 93.036 49.3904 93.0653 49.5703 93.0653C49.7578 93.0653 49.9235 93.0322 50.0675 92.9659C50.2114 92.8996 50.3241 92.8078 50.4055 92.6903C50.487 92.5729 50.5277 92.4375 50.5277 92.2841C50.5277 92.1288 50.4841 91.9915 50.397 91.8722C50.3118 91.7509 50.1887 91.6562 50.0277 91.5881C49.8686 91.5199 49.6792 91.4858 49.4595 91.4858H48.9169V90.5824H49.4595C49.6451 90.5824 49.8089 90.5502 49.951 90.4858C50.0949 90.4214 50.2067 90.3324 50.2862 90.2188C50.3658 90.1032 50.4055 89.9688 50.4055 89.8153C50.4055 89.6695 50.3705 89.5417 50.3004 89.4318C50.2322 89.3201 50.1357 89.233 50.0107 89.1705C49.8875 89.108 49.7436 89.0767 49.5788 89.0767C49.4122 89.0767 49.2597 89.107 49.1214 89.1676C48.9832 89.2263 48.8724 89.3106 48.7891 89.4205C48.7057 89.5303 48.6612 89.6591 48.6555 89.8068H47.4766C47.4822 89.4716 47.5779 89.1761 47.7635 88.9205C47.9491 88.6648 48.1991 88.465 48.5135 88.321C48.8298 88.1752 49.1868 88.1023 49.5845 88.1023C49.986 88.1023 50.3374 88.1752 50.6385 88.321C50.9396 88.4669 51.1735 88.6638 51.3402 88.9119C51.5088 89.1581 51.5921 89.4347 51.5902 89.7415C51.5921 90.0672 51.4908 90.339 51.2862 90.5568C51.0836 90.7746 50.8194 90.9129 50.4936 90.9716V91.017C50.9216 91.072 51.2474 91.2206 51.4709 91.4631C51.6963 91.7036 51.808 92.0047 51.8061 92.3665C51.808 92.6979 51.7124 92.9924 51.5192 93.25C51.3279 93.5076 51.0637 93.7102 50.7266 93.858C50.3894 94.0057 50.0031 94.0795 49.5675 94.0795Z" fill="white"/>
  </g>
</svg>