<?xml version="1.0" encoding="utf-8"?>
<svg viewBox="56.916 81.939 18.137 18.126" fill="none" xmlns="http://www.w3.org/2000/svg">
  <g>
    <rect x="57" y="82" width="18" height="18" rx="5" fill="#8A7EE8"/>
    <path d="M59.2127 94V88.1818H61.5082C61.9476 88.1818 62.3226 88.2604 62.6332 88.4176C62.9457 88.5729 63.1834 88.7936 63.3462 89.0795C63.511 89.3636 63.5934 89.6979 63.5934 90.0824C63.5934 90.4687 63.5101 90.8011 63.3434 91.0795C63.1767 91.3561 62.9353 91.5682 62.619 91.7159C62.3046 91.8636 61.9239 91.9375 61.4769 91.9375H59.94V90.9489H61.2781C61.5129 90.9489 61.708 90.9167 61.8633 90.8523C62.0186 90.7879 62.1341 90.6913 62.2099 90.5625C62.2875 90.4337 62.3263 90.2737 62.3263 90.0824C62.3263 89.8892 62.2875 89.7263 62.2099 89.5938C62.1341 89.4612 62.0176 89.3608 61.8604 89.2926C61.7051 89.2225 61.5091 89.1875 61.2724 89.1875H60.4428V94H59.2127ZM62.3548 91.3523L63.8008 94H62.4428L61.0281 91.3523H62.3548ZM66.9599 88.1818V94H65.7298V89.3494H65.6957L64.3633 90.1847V89.0938L65.8036 88.1818H66.9599ZM68.2546 92.9773V92.0085L70.6836 88.1818H71.5188V89.5227H71.0245L69.4933 91.946V91.9915H72.945V92.9773H68.2546ZM71.0472 94V92.6818L71.07 92.2528V88.1818H72.2234V94H71.0472Z" fill="white"/>
  </g>
</svg>