<svg width="171" height="71" viewBox="0 0 171 71" fill="none" xmlns="http://www.w3.org/2000/svg">
<rect x="0.5" y="0.5" width="170" height="70" rx="5.5" fill="white"/>
<rect x="0.5" y="0.5" width="170" height="70" rx="5.5" stroke="#E0DDD0"/>
<path d="M13.9588 36V27.2727H15.2756V31.0653H19.6264V27.2727H20.9474V36H19.6264V32.1946H15.2756V36H13.9588ZM22.7628 36V29.4545H24.0369V36H22.7628ZM23.4062 28.4446C23.1847 28.4446 22.9943 28.3707 22.8352 28.223C22.679 28.0724 22.6009 27.8935 22.6009 27.6861C22.6009 27.4759 22.679 27.2969 22.8352 27.1491C22.9943 26.9986 23.1847 26.9233 23.4062 26.9233C23.6278 26.9233 23.8168 26.9986 23.973 27.1491C24.1321 27.2969 24.2116 27.4759 24.2116 27.6861C24.2116 27.8935 24.1321 28.0724 23.973 28.223C23.8168 28.3707 23.6278 28.4446 23.4062 28.4446ZM28.4954 38.5909C27.9755 38.5909 27.5281 38.5227 27.1531 38.3864C26.7809 38.25 26.4769 38.0696 26.2411 37.8452C26.0053 37.6207 25.8292 37.375 25.7127 37.108L26.8079 36.6562C26.8846 36.7812 26.9869 36.9134 27.1147 37.0526C27.2454 37.1946 27.4215 37.3153 27.6431 37.4148C27.8675 37.5142 28.1559 37.5639 28.5082 37.5639C28.9911 37.5639 29.3903 37.446 29.7056 37.2102C30.021 36.9773 30.1786 36.6051 30.1786 36.0938V34.8068H30.0977C30.021 34.946 29.9102 35.1009 29.7653 35.2713C29.6232 35.4418 29.4272 35.5895 29.1772 35.7145C28.9272 35.8395 28.6019 35.902 28.2013 35.902C27.6843 35.902 27.2184 35.7812 26.8036 35.5398C26.3917 35.2955 26.065 34.9361 25.8235 34.4616C25.5849 33.9844 25.4656 33.3977 25.4656 32.7017C25.4656 32.0057 25.5835 31.4091 25.8192 30.9119C26.0579 30.4148 26.3846 30.0341 26.7994 29.7699C27.2141 29.5028 27.6843 29.3693 28.2099 29.3693C28.6161 29.3693 28.9442 29.4375 29.1942 29.5739C29.4442 29.7074 29.6388 29.8636 29.7781 30.0426C29.9201 30.2216 30.0295 30.3793 30.1062 30.5156H30.1999V29.4545H31.4485V36.1449C31.4485 36.7074 31.3178 37.169 31.0565 37.5298C30.7951 37.8906 30.4414 38.1577 29.9954 38.331C29.5522 38.5043 29.0522 38.5909 28.4954 38.5909ZM28.4826 34.8452C28.8491 34.8452 29.1587 34.7599 29.4116 34.5895C29.6673 34.4162 29.8604 34.169 29.9911 33.848C30.1246 33.5241 30.1914 33.1364 30.1914 32.6847C30.1914 32.2443 30.1261 31.8565 29.9954 31.5213C29.8647 31.1861 29.6729 30.9247 29.4201 30.7372C29.1673 30.5469 28.8548 30.4517 28.4826 30.4517C28.0991 30.4517 27.7795 30.5511 27.5238 30.75C27.2681 30.946 27.0749 31.2131 26.9442 31.5511C26.8164 31.8892 26.7525 32.267 26.7525 32.6847C26.7525 33.1136 26.8178 33.4901 26.9485 33.8139C27.0792 34.1378 27.2724 34.3906 27.5281 34.5724C27.7866 34.7543 28.1048 34.8452 28.4826 34.8452ZM34.4315 32.1136V36H33.1573V27.2727H34.4144V30.5199H34.4954C34.6488 30.1676 34.8832 29.8878 35.1985 29.6804C35.5138 29.473 35.9258 29.3693 36.4343 29.3693C36.8832 29.3693 37.2752 29.4616 37.6104 29.6463C37.9485 29.831 38.2099 30.1065 38.3945 30.473C38.582 30.8366 38.6758 31.2912 38.6758 31.8366V36H37.4016V31.9901C37.4016 31.5099 37.2781 31.1378 37.0309 30.8736C36.7837 30.6065 36.44 30.473 35.9996 30.473C35.6985 30.473 35.4286 30.5369 35.19 30.6648C34.9542 30.7926 34.7681 30.9801 34.6317 31.2273C34.4982 31.4716 34.4315 31.767 34.4315 32.1136ZM48.4141 29.5653C48.3686 29.1619 48.1811 28.8494 47.8516 28.6278C47.522 28.4034 47.1072 28.2912 46.6072 28.2912C46.2493 28.2912 45.9396 28.348 45.6783 28.4616C45.4169 28.5724 45.2138 28.7259 45.0689 28.9219C44.9268 29.1151 44.8558 29.3352 44.8558 29.5824C44.8558 29.7898 44.9041 29.9687 45.0007 30.1193C45.1001 30.2699 45.2294 30.3963 45.3885 30.4986C45.5504 30.598 45.7237 30.6818 45.9084 30.75C46.093 30.8153 46.2706 30.8693 46.4411 30.9119L47.2933 31.1335C47.5717 31.2017 47.8572 31.294 48.1499 31.4105C48.4425 31.527 48.7138 31.6804 48.9638 31.8707C49.2138 32.0611 49.4155 32.2969 49.5689 32.5781C49.7251 32.8594 49.8033 33.196 49.8033 33.5881C49.8033 34.0824 49.6754 34.5213 49.4197 34.9048C49.1669 35.2884 48.799 35.5909 48.3161 35.8125C47.8359 36.0341 47.255 36.1449 46.5732 36.1449C45.9197 36.1449 45.3544 36.0412 44.8771 35.8338C44.3999 35.6264 44.0263 35.3324 43.7564 34.9517C43.4865 34.5682 43.3374 34.1136 43.3089 33.5881H44.63C44.6555 33.9034 44.7578 34.1662 44.9368 34.3764C45.1186 34.5838 45.3501 34.7386 45.6314 34.8409C45.9155 34.9403 46.2266 34.9901 46.5646 34.9901C46.9368 34.9901 47.2678 34.9318 47.5575 34.8153C47.8501 34.696 48.0803 34.5312 48.2479 34.321C48.4155 34.108 48.4993 33.8594 48.4993 33.5753C48.4993 33.3168 48.4254 33.1051 48.2777 32.9403C48.1328 32.7756 47.9354 32.6392 47.6854 32.5312C47.4382 32.4233 47.1584 32.3281 46.8459 32.2457L45.8146 31.9645C45.1158 31.7741 44.5618 31.4943 44.1527 31.125C43.7464 30.7557 43.5433 30.267 43.5433 29.6591C43.5433 29.1562 43.6797 28.7173 43.9524 28.3423C44.2251 27.9673 44.5945 27.6761 45.0604 27.4688C45.5263 27.2585 46.0518 27.1534 46.6371 27.1534C47.228 27.1534 47.7493 27.2571 48.201 27.4645C48.6555 27.6719 49.0135 27.9574 49.2749 28.321C49.5362 28.6818 49.6726 29.0966 49.6839 29.5653H48.4141ZM51.2745 38.4545V29.4545H52.5188V30.5156H52.6254C52.6992 30.3793 52.8058 30.2216 52.945 30.0426C53.0842 29.8636 53.2773 29.7074 53.5245 29.5739C53.7717 29.4375 54.0984 29.3693 54.5046 29.3693C55.033 29.3693 55.5046 29.5028 55.9194 29.7699C56.3342 30.0369 56.6594 30.4219 56.8952 30.9247C57.1339 31.4276 57.2532 32.0327 57.2532 32.7401C57.2532 33.4474 57.1353 34.054 56.8995 34.5597C56.6637 35.0625 56.3398 35.4503 55.9279 35.723C55.516 35.9929 55.0458 36.1278 54.5174 36.1278C54.1197 36.1278 53.7944 36.0611 53.5415 35.9276C53.2915 35.794 53.0955 35.6378 52.9535 35.4588C52.8114 35.2798 52.7021 35.1207 52.6254 34.9815H52.5487V38.4545H51.2745ZM52.5231 32.7273C52.5231 33.1875 52.5898 33.5909 52.7234 33.9375C52.8569 34.2841 53.0501 34.5554 53.3029 34.7514C53.5558 34.9446 53.8654 35.0412 54.2319 35.0412C54.6126 35.0412 54.9308 34.9403 55.1864 34.7386C55.4421 34.5341 55.6353 34.2571 55.766 33.9077C55.8995 33.5582 55.9663 33.1648 55.9663 32.7273C55.9663 32.2955 55.9009 31.9077 55.7702 31.5639C55.6424 31.2202 55.4492 30.9489 55.1907 30.75C54.935 30.5511 54.6154 30.4517 54.2319 30.4517C53.8626 30.4517 53.5501 30.5469 53.2944 30.7372C53.0415 30.9276 52.8498 31.1932 52.7191 31.5341C52.5884 31.875 52.5231 32.2727 52.5231 32.7273ZM61.5018 36.1321C60.8569 36.1321 60.3015 35.9943 59.8356 35.7188C59.3725 35.4403 59.0146 35.0497 58.7617 34.5469C58.5117 34.0412 58.3867 33.4489 58.3867 32.7699C58.3867 32.0994 58.5117 31.5085 58.7617 30.9972C59.0146 30.4858 59.3668 30.0866 59.8185 29.7997C60.2731 29.5128 60.8043 29.3693 61.4123 29.3693C61.7816 29.3693 62.1396 29.4304 62.4862 29.5526C62.8327 29.6747 63.1438 29.8665 63.4194 30.1278C63.695 30.3892 63.9123 30.7287 64.0714 31.1463C64.2305 31.5611 64.31 32.0653 64.31 32.6591V33.1108H59.1069V32.1562H63.0614C63.0614 31.821 62.9933 31.5241 62.8569 31.2656C62.7205 31.0043 62.5288 30.7983 62.2816 30.6477C62.0373 30.4972 61.7504 30.4219 61.4208 30.4219C61.0629 30.4219 60.7504 30.5099 60.4833 30.6861C60.2191 30.8594 60.0146 31.0866 59.8697 31.3679C59.7276 31.6463 59.6566 31.9489 59.6566 32.2756V33.0213C59.6566 33.4588 59.7333 33.831 59.8867 34.1378C60.043 34.4446 60.2603 34.679 60.5387 34.8409C60.8171 35 61.1424 35.0795 61.5146 35.0795C61.756 35.0795 61.9762 35.0455 62.1751 34.9773C62.3739 34.9062 62.5458 34.8011 62.6907 34.6619C62.8356 34.5227 62.9464 34.3509 63.0231 34.1463L64.229 34.3636C64.1325 34.7187 63.9592 35.0298 63.7092 35.2969C63.462 35.5611 63.1509 35.767 62.7759 35.9148C62.4038 36.0597 61.979 36.1321 61.5018 36.1321ZM68.5447 36.1321C67.8999 36.1321 67.3445 35.9943 66.8786 35.7188C66.4155 35.4403 66.0575 35.0497 65.8047 34.5469C65.5547 34.0412 65.4297 33.4489 65.4297 32.7699C65.4297 32.0994 65.5547 31.5085 65.8047 30.9972C66.0575 30.4858 66.4098 30.0866 66.8615 29.7997C67.3161 29.5128 67.8473 29.3693 68.4553 29.3693C68.8246 29.3693 69.1825 29.4304 69.5291 29.5526C69.8757 29.6747 70.1868 29.8665 70.4624 30.1278C70.7379 30.3892 70.9553 30.7287 71.1143 31.1463C71.2734 31.5611 71.353 32.0653 71.353 32.6591V33.1108H66.1499V32.1562H70.1044C70.1044 31.821 70.0362 31.5241 69.8999 31.2656C69.7635 31.0043 69.5717 30.7983 69.3246 30.6477C69.0803 30.4972 68.7933 30.4219 68.4638 30.4219C68.1058 30.4219 67.7933 30.5099 67.5263 30.6861C67.2621 30.8594 67.0575 31.0866 66.9126 31.3679C66.7706 31.6463 66.6996 31.9489 66.6996 32.2756V33.0213C66.6996 33.4588 66.7763 33.831 66.9297 34.1378C67.0859 34.4446 67.3033 34.679 67.5817 34.8409C67.8601 35 68.1854 35.0795 68.5575 35.0795C68.799 35.0795 69.0192 35.0455 69.218 34.9773C69.4169 34.9062 69.5888 34.8011 69.7337 34.6619C69.8786 34.5227 69.9893 34.3509 70.0661 34.1463L71.272 34.3636C71.1754 34.7187 71.0021 35.0298 70.7521 35.2969C70.505 35.5611 70.1939 35.767 69.8189 35.9148C69.4467 36.0597 69.022 36.1321 68.5447 36.1321ZM75.217 36.1278C74.6886 36.1278 74.217 35.9929 73.8022 35.723C73.3903 35.4503 73.0664 35.0625 72.8306 34.5597C72.5977 34.054 72.4812 33.4474 72.4812 32.7401C72.4812 32.0327 72.5991 31.4276 72.8349 30.9247C73.0735 30.4219 73.4002 30.0369 73.815 29.7699C74.2298 29.5028 74.6999 29.3693 75.2255 29.3693C75.6317 29.3693 75.9585 29.4375 76.2056 29.5739C76.4556 29.7074 76.6488 29.8636 76.7852 30.0426C76.9244 30.2216 77.0323 30.3793 77.109 30.5156H77.1857V27.2727H78.4599V36H77.2156V34.9815H77.109C77.0323 35.1207 76.9215 35.2798 76.7766 35.4588C76.6346 35.6378 76.4386 35.794 76.1886 35.9276C75.9386 36.0611 75.6147 36.1278 75.217 36.1278ZM75.4982 35.0412C75.8647 35.0412 76.1744 34.9446 76.4272 34.7514C76.6829 34.5554 76.8761 34.2841 77.0067 33.9375C77.1403 33.5909 77.207 33.1875 77.207 32.7273C77.207 32.2727 77.1417 31.875 77.011 31.5341C76.8803 31.1932 76.6886 30.9276 76.4357 30.7372C76.1829 30.5469 75.8704 30.4517 75.4982 30.4517C75.1147 30.4517 74.7951 30.5511 74.5394 30.75C74.2837 30.9489 74.0906 31.2202 73.9599 31.5639C73.832 31.9077 73.7681 32.2955 73.7681 32.7273C73.7681 33.1648 73.8335 33.5582 73.9641 33.9077C74.0948 34.2571 74.288 34.5341 74.5437 34.7386C74.8022 34.9403 75.1204 35.0412 75.4982 35.0412ZM83.5565 36V27.2727H84.8732V34.8665H88.8278V36H83.5565ZM90.2276 36V29.4545H91.5018V36H90.2276ZM90.8711 28.4446C90.6495 28.4446 90.4592 28.3707 90.3001 28.223C90.1438 28.0724 90.0657 27.8935 90.0657 27.6861C90.0657 27.4759 90.1438 27.2969 90.3001 27.1491C90.4592 26.9986 90.6495 26.9233 90.8711 26.9233C91.0927 26.9233 91.2816 26.9986 91.4379 27.1491C91.5969 27.2969 91.6765 27.4759 91.6765 27.6861C91.6765 27.8935 91.5969 28.0724 91.4379 28.223C91.2816 28.3707 91.0927 28.4446 90.8711 28.4446ZM94.4901 32.1136V36H93.2159V29.4545H94.4389V30.5199H94.5199C94.6705 30.1733 94.9063 29.8949 95.2273 29.6847C95.5511 29.4744 95.9588 29.3693 96.4503 29.3693C96.8963 29.3693 97.2869 29.4631 97.6222 29.6506C97.9574 29.8352 98.2173 30.1108 98.402 30.4773C98.5866 30.8437 98.679 31.2969 98.679 31.8366V36H97.4048V31.9901C97.4048 31.5156 97.2813 31.1449 97.0341 30.8778C96.7869 30.608 96.4474 30.473 96.0156 30.473C95.7202 30.473 95.4574 30.5369 95.2273 30.6648C95 30.7926 94.8196 30.9801 94.6861 31.2273C94.5554 31.4716 94.4901 31.767 94.4901 32.1136ZM103.209 36.1321C102.564 36.1321 102.009 35.9943 101.543 35.7188C101.08 35.4403 100.722 35.0497 100.469 34.5469C100.219 34.0412 100.094 33.4489 100.094 32.7699C100.094 32.0994 100.219 31.5085 100.469 30.9972C100.722 30.4858 101.074 30.0866 101.526 29.7997C101.98 29.5128 102.511 29.3693 103.119 29.3693C103.489 29.3693 103.847 29.4304 104.193 29.5526C104.54 29.6747 104.851 29.8665 105.126 30.1278C105.402 30.3892 105.619 30.7287 105.778 31.1463C105.938 31.5611 106.017 32.0653 106.017 32.6591V33.1108H100.814V32.1562H104.768C104.768 31.821 104.7 31.5241 104.564 31.2656C104.428 31.0043 104.236 30.7983 103.989 30.6477C103.744 30.4972 103.457 30.4219 103.128 30.4219C102.77 30.4219 102.457 30.5099 102.19 30.6861C101.926 30.8594 101.722 31.0866 101.577 31.3679C101.435 31.6463 101.364 31.9489 101.364 32.2756V33.0213C101.364 33.4588 101.44 33.831 101.594 34.1378C101.75 34.4446 101.967 34.679 102.246 34.8409C102.524 35 102.849 35.0795 103.222 35.0795C103.463 35.0795 103.683 35.0455 103.882 34.9773C104.081 34.9062 104.253 34.8011 104.398 34.6619C104.543 34.5227 104.653 34.3509 104.73 34.1463L105.936 34.3636C105.839 34.7187 105.666 35.0298 105.416 35.2969C105.169 35.5611 104.858 35.767 104.483 35.9148C104.111 36.0597 103.686 36.1321 103.209 36.1321ZM112.336 31.0526L111.181 31.2571C111.132 31.1094 111.056 30.9687 110.951 30.8352C110.848 30.7017 110.709 30.5923 110.533 30.5071C110.357 30.4219 110.137 30.3793 109.873 30.3793C109.512 30.3793 109.211 30.4602 108.969 30.6222C108.728 30.7812 108.607 30.9872 108.607 31.2401C108.607 31.4588 108.688 31.6349 108.85 31.7685C109.012 31.902 109.273 32.0114 109.634 32.0966L110.674 32.3352C111.276 32.4744 111.725 32.6889 112.02 32.9787C112.316 33.2685 112.463 33.6449 112.463 34.108C112.463 34.5 112.35 34.8494 112.123 35.1562C111.898 35.4602 111.584 35.6989 111.181 35.8722C110.78 36.0455 110.316 36.1321 109.787 36.1321C109.054 36.1321 108.456 35.9759 107.993 35.6634C107.53 35.348 107.246 34.9006 107.141 34.321L108.373 34.1335C108.449 34.4545 108.607 34.6974 108.846 34.8622C109.084 35.0241 109.395 35.1051 109.779 35.1051C110.196 35.1051 110.53 35.0185 110.78 34.8452C111.03 34.669 111.155 34.4545 111.155 34.2017C111.155 33.9972 111.078 33.8253 110.925 33.6861C110.775 33.5469 110.543 33.4418 110.23 33.3707L109.123 33.1278C108.512 32.9886 108.06 32.767 107.767 32.4631C107.478 32.1591 107.333 31.7741 107.333 31.3082C107.333 30.9219 107.441 30.5838 107.657 30.294C107.873 30.0043 108.171 29.7784 108.551 29.6165C108.932 29.4517 109.368 29.3693 109.86 29.3693C110.567 29.3693 111.124 29.5227 111.53 29.8295C111.936 30.1335 112.205 30.5412 112.336 31.0526Z" fill="#56544D"/>
<g clip-path="url(#clip0_343_274)">
<path d="M19.4395 54H17.7393L19.9477 47.4545H22.0539L24.2623 54H22.5621L21.0248 49.1037H20.9736L19.4395 54ZM19.2126 51.424H22.7666V52.6257H19.2126V51.424Z" fill="#56544D"/>
</g>
<rect x="14" y="44" width="14" height="14" rx="7" stroke="#FF7474" stroke-width="2"/>
<g clip-path="url(#clip1_343_274)">
<path d="M39.5071 54V47.4545H42.2365C42.7266 47.4545 43.1367 47.5238 43.467 47.6623C43.7994 47.8008 44.0487 47.9947 44.2148 48.244C44.3832 48.4933 44.4673 48.782 44.4673 49.1101C44.4673 49.3594 44.4151 49.582 44.3107 49.7781C44.2063 49.9719 44.0625 50.1328 43.8793 50.2607C43.696 50.3885 43.484 50.478 43.2433 50.5291V50.593C43.5075 50.6058 43.7514 50.6772 43.9751 50.8072C44.201 50.9371 44.3821 51.1183 44.5185 51.3505C44.6548 51.5806 44.723 51.8533 44.723 52.1687C44.723 52.5202 44.6335 52.8345 44.4545 53.1115C44.2756 53.3864 44.0167 53.6037 43.6779 53.7635C43.3391 53.9212 42.9279 54 42.4442 54H39.5071ZM41.0891 52.7248H42.0671C42.4102 52.7248 42.6626 52.6598 42.8246 52.5298C42.9886 52.3999 43.0707 52.2188 43.0707 51.9865C43.0707 51.8182 43.0313 51.6733 42.9524 51.5518C42.8736 51.4283 42.7617 51.3335 42.6168 51.2674C42.4719 51.1992 42.2983 51.1651 42.0959 51.1651H41.0891V52.7248ZM41.0891 50.1456H41.9648C42.1374 50.1456 42.2908 50.1168 42.4251 50.0593C42.5593 50.0018 42.6637 49.9187 42.7383 49.81C42.815 49.7013 42.8533 49.5703 42.8533 49.4169C42.8533 49.1974 42.7756 49.0249 42.62 48.8991C42.4645 48.7734 42.2546 48.7106 41.9904 48.7106H41.0891V50.1456Z" fill="#56544D"/>
</g>
<rect x="35" y="44" width="14" height="14" rx="7" stroke="#FF8AFA" stroke-width="2"/>
<g clip-path="url(#clip2_343_274)">
<path d="M66.0135 49.826H64.4154C64.3941 49.6619 64.3505 49.5138 64.2844 49.3817C64.2184 49.2496 64.131 49.1367 64.0223 49.043C63.9137 48.9492 63.7848 48.8778 63.6356 48.8288C63.4886 48.7777 63.3256 48.7521 63.1466 48.7521C62.8291 48.7521 62.5554 48.8299 62.3252 48.9854C62.0973 49.141 61.9215 49.3658 61.7979 49.6598C61.6764 49.9538 61.6157 50.3097 61.6157 50.7273C61.6157 51.1619 61.6775 51.5263 61.8011 51.8203C61.9268 52.1122 62.1026 52.3327 62.3284 52.4819C62.5564 52.6289 62.8259 52.7024 63.137 52.7024C63.3117 52.7024 63.4705 52.68 63.6132 52.6353C63.7581 52.5906 63.8849 52.5256 63.9936 52.4403C64.1044 52.353 64.1949 52.2475 64.2652 52.1239C64.3377 51.9982 64.3877 51.8565 64.4154 51.6989L66.0135 51.7085C65.9858 51.9982 65.9016 52.2837 65.761 52.565C65.6225 52.8462 65.4318 53.103 65.1889 53.3352C64.946 53.5653 64.6498 53.7486 64.3004 53.8849C63.9531 54.0213 63.5546 54.0895 63.1051 54.0895C62.5127 54.0895 61.9822 53.9595 61.5135 53.6996C61.0468 53.4375 60.6782 53.0561 60.4076 52.5554C60.137 52.0547 60.0017 51.4453 60.0017 50.7273C60.0017 50.0071 60.1392 49.3967 60.414 48.896C60.6889 48.3952 61.0607 48.0149 61.5294 47.755C61.9982 47.495 62.5234 47.3651 63.1051 47.3651C63.5014 47.3651 63.8679 47.4205 64.2045 47.5312C64.5411 47.6399 64.8373 47.7997 65.093 48.0107C65.3487 48.2195 65.5564 48.4762 65.7162 48.7809C65.876 49.0856 65.9751 49.4339 66.0135 49.826Z" fill="#56544D"/>
</g>
<rect x="56" y="44" width="14" height="14" rx="7" stroke="#8D7EE8" stroke-width="2"/>
<g clip-path="url(#clip3_343_274)">
<path d="M83.6277 54H81.2083V47.4545H83.6245C84.2914 47.4545 84.8656 47.5856 85.3471 47.8477C85.8308 48.1076 86.2037 48.4826 86.4657 48.9727C86.7278 49.4606 86.8588 50.0444 86.8588 50.7241C86.8588 51.4059 86.7278 51.9918 86.4657 52.4819C86.2058 52.9719 85.834 53.348 85.3503 53.6101C84.8667 53.87 84.2924 54 83.6277 54ZM82.7903 52.6513H83.5669C83.9334 52.6513 84.2434 52.5895 84.497 52.4659C84.7527 52.3402 84.9455 52.1367 85.0755 51.8555C85.2076 51.5721 85.2736 51.195 85.2736 50.7241C85.2736 50.2532 85.2076 49.8782 85.0755 49.5991C84.9434 49.3178 84.7484 49.1154 84.4906 48.9918C84.2349 48.8661 83.9196 48.8033 83.5446 48.8033H82.7903V52.6513Z" fill="#56544D"/>
</g>
<rect x="77" y="44" width="14" height="14" rx="7" stroke="#2C7187" stroke-width="2"/>
<g clip-path="url(#clip4_343_274)">
<path d="M102.718 54V47.4545H107.282V48.7393H104.3V50.0817H107.049V51.3697H104.3V52.7152H107.282V54H102.718Z" fill="#56544D"/>
</g>
<rect x="98" y="44" width="14" height="14" rx="7" stroke="#43D95B" stroke-width="2"/>
<path d="M66.1334 20.3101L64.2664 14.661H65.2292L66.3595 18.1958C66.393 18.2818 66.4237 18.3841 66.4516 18.5024C66.4795 18.6154 66.5046 18.7311 66.5269 18.8494C66.5492 18.9678 66.5688 19.0781 66.5855 19.1803C66.6078 19.2825 66.6274 19.3659 66.6441 19.4305L66.4013 19.4224C66.4851 19.1373 66.5492 18.9167 66.5939 18.7607C66.6441 18.6046 66.6832 18.4863 66.7111 18.4056C66.739 18.3195 66.7641 18.2469 66.7865 18.1877L67.8414 15.6375H68.6535L69.6749 18.1877C69.7307 18.3168 69.7781 18.4459 69.8172 18.5751C69.8618 18.6988 69.9009 18.8252 69.9344 18.9544C69.9679 19.0781 70.0042 19.2099 70.0432 19.3498L69.8256 19.4063C69.8535 19.261 69.873 19.148 69.8842 19.0673C69.9009 18.9813 69.9149 18.9113 69.926 18.8575C69.9372 18.8037 69.9484 18.7526 69.9595 18.7042C69.9707 18.6504 69.9874 18.5831 70.0097 18.5024C70.0377 18.4217 70.0739 18.3114 70.1186 18.1716L71.2321 14.661H72.2033L70.3363 20.3101H69.7083L68.1595 16.7754L68.2348 16.8077L66.7446 20.3101H66.1334Z" fill="#FF5353"/>
<path d="M60.8309 20.3908C60.4179 20.3908 60.0356 20.3182 59.684 20.1729C59.3379 20.0277 59.0337 19.8259 58.7714 19.5677C58.5146 19.3041 58.3137 18.9974 58.1686 18.6477C58.029 18.2926 57.9593 17.9052 57.9593 17.4856C57.9593 17.0659 58.029 16.6813 58.1686 16.3316C58.3137 15.9765 58.5146 15.6698 58.7714 15.4116C59.0337 15.1479 59.3379 14.9435 59.684 14.7982C60.0356 14.653 60.4179 14.5803 60.8309 14.5803C61.244 14.5803 61.6235 14.653 61.9696 14.7982C62.3212 14.9435 62.6254 15.1479 62.8821 15.4116C63.1445 15.6752 63.3454 15.9845 63.4849 16.3396C63.6301 16.6893 63.7026 17.0713 63.7026 17.4856C63.7026 17.8999 63.6301 18.2845 63.4849 18.6396C63.3454 18.9893 63.1445 19.296 62.8821 19.5596C62.6254 19.8232 62.3212 20.0277 61.9696 20.1729C61.6235 20.3182 61.244 20.3908 60.8309 20.3908ZM60.8309 19.5435C61.1156 19.5435 61.3751 19.4924 61.6096 19.3901C61.8496 19.2879 62.0561 19.1453 62.2291 18.9624C62.4021 18.7741 62.5361 18.5562 62.631 18.3087C62.7314 18.0559 62.7817 17.7815 62.7817 17.4856C62.7817 17.1897 62.7314 16.918 62.631 16.6705C62.5361 16.4176 62.4021 16.1998 62.2291 16.0168C62.0561 15.8285 61.8496 15.6833 61.6096 15.581C61.3751 15.4788 61.1156 15.4277 60.8309 15.4277C60.5463 15.4277 60.284 15.4788 60.044 15.581C59.8095 15.6833 59.603 15.8258 59.4244 16.0088C59.2514 16.1917 59.1174 16.4096 59.0225 16.6624C58.9277 16.9099 58.8802 17.1843 58.8802 17.4856C58.8802 17.7815 58.9277 18.0559 59.0225 18.3087C59.1174 18.5616 59.2514 18.7795 59.4244 18.9624C59.603 19.1453 59.8095 19.2879 60.044 19.3901C60.284 19.4924 60.5463 19.5435 60.8309 19.5435Z" fill="#FF5353"/>
<path d="M52.6384 20.3101V14.661H55.1333C55.4682 14.661 55.7751 14.7417 56.0542 14.9031C56.3389 15.0592 56.5649 15.2744 56.7324 15.5488C56.8998 15.8178 56.9835 16.1217 56.9835 16.4607C56.9835 16.7673 56.8998 17.0525 56.7324 17.3161C56.5649 17.5797 56.3417 17.7923 56.0626 17.9537C55.7835 18.1097 55.4737 18.1877 55.1333 18.1877H53.5426V20.3101H52.6384ZM56.1212 20.3101L54.6309 17.76L55.5603 17.5582L57.218 20.3182L56.1212 20.3101ZM53.5426 17.3484H55.217C55.3789 17.3484 55.524 17.3107 55.6524 17.2354C55.7807 17.1547 55.8812 17.0471 55.9538 16.9126C56.0263 16.7727 56.0626 16.6194 56.0626 16.4526C56.0626 16.2643 56.0152 16.1002 55.9203 15.9603C55.831 15.8151 55.7026 15.7021 55.5351 15.6214C55.3733 15.5407 55.1891 15.5003 54.9826 15.5003H53.5426V17.3484Z" fill="#FF5353"/>
<path d="M46.8171 20.3101V14.661H49.312C49.6469 14.661 49.9539 14.7417 50.2329 14.9031C50.5176 15.0592 50.7436 15.2744 50.9111 15.5488C51.0785 15.8178 51.1622 16.1217 51.1622 16.4607C51.1622 16.7673 51.0785 17.0525 50.9111 17.3161C50.7436 17.5797 50.5204 17.7923 50.2413 17.9537C49.9622 18.1097 49.6525 18.1877 49.312 18.1877H47.7213V20.3101H46.8171ZM50.2999 20.3101L48.8097 17.76L49.739 17.5582L51.3967 20.3182L50.2999 20.3101ZM47.7213 17.3484H49.3957C49.5576 17.3484 49.7027 17.3107 49.8311 17.2354C49.9594 17.1547 50.0599 17.0471 50.1325 16.9126C50.205 16.7727 50.2413 16.6194 50.2413 16.4526C50.2413 16.2643 50.1939 16.1002 50.099 15.9603C50.0097 15.8151 49.8813 15.7021 49.7139 15.6214C49.552 15.5407 49.3678 15.5003 49.1613 15.5003H47.7213V17.3484Z" fill="#FF5353"/>
<path d="M40.3437 20.3101L42.6126 14.661H43.5335L45.7857 20.3101H44.8229L43.4833 16.9045C43.4666 16.8669 43.4331 16.7754 43.3828 16.6302C43.3382 16.4849 43.2852 16.3235 43.2238 16.1459C43.1624 15.9684 43.1066 15.807 43.0563 15.6617C43.0061 15.5111 42.9726 15.4143 42.9559 15.3712L43.1484 15.3631C43.1149 15.4546 43.0731 15.5703 43.0228 15.7102C42.9782 15.85 42.9279 15.998 42.8721 16.154C42.8219 16.31 42.7717 16.458 42.7214 16.5979C42.6712 16.7324 42.6293 16.8454 42.5959 16.9368L41.2647 20.3101H40.3437ZM41.3484 18.9059L41.6833 18.0666H44.3456L44.7308 18.9059H41.3484Z" fill="#FF5353"/>
<path d="M32.3456 20.3101V14.661H34.6396C35.0582 14.661 35.4349 14.7283 35.7698 14.8628C36.1103 14.9973 36.4005 15.191 36.6405 15.4438C36.8805 15.6967 37.0647 15.9953 37.1931 16.3396C37.3215 16.684 37.3857 17.0659 37.3857 17.4856C37.3857 17.9052 37.3215 18.2899 37.1931 18.6396C37.0647 18.9839 36.8805 19.2825 36.6405 19.5354C36.4061 19.7829 36.1187 19.9739 35.7782 20.1084C35.4377 20.2429 35.0582 20.3101 34.6396 20.3101H32.3456ZM33.2498 19.5596L33.2247 19.4708H34.5977C34.8935 19.4708 35.1559 19.4251 35.3847 19.3337C35.6191 19.2422 35.8145 19.1131 35.9708 18.9463C36.1326 18.7741 36.2554 18.5643 36.3391 18.3168C36.4229 18.0693 36.4647 17.7923 36.4647 17.4856C36.4647 17.1789 36.4229 16.9045 36.3391 16.6624C36.2554 16.415 36.1326 16.2051 35.9708 16.033C35.8089 15.8608 35.6136 15.729 35.3847 15.6375C35.1559 15.5461 34.8935 15.5003 34.5977 15.5003H33.1996L33.2498 15.4277V19.5596Z" fill="#FF5353"/>
<path d="M27.2029 20.3101V14.661H30.8951V15.5003H28.1071V19.4708H30.8951V20.3101H27.2029ZM27.6132 17.8326V16.9933H30.4346V17.8326H27.6132Z" fill="#FF5353"/>
<path d="M21.3816 20.3101V14.661H23.8765C24.2114 14.661 24.5184 14.7417 24.7975 14.9031C25.0821 15.0592 25.3082 15.2744 25.4756 15.5488C25.6431 15.8178 25.7268 16.1217 25.7268 16.4607C25.7268 16.7673 25.6431 17.0525 25.4756 17.3161C25.3082 17.5797 25.0849 17.7923 24.8059 17.9537C24.5268 18.1097 24.217 18.1877 23.8765 18.1877H22.2858V20.3101H21.3816ZM24.8645 20.3101L23.3742 17.76L24.3035 17.5582L25.9612 20.3182L24.8645 20.3101ZM22.2858 17.3484H23.9603C24.1221 17.3484 24.2672 17.3107 24.3956 17.2354C24.524 17.1547 24.6245 17.0471 24.697 16.9126C24.7696 16.7727 24.8059 16.6194 24.8059 16.4526C24.8059 16.2643 24.7584 16.1002 24.6635 15.9603C24.5742 15.8151 24.4459 15.7021 24.2784 15.6214C24.1165 15.5407 23.9324 15.5003 23.7258 15.5003H22.2858V17.3484Z" fill="#FF5353"/>
<path fill-rule="evenodd" clip-rule="evenodd" d="M16.7117 14L17.2344 14.5151L14.069 17.5L17.2344 20.4849L16.7117 21L13 17.5L16.7117 14Z" fill="#FF5353"/>
<path fill-rule="evenodd" clip-rule="evenodd" d="M76.2883 14L75.7656 14.5151L78.931 17.5L75.7656 20.4849L76.2883 21L80 17.5L76.2883 14Z" fill="#FF5353"/>
<defs>
<clipPath id="clip0_343_274">
<rect x="13" y="43" width="16" height="16" rx="8" fill="white"/>
</clipPath>
<clipPath id="clip1_343_274">
<rect x="34" y="43" width="16" height="16" rx="8" fill="white"/>
</clipPath>
<clipPath id="clip2_343_274">
<rect x="55" y="43" width="16" height="16" rx="8" fill="white"/>
</clipPath>
<clipPath id="clip3_343_274">
<rect x="76" y="43" width="16" height="16" rx="8" fill="white"/>
</clipPath>
<clipPath id="clip4_343_274">
<rect x="97" y="43" width="16" height="16" rx="8" fill="white"/>
</clipPath>
</defs>
</svg>
