<?xml version="1.0" encoding="utf-8"?>
<svg viewBox="0 0 600 600" fill="none" xmlns="http://www.w3.org/2000/svg">
  <path d="M103.5 473H157C159.209 473 161 471.209 161 469V332C161 329.791 162.791 328 165 328H313C315.209 328 317 329.791 317 332V354" stroke="#8D7EE8" stroke-width="3"/>
  <path d="M388.5 68V248H385.5V68" stroke="#FF7474"/>
  <path d="M181 418V459C181 461.209 182.791 463 185 463H253C255.209 463 257 461.209 257 459V438" stroke="#FF8AFA" stroke-width="3" stroke-dasharray="10 1"/>
  <path d="M134 523H177C179.209 523 181 521.209 181 519V477C181 474.791 182.791 473 185 473H253C260.732 473 267 466.732 267 459V438" stroke="#FFC42E" stroke-width="3" stroke-dasharray="10 1"/>
  <path d="M377 68V32C377 29.7909 378.791 28 381 28H461" stroke="#809CB1" stroke-width="3"/>
  <path d="M397 68V102.201C397 105.914 398.475 109.475 401.101 112.101L412.899 123.899C415.525 126.525 417 130.086 417 133.799V187.201C417 190.914 415.525 194.475 412.899 197.101L404.029 205.971C399.529 210.471 397 216.576 397 222.941V259C397 261.209 395.209 263 393 263H341C338.791 263 337 264.791 337 267V278" stroke="#59C3FF" stroke-width="3"/>
  <path d="M367 68V52C367 49.7909 365.209 48 363 48H351" stroke="#5F8098" stroke-width="3"/>
  <path fill-rule="evenodd" clip-rule="evenodd" d="M431 219.5C424.096 219.5 418.5 225.096 418.5 232V248H415.5V232C415.5 223.44 422.44 216.5 431 216.5H521V219.5H431Z" stroke="#FF8AFA"/>
  <path d="M276 533H175C172.791 533 171 531.209 171 529V418" stroke="#59C3FF" stroke-width="3" stroke-dasharray="10 1"/>
  <path d="M407 248V223.799C407 220.086 408.475 216.525 411.101 213.899L422.899 202.101C425.525 199.475 427 195.914 427 192.201V142C427 139.791 425.209 138 423 138H255M255 138H212.5C210.291 138 208.5 139.791 208.5 142V173.5C208.5 175.709 210.291 177.5 212.5 177.5H244C246.209 177.5 248 175.709 248 173.5V145C248 141.134 251.134 138 255 138V138Z" stroke="#FF8AFA" stroke-width="3"/>
  <path d="M151 418V302C151 299.791 152.791 298 155 298H313C315.209 298 317 296.209 317 294V278" stroke="#43D95B" stroke-width="3"/>
  <path d="M327 354V278" stroke="#5F8098" stroke-width="3"/>
</svg>